<svg width="710" height="710" viewbox = "0 0 710 710"  xmlns="http://www.w3.org/2000/svg">
<!--<json>{
  "glyph": "0331,0331,0332,0332,0332,0336,0333,0337,0332,0332,0321,0230,0333,0333,0333,0231,0333,0333,0333,0232,0333,0333,0333,0233,0334,0330,0342,0330,0330,0330,0342,0330,0330,0330,0342,0335,0330,0332,0332,0342,0330,0201,0330,0225,0336,0320,0336,0211,0211,0211,0224,0210,0210,0210,0330,0330,0330,0330,0337,0337,0321,0333,0331,0335,0201,0334,0333,0333,0337,0226,",
  "x0": 355,
  "y0": 355,
  "unit": 52.90249672464,
  "width": 710,
  "height": 710,
  "style": {
    "color0": "black",
    "fill0": "black",
    "line0": 1,
    "color1": "black",
    "fill1": "black",
    "line1": 5,
    "color2": "red",
    "fill2": "red",
    "line2": 1,
    "color3": "#FF7900",
    "fill3": "#FF7900",
    "line3": 1,
    "color4": "yellow",
    "fill4": "yellow",
    "line4": 1,
    "color5": "green",
    "fill5": "green",
    "line5": 1,
    "color6": "blue",
    "fill6": "blue",
    "line6": 1,
    "color7": "purple",
    "fill7": "purple",
    "line7": 1
  },
  "shapes": [
    "0220:0370,0336,0336,0331,0332,0336,0331,0332,0337,0337,0337,01124,0371,",
    "0221:0336,0336,0336,0334,0362,0203,0335,0337,0337,0337,0203,0334,0336,0336,0203,0336,0335,0350,0335,0310,0337,0203,0203,0203,0335,0335,0203,0203,0203,0335,0335,0335,0336,0203,0203,0334,0334,0313,0304,0337,0337,0337,0203,0335,0336,0336,0336,0203,0363,0335,0337,0337,0337,",
    "0222:0330,0221,0331,0350,0335,0304,",
    "0223:0222,0222,0222,0222,0222,0222,0222,0222,0211,0211,0211,0220,0210,0210,0210,",
    "0224:0322,0222,0325,0222,0326,0222,0327,0222,0322,0222,0325,0222,0326,0222,0327,0222,0321,0211,0211,0211,0220,0210,0210,0210,0320,",
    "0225:0321,0331,0333,0337,0200,0336,0330,0332,",
    "0226:0370,0321,0341,0335,0342,0335,0335,0342,0335,0334,0335,0342,0335,0335,0342,0335,0335,0335,0336,0332,0337,0210,0342,0335,0335,0342,0211,0332,0210,0342,0335,0335,0342,0335,0335,0335,0211,0336,0330,0337,0334,0336,0331,0350,0337,0350,0353,0214,0214,0214,0343,0371,0335,0336,0331,0337,0350,0350,0353,0214,0214,0214,0343,0371,",
    "0230:0370,0322,0336,0331,0332,0336,0332,0336,0330,0337,0337,0337,01124,01061,0371,0225,",
    "0231:0370,0325,0336,0331,0332,0336,0332,0336,0330,0337,0337,0337,01124,01062,0371,0225,",
    "0232:0370,0326,0336,0331,0332,0336,0332,0336,0330,0337,0337,0337,01124,01063,0371,0225,",
    "0233:0370,0327,0336,0331,0332,0336,0332,0336,0330,0337,0337,0337,01124,01064,0371,0225,",
    "01220:0333,0200,0336,0330,0332,0336,0220,0337,0331,0333,0337,",
    "01221:0333,0200,0336,0330,0332,0336,0221,0337,0331,0333,0337,",
    "01222:0333,0200,0336,0330,0332,0336,0222,0222,0222,0350,0335,0304,0337,0335,0335,0331,0333,0337,",
    "01223:0333,0200,0336,0330,0332,0336,0223,0337,0331,0333,0337,",
    "01224:0333,0200,0336,0330,0332,0336,0224,0337,0331,0333,0337,",
    "01225:0333,0200,0336,0330,0332,0225,0331,0333,0337,",
    "01226:0333,0200,0336,0330,0332,0226,",
    "01227:0333,0200,",
    "01230:0333,0200,0336,0330,0332,0230,0331,0333,0337,",
    "01231:0333,0200,0336,0330,0332,0231,0331,0333,0337,",
    "01232:0333,0200,0336,0330,0332,0232,0331,0333,0337,",
    "01233:0333,0200,0336,0330,0332,0233,0331,0333,0337,",
    "01234:0333,0200,0336,0336,0330,0330,0330,0234,0331,0331,0333,0333,0331,0331,0333,0333,0337,0337,0333,0333,0333,",
    "01235:0333,0200,0336,0336,0330,0235,0331,0333,0337,0337,",
    "01236:0333,0200,",
    "01237:0333,0200,",
    "0240:0220,0336,0331,0333,0336,0321,0335,0342,0335,0335,0342,0335,0330,0330,0332,0332,0337,0337,",
    "01240:0333,0200,0336,0330,0332,0210,0240,0211,0333,0331,0337,",
    "0241:0220,0336,0321,0343,0332,0350,0335,0336,0342,0334,0334,0342,0335,0304,0337,0333,0337,",
    "01241:0333,0200,0336,0332,0330,0210,0241,0211,0333,0331,0337,",
    "0242:0220,0321,0336,0343,0333,0336,0350,0335,0342,0334,0334,0342,0335,0337,0304,0332,0337,",
    "01242:0333,0200,0336,0330,0332,0210,0242,0211,0333,0331,0337,",
    "0243:0220,0336,0331,0332,0336,0321,0343,0332,0350,0334,0336,0342,0335,0335,0342,0337,0334,0334,0335,0304,0332,0330,0330,0337,0337,0333,",
    "01243:0333,0200,0336,0330,0332,0210,0243,0211,0333,0331,0337,",
    "0244:0220,0336,0331,0333,0336,0321,0343,0333,0350,0336,0335,0342,0334,0334,0342,0335,0337,0304,0333,0330,0330,0337,0337,0332,",
    "01244:0333,0200,0336,0330,0332,0210,0244,0211,0333,0331,0337,",
    "0245:0210,0332,0332,0362,0335,0203,0203,0203,0203,0334,0203,0363,0332,0332,0331,0211,",
    "01245:0333,0200,0336,0330,0332,0336,0245,0337,0333,0331,0337,",
    "0246:0210,0332,0332,0335,0306,0336,0330,0335,0335,0335,0321,0362,0203,0335,0335,0203,0364,0331,0350,0335,0337,0366,0333,0333,0333,0333,0334,0334,0334,0334,0367,0335,0336,0342,0334,0334,0342,0330,0330,0330,0330,0335,0335,0335,0304,0337,0211,",
    "01246:0333,0200,0336,0330,0332,0336,0246,",
    "0247:0330,0332,0336,0332,0336,0221,0333,0333,0333,0222,0333,0333,0333,0223,0333,0333,0333,0225,0333,0331,0331,0331,0332,0332,0332,0332,0332,0332,0332,0332,0332,0332,0332,0332,0333,0333,0226,0331,0331,0331,0333,0333,0333,0333,0333,0333,0333,0333,0333,0333,0333,0333,0333,0330,0333,0330,0330,0333,0330,0331,0332,0332,0332,0332,0332,0332,0332,0332,0332,0332,0332,0332,0227,0333,0333,0333,0230,0333,0331,0331,0331,0331,0332,0332,0332,0330,0332,0332,0332,0332,0332,0332,0333,0333,0231,0333,0333,0333,0232,0331,0333,0330,0333,0333,0233,0333,0333,0333,0234,0330,0330,0332,0330,0332,0332,0337,0337,",
    "01247:0333,0200,0336,0330,0332,0220,0336,0247,0337,0331,0333,0337,"
  ]
}</json>-->    <circle cx="84" cy = "441" r = "3.30640604529" stroke = "#ff0000" stroke-width = "1" fill = "#ff0000" />
    <circle cx="90" cy = "441" r = "3.30640604529" stroke = "#ff0000" stroke-width = "1" fill = "#ff0000" />
    <circle cx="97" cy = "441" r = "3.30640604529" stroke = "#ff0000" stroke-width = "1" fill = "#ff0000" />
    <circle cx="104" cy = "441" r = "3.30640604529" stroke = "#ff0000" stroke-width = "1" fill = "#ff0000" />
    <circle cx="110" cy = "441" r = "3.30640604529" stroke = "#ff0000" stroke-width = "1" fill = "#ff0000" />
    <circle cx="97" cy = "448" r = "3.30640604529" stroke = "#ff0000" stroke-width = "1" fill = "#ff0000" />
    <circle cx="97" cy = "454" r = "3.30640604529" stroke = "#ff0000" stroke-width = "1" fill = "#ff0000" />
    <circle cx="97" cy = "461" r = "3.30640604529" stroke = "#ff0000" stroke-width = "1" fill = "#ff0000" />
    <circle cx="97" cy = "467" r = "3.30640604529" stroke = "#ff0000" stroke-width = "1" fill = "#ff0000" />
    <circle cx="97" cy = "474" r = "3.30640604529" stroke = "#ff0000" stroke-width = "1" fill = "#ff0000" />
    <circle cx="97" cy = "481" r = "3.30640604529" stroke = "#ff0000" stroke-width = "1" fill = "#ff0000" />
    <circle cx="124" cy = "481" r = "3.30640604529" stroke = "#ff0000" stroke-width = "1" fill = "#ff0000" />
    <circle cx="130" cy = "481" r = "3.30640604529" stroke = "#ff0000" stroke-width = "1" fill = "#ff0000" />
    <circle cx="137" cy = "481" r = "3.30640604529" stroke = "#ff0000" stroke-width = "1" fill = "#ff0000" />
    <circle cx="143" cy = "481" r = "3.30640604529" stroke = "#ff0000" stroke-width = "1" fill = "#ff0000" />
    <circle cx="150" cy = "481" r = "3.30640604529" stroke = "#ff0000" stroke-width = "1" fill = "#ff0000" />
    <circle cx="137" cy = "474" r = "3.30640604529" stroke = "#ff0000" stroke-width = "1" fill = "#ff0000" />
    <circle cx="137" cy = "467" r = "3.30640604529" stroke = "#ff0000" stroke-width = "1" fill = "#ff0000" />
    <circle cx="137" cy = "461" r = "3.30640604529" stroke = "#ff0000" stroke-width = "1" fill = "#ff0000" />
    <circle cx="137" cy = "454" r = "3.30640604529" stroke = "#ff0000" stroke-width = "1" fill = "#ff0000" />
    <circle cx="137" cy = "448" r = "3.30640604529" stroke = "#ff0000" stroke-width = "1" fill = "#ff0000" />
    <circle cx="137" cy = "441" r = "3.30640604529" stroke = "#ff0000" stroke-width = "1" fill = "#ff0000" />
    <circle cx="130" cy = "448" r = "3.30640604529" stroke = "#ff0000" stroke-width = "1" fill = "#ff0000" />
	<path d = "M170 514 L170 408 L64 408 L64 514 L170 514 Z" stroke = "#000000" stroke-width = "5" fill = "none" />    <circle cx="243" cy = "441" r = "3.30640604529" stroke = "#008000" stroke-width = "1" fill = "#008000" />
    <circle cx="249" cy = "441" r = "3.30640604529" stroke = "#008000" stroke-width = "1" fill = "#008000" />
    <circle cx="256" cy = "441" r = "3.30640604529" stroke = "#008000" stroke-width = "1" fill = "#008000" />
    <circle cx="262" cy = "441" r = "3.30640604529" stroke = "#008000" stroke-width = "1" fill = "#008000" />
    <circle cx="269" cy = "441" r = "3.30640604529" stroke = "#008000" stroke-width = "1" fill = "#008000" />
    <circle cx="256" cy = "448" r = "3.30640604529" stroke = "#008000" stroke-width = "1" fill = "#008000" />
    <circle cx="256" cy = "454" r = "3.30640604529" stroke = "#008000" stroke-width = "1" fill = "#008000" />
    <circle cx="256" cy = "461" r = "3.30640604529" stroke = "#008000" stroke-width = "1" fill = "#008000" />
    <circle cx="256" cy = "467" r = "3.30640604529" stroke = "#008000" stroke-width = "1" fill = "#008000" />
    <circle cx="256" cy = "474" r = "3.30640604529" stroke = "#008000" stroke-width = "1" fill = "#008000" />
    <circle cx="256" cy = "481" r = "3.30640604529" stroke = "#008000" stroke-width = "1" fill = "#008000" />
    <circle cx="282" cy = "481" r = "3.30640604529" stroke = "#008000" stroke-width = "1" fill = "#008000" />
    <circle cx="289" cy = "481" r = "3.30640604529" stroke = "#008000" stroke-width = "1" fill = "#008000" />
    <circle cx="295" cy = "481" r = "3.30640604529" stroke = "#008000" stroke-width = "1" fill = "#008000" />
    <circle cx="302" cy = "481" r = "3.30640604529" stroke = "#008000" stroke-width = "1" fill = "#008000" />
    <circle cx="309" cy = "481" r = "3.30640604529" stroke = "#008000" stroke-width = "1" fill = "#008000" />
    <circle cx="302" cy = "481" r = "3.30640604529" stroke = "#008000" stroke-width = "1" fill = "#008000" />
    <circle cx="295" cy = "481" r = "3.30640604529" stroke = "#008000" stroke-width = "1" fill = "#008000" />
    <circle cx="289" cy = "481" r = "3.30640604529" stroke = "#008000" stroke-width = "1" fill = "#008000" />
    <circle cx="289" cy = "474" r = "3.30640604529" stroke = "#008000" stroke-width = "1" fill = "#008000" />
    <circle cx="295" cy = "467" r = "3.30640604529" stroke = "#008000" stroke-width = "1" fill = "#008000" />
    <circle cx="302" cy = "461" r = "3.30640604529" stroke = "#008000" stroke-width = "1" fill = "#008000" />
    <circle cx="309" cy = "454" r = "3.30640604529" stroke = "#008000" stroke-width = "1" fill = "#008000" />
    <circle cx="309" cy = "448" r = "3.30640604529" stroke = "#008000" stroke-width = "1" fill = "#008000" />
    <circle cx="302" cy = "441" r = "3.30640604529" stroke = "#008000" stroke-width = "1" fill = "#008000" />
    <circle cx="295" cy = "441" r = "3.30640604529" stroke = "#008000" stroke-width = "1" fill = "#008000" />
    <circle cx="289" cy = "441" r = "3.30640604529" stroke = "#008000" stroke-width = "1" fill = "#008000" />
    <circle cx="282" cy = "448" r = "3.30640604529" stroke = "#008000" stroke-width = "1" fill = "#008000" />
	<path d = "M329 514 L329 408 L223 408 L223 514 L329 514 Z" stroke = "#000000" stroke-width = "5" fill = "none" />    <circle cx="401" cy = "441" r = "3.30640604529" stroke = "#0000ff" stroke-width = "1" fill = "#0000ff" />
    <circle cx="408" cy = "441" r = "3.30640604529" stroke = "#0000ff" stroke-width = "1" fill = "#0000ff" />
    <circle cx="415" cy = "441" r = "3.30640604529" stroke = "#0000ff" stroke-width = "1" fill = "#0000ff" />
    <circle cx="421" cy = "441" r = "3.30640604529" stroke = "#0000ff" stroke-width = "1" fill = "#0000ff" />
    <circle cx="428" cy = "441" r = "3.30640604529" stroke = "#0000ff" stroke-width = "1" fill = "#0000ff" />
    <circle cx="415" cy = "448" r = "3.30640604529" stroke = "#0000ff" stroke-width = "1" fill = "#0000ff" />
    <circle cx="415" cy = "454" r = "3.30640604529" stroke = "#0000ff" stroke-width = "1" fill = "#0000ff" />
    <circle cx="415" cy = "461" r = "3.30640604529" stroke = "#0000ff" stroke-width = "1" fill = "#0000ff" />
    <circle cx="415" cy = "467" r = "3.30640604529" stroke = "#0000ff" stroke-width = "1" fill = "#0000ff" />
    <circle cx="415" cy = "474" r = "3.30640604529" stroke = "#0000ff" stroke-width = "1" fill = "#0000ff" />
    <circle cx="415" cy = "481" r = "3.30640604529" stroke = "#0000ff" stroke-width = "1" fill = "#0000ff" />
    <circle cx="441" cy = "474" r = "3.30640604529" stroke = "#0000ff" stroke-width = "1" fill = "#0000ff" />
    <circle cx="448" cy = "481" r = "3.30640604529" stroke = "#0000ff" stroke-width = "1" fill = "#0000ff" />
    <circle cx="454" cy = "481" r = "3.30640604529" stroke = "#0000ff" stroke-width = "1" fill = "#0000ff" />
    <circle cx="461" cy = "481" r = "3.30640604529" stroke = "#0000ff" stroke-width = "1" fill = "#0000ff" />
    <circle cx="467" cy = "474" r = "3.30640604529" stroke = "#0000ff" stroke-width = "1" fill = "#0000ff" />
    <circle cx="467" cy = "467" r = "3.30640604529" stroke = "#0000ff" stroke-width = "1" fill = "#0000ff" />
    <circle cx="461" cy = "461" r = "3.30640604529" stroke = "#0000ff" stroke-width = "1" fill = "#0000ff" />
    <circle cx="454" cy = "461" r = "3.30640604529" stroke = "#0000ff" stroke-width = "1" fill = "#0000ff" />
    <circle cx="467" cy = "454" r = "3.30640604529" stroke = "#0000ff" stroke-width = "1" fill = "#0000ff" />
    <circle cx="467" cy = "448" r = "3.30640604529" stroke = "#0000ff" stroke-width = "1" fill = "#0000ff" />
    <circle cx="461" cy = "441" r = "3.30640604529" stroke = "#0000ff" stroke-width = "1" fill = "#0000ff" />
    <circle cx="454" cy = "441" r = "3.30640604529" stroke = "#0000ff" stroke-width = "1" fill = "#0000ff" />
    <circle cx="448" cy = "441" r = "3.30640604529" stroke = "#0000ff" stroke-width = "1" fill = "#0000ff" />
    <circle cx="441" cy = "448" r = "3.30640604529" stroke = "#0000ff" stroke-width = "1" fill = "#0000ff" />
	<path d = "M487 514 L487 408 L381 408 L381 514 L487 514 Z" stroke = "#000000" stroke-width = "5" fill = "none" />    <circle cx="560" cy = "441" r = "3.30640604529" stroke = "#800080" stroke-width = "1" fill = "#800080" />
    <circle cx="567" cy = "441" r = "3.30640604529" stroke = "#800080" stroke-width = "1" fill = "#800080" />
    <circle cx="573" cy = "441" r = "3.30640604529" stroke = "#800080" stroke-width = "1" fill = "#800080" />
    <circle cx="580" cy = "441" r = "3.30640604529" stroke = "#800080" stroke-width = "1" fill = "#800080" />
    <circle cx="586" cy = "441" r = "3.30640604529" stroke = "#800080" stroke-width = "1" fill = "#800080" />
    <circle cx="573" cy = "448" r = "3.30640604529" stroke = "#800080" stroke-width = "1" fill = "#800080" />
    <circle cx="573" cy = "454" r = "3.30640604529" stroke = "#800080" stroke-width = "1" fill = "#800080" />
    <circle cx="573" cy = "461" r = "3.30640604529" stroke = "#800080" stroke-width = "1" fill = "#800080" />
    <circle cx="573" cy = "467" r = "3.30640604529" stroke = "#800080" stroke-width = "1" fill = "#800080" />
    <circle cx="573" cy = "474" r = "3.30640604529" stroke = "#800080" stroke-width = "1" fill = "#800080" />
    <circle cx="573" cy = "481" r = "3.30640604529" stroke = "#800080" stroke-width = "1" fill = "#800080" />
    <circle cx="600" cy = "467" r = "3.30640604529" stroke = "#800080" stroke-width = "1" fill = "#800080" />
    <circle cx="600" cy = "461" r = "3.30640604529" stroke = "#800080" stroke-width = "1" fill = "#800080" />
    <circle cx="606" cy = "454" r = "3.30640604529" stroke = "#800080" stroke-width = "1" fill = "#800080" />
    <circle cx="613" cy = "448" r = "3.30640604529" stroke = "#800080" stroke-width = "1" fill = "#800080" />
    <circle cx="620" cy = "441" r = "3.30640604529" stroke = "#800080" stroke-width = "1" fill = "#800080" />
    <circle cx="620" cy = "448" r = "3.30640604529" stroke = "#800080" stroke-width = "1" fill = "#800080" />
    <circle cx="620" cy = "454" r = "3.30640604529" stroke = "#800080" stroke-width = "1" fill = "#800080" />
    <circle cx="620" cy = "461" r = "3.30640604529" stroke = "#800080" stroke-width = "1" fill = "#800080" />
    <circle cx="620" cy = "467" r = "3.30640604529" stroke = "#800080" stroke-width = "1" fill = "#800080" />
    <circle cx="613" cy = "467" r = "3.30640604529" stroke = "#800080" stroke-width = "1" fill = "#800080" />
    <circle cx="606" cy = "467" r = "3.30640604529" stroke = "#800080" stroke-width = "1" fill = "#800080" />
    <circle cx="626" cy = "467" r = "3.30640604529" stroke = "#800080" stroke-width = "1" fill = "#800080" />
    <circle cx="620" cy = "474" r = "3.30640604529" stroke = "#800080" stroke-width = "1" fill = "#800080" />
    <circle cx="620" cy = "481" r = "3.30640604529" stroke = "#800080" stroke-width = "1" fill = "#800080" />
	<path d = "M646 514 L646 408 L540 408 L540 514 L646 514 Z" stroke = "#000000" stroke-width = "5" fill = "none" />    <line x1="540" y1="461" x2="487" y2="461" style="stroke:#000000;stroke-width:5" />
    <line x1="381" y1="461" x2="329" y2="461" style="stroke:#000000;stroke-width:5" />
    <line x1="223" y1="461" x2="170" y2="461" style="stroke:#000000;stroke-width:5" />
    <line x1="117" y1="408" x2="117" y2="355" style="stroke:#000000;stroke-width:5" />
    <line x1="117" y1="355" x2="117" y2="302" style="stroke:#000000;stroke-width:5" />
	<path d = "M170 302 L170 196 L64 196 L64 302 L170 302 Z" stroke = "#000000" stroke-width = "5" fill = "none" />	<path d = "M117 229 L114 229 L114 210 L110 210 L112 207 L114 205 L117 202 L119 205 L122 207 L124 210 L122 210 L119 210 L119 229 L117 229 Z" stroke = "#ff0000" stroke-width = "1" fill = "#ff0000" />	<path d = "M131 235 L129 233 L143 219 L140 216 L143 216 L147 216 L150 216 L150 219 L150 223 L150 226 L148 225 L147 223 L133 237 L131 235 Z" stroke = "#008000" stroke-width = "1" fill = "#008000" />	<path d = "M137 249 L137 247 L157 247 L157 242 L159 244 L162 247 L164 249 L162 252 L159 254 L157 257 L157 254 L157 252 L137 252 L137 249 Z" stroke = "#0000ff" stroke-width = "1" fill = "#0000ff" />	<path d = "M131 263 L133 261 L147 275 L150 272 L150 275 L150 279 L150 282 L147 282 L143 282 L140 282 L141 281 L143 279 L129 265 L131 263 Z" stroke = "#800080" stroke-width = "1" fill = "#800080" />	<path d = "M117 269 L119 269 L119 289 L124 289 L122 291 L119 294 L117 296 L114 294 L112 291 L110 289 L112 289 L114 289 L114 269 L117 269 Z" stroke = "#ff0000" stroke-width = "1" fill = "#ff0000" />	<path d = "M103 263 L105 265 L91 279 L94 282 L91 282 L87 282 L84 282 L84 279 L84 275 L84 272 L85 274 L87 275 L101 261 L103 263 Z" stroke = "#008000" stroke-width = "1" fill = "#008000" />	<path d = "M97 249 L97 252 L77 252 L77 257 L75 254 L72 252 L70 249 L72 247 L75 244 L77 242 L77 244 L77 247 L97 247 L97 249 Z" stroke = "#0000ff" stroke-width = "1" fill = "#0000ff" />	<path d = "M103 235 L101 237 L87 223 L84 226 L84 223 L84 219 L84 216 L87 216 L91 216 L94 216 L92 218 L91 219 L105 233 L103 235 Z" stroke = "#800080" stroke-width = "1" fill = "#800080" />    <circle cx="110" cy = "238" r = "1.854095285048398" stroke = "#000000" stroke-width = "5" fill = "#000000" />
    <circle cx="113" cy = "238" r = "1.854095285048398" stroke = "#000000" stroke-width = "5" fill = "#000000" />
    <circle cx="117" cy = "238" r = "1.854095285048398" stroke = "#000000" stroke-width = "5" fill = "#000000" />
    <circle cx="121" cy = "238" r = "1.854095285048398" stroke = "#000000" stroke-width = "5" fill = "#000000" />
    <circle cx="124" cy = "238" r = "1.854095285048398" stroke = "#000000" stroke-width = "5" fill = "#000000" />
    <circle cx="117" cy = "242" r = "1.854095285048398" stroke = "#000000" stroke-width = "5" fill = "#000000" />
    <circle cx="117" cy = "245" r = "1.854095285048398" stroke = "#000000" stroke-width = "5" fill = "#000000" />
    <circle cx="117" cy = "249" r = "1.854095285048398" stroke = "#000000" stroke-width = "5" fill = "#000000" />
    <circle cx="117" cy = "253" r = "1.854095285048398" stroke = "#000000" stroke-width = "5" fill = "#000000" />
    <circle cx="117" cy = "257" r = "1.854095285048398" stroke = "#000000" stroke-width = "5" fill = "#000000" />
    <circle cx="117" cy = "260" r = "1.854095285048398" stroke = "#000000" stroke-width = "5" fill = "#000000" />
    <line x1="170" y1="249" x2="223" y2="249" style="stroke:#000000;stroke-width:5" />
<circle cx="329" cy = "249" r = "105.80499344927998" stroke = "#000000" stroke-width = "5" fill = "none" />
    <line x1="329" y1="249" x2="434" y2="249" style="stroke:#000000;stroke-width:5" />
    <line x1="329" y1="249" x2="223" y2="249" style="stroke:#000000;stroke-width:5" />
    <line x1="329" y1="249" x2="329" y2="143" style="stroke:#000000;stroke-width:5" />
    <line x1="329" y1="249" x2="329" y2="355" style="stroke:#000000;stroke-width:5" />
    <line x1="329" y1="196" x2="421" y2="196" style="stroke:#000000;stroke-width:5" />
    <line x1="329" y1="196" x2="236" y2="196" style="stroke:#000000;stroke-width:5" />
    <line x1="329" y1="302" x2="236" y2="302" style="stroke:#000000;stroke-width:5" />
    <line x1="329" y1="302" x2="421" y2="302" style="stroke:#000000;stroke-width:5" />
  <path d="M337.9756372710087 354.15441647981766           A113.60724665453793 113.60724665453793 0 0 1 337.9756372710165 144.2355966216395" fill = "none" stroke = "#000000" stroke-width = "5" />
  <path d="M319.12186600434524 144.23559662163916           A113.60724665453793 113.60724665453793 0 0 1 319.12186600434245 354.154416479817" fill = "none" stroke = "#000000" stroke-width = "5" />
</svg>