<svg width="710" height="710" viewbox = "0 0 710 710"  xmlns="http://www.w3.org/2000/svg">
<!--<json>{
  "glyph": "0350,0350,0350,0335,0335,0335,0335,0335,0335,0335,0335,0335,0335,0335,0335,0335,0335,0335,0335,0335,0335,0335,0335,0335,0335,0335,0335,0335,0335,0335,0335,0335,0335,0335,0335,0335,0335,0335,0335,0335,0335,0335,0335,0335,0335,0335,0335,0335,0304,0224,0330,0330,0330,0330,0330,0224,0331,0331,0331,0331,0331,0333,0333,0333,0333,0333,0224,0330,0330,0330,0330,0330,0224,0331,0331,0331,0331,0331,0331,0331,0331,0331,0331,0224,0332,0332,0332,0332,0332,0224,0330,0330,0330,0330,0330,0332,0332,0332,0332,0332,0224,0331,0331,0331,0331,0331,0224,0330,0330,0330,0330,0330,0330,0330,0330,0330,0330,0224,",
  "x0": 355,
  "y0": 355,
  "unit": 58.19274639710402,
  "width": 710,
  "height": 710,
  "style": {
    "color0": "black",
    "fill0": "black",
    "line0": 1,
    "color1": "black",
    "fill1": "black",
    "line1": 5,
    "color2": "red",
    "fill2": "red",
    "line2": 1,
    "color3": "#FF7900",
    "fill3": "#FF7900",
    "line3": 1,
    "color4": "yellow",
    "fill4": "yellow",
    "line4": 1,
    "color5": "green",
    "fill5": "green",
    "line5": 1,
    "color6": "blue",
    "fill6": "blue",
    "line6": 1,
    "color7": "purple",
    "fill7": "purple",
    "line7": 1
  },
  "shapes": [
    "0220:0370,0336,0336,0331,0332,0336,0331,0332,0337,0337,0337,01124,0371,",
    "0221:0336,0336,0336,0334,0362,0203,0335,0337,0337,0337,0203,0334,0336,0336,0203,0336,0335,0350,0335,0310,0337,0203,0203,0203,0335,0335,0203,0203,0203,0335,0335,0335,0336,0203,0203,0334,0334,0313,0304,0337,0337,0337,0203,0335,0336,0336,0336,0203,0363,0335,0337,0337,0337,",
    "0222:0330,0221,0331,0350,0335,0304,",
    "0223:0222,0222,0222,0222,0222,0222,0222,0222,0211,0211,0211,0220,0210,0210,0210,",
    "0224:0322,0222,0325,0222,0326,0222,0327,0222,0322,0222,0325,0222,0326,0222,0327,0222,0321,0211,0211,0211,0220,0210,0210,0210,0320,",
    "0225:0525,",
    "0226:0526,",
    "0227:0527,",
    "0230:0530,",
    "0231:0531,",
    "0232:0532,",
    "0233:0533,",
    "0234:0331,0534,",
    "0235:0535,",
    "0236:0536,",
    "0237:0220,0336,0331,0332,0336,0321,0342,0335,0342,0335,0342,0335,0342,0335,0330,0330,0333,0333,0337,0337,",
    "01220:0333,0200,0336,0330,0332,0336,0220,0337,0331,0333,0337,",
    "01221:0333,0200,0336,0330,0332,0336,0221,0337,0331,0333,0337,",
    "01222:0333,0200,0336,0330,0332,0336,0222,0222,0222,0350,0335,0304,0337,0335,0335,0331,0333,0337,",
    "01223:0333,0200,0336,0330,0332,0336,0223,0337,0331,0333,0337,",
    "01224:0333,0200,",
    "01225:0333,0200,",
    "01226:0333,0200,",
    "01227:0333,0200,",
    "01230:0333,0200,",
    "01231:0333,0200,",
    "01232:0333,0200,",
    "01233:0333,0200,",
    "01234:0333,0200,0336,0336,0330,0330,0330,0234,0331,0331,0333,0333,0331,0331,0333,0333,0337,0337,0333,0333,0333,",
    "01235:0333,0200,0336,0336,0330,0235,0331,0333,0337,0337,",
    "01236:0333,0200,",
    "01237:0333,0200,",
    "0240:0220,0336,0331,0333,0336,0321,0335,0342,0335,0335,0342,0335,0330,0330,0332,0332,0337,0337,",
    "01240:0333,0200,0336,0330,0332,0210,0240,0211,0333,0331,0337,",
    "0241:0220,0336,0321,0343,0332,0350,0335,0336,0342,0334,0334,0342,0335,0304,0337,0333,0337,",
    "01241:0333,0200,0336,0332,0330,0210,0241,0211,0333,0331,0337,",
    "0242:0220,0321,0336,0343,0333,0336,0350,0335,0342,0334,0334,0342,0335,0337,0304,0332,0337,",
    "01242:0333,0200,0336,0330,0332,0210,0242,0211,0333,0331,0337,",
    "0243:0220,0336,0331,0332,0336,0321,0343,0332,0350,0334,0336,0342,0335,0335,0342,0337,0334,0334,0335,0304,0332,0330,0330,0337,0337,0333,",
    "01243:0333,0200,0336,0330,0332,0210,0243,0211,0333,0331,0337,",
    "0244:0220,0336,0331,0333,0336,0321,0343,0333,0350,0336,0335,0342,0334,0334,0342,0335,0337,0304,0333,0330,0330,0337,0337,0332,",
    "01244:0333,0200,0336,0330,0332,0210,0244,0211,0333,0331,0337,",
    "0245:0210,0332,0332,0362,0335,0203,0203,0203,0203,0334,0203,0363,0332,0332,0331,0211,",
    "01245:0333,0200,0336,0330,0332,0336,0245,0337,0333,0331,0337,",
    "0246:0210,0332,0332,0335,0306,0336,0330,0335,0335,0335,0321,0362,0203,0335,0335,0203,0364,0331,0350,0335,0337,0366,0333,0333,0333,0333,0334,0334,0334,0334,0367,0335,0336,0342,0334,0334,0342,0330,0330,0330,0330,0335,0335,0335,0304,0337,0211,",
    "01246:0333,0200,0336,0330,0332,0336,0246,",
    "0247:0330,0332,0336,0332,0336,0221,0333,0333,0333,0222,0333,0333,0333,0223,0333,0333,0333,0225,0333,0331,0331,0331,0332,0332,0332,0332,0332,0332,0332,0332,0332,0332,0332,0332,0333,0333,0226,0331,0331,0331,0333,0333,0333,0333,0333,0333,0333,0333,0333,0333,0333,0333,0333,0330,0333,0330,0330,0333,0330,0331,0332,0332,0332,0332,0332,0332,0332,0332,0332,0332,0332,0332,0227,0333,0333,0333,0230,0333,0331,0331,0331,0331,0332,0332,0332,0330,0332,0332,0332,0332,0332,0332,0333,0333,0231,0333,0333,0333,0232,0331,0333,0330,0333,0333,0233,0333,0333,0333,0234,0330,0330,0332,0330,0332,0332,0337,0337,",
    "01247:0333,0200,0336,0330,0332,0220,0336,0247,0337,0331,0333,0337,"
  ]
}</json>-->	<path d = "M387 403 L393 399 L426 448 L438 440 L436 450 L434 460 L432 470 L422 468 L412 466 L402 464 L408 460 L414 456 L381 407 L387 403 Z" stroke = "#ff0000" stroke-width = "1" fill = "#ff0000" />	<path d = "M344 412 L351 413 L339 471 L354 473 L345 479 L337 485 L328 491 L322 482 L317 473 L311 465 L318 466 L325 468 L337 411 L344 412 Z" stroke = "#008000" stroke-width = "1" fill = "#008000" />	<path d = "M307 387 L311 393 L262 426 L270 438 L260 436 L250 434 L240 432 L242 422 L244 412 L246 402 L250 408 L254 414 L303 381 L307 387 Z" stroke = "#0000ff" stroke-width = "1" fill = "#0000ff" />	<path d = "M298 344 L297 351 L239 339 L237 354 L231 345 L225 337 L219 328 L228 322 L237 317 L245 311 L244 318 L242 325 L299 337 L298 344 Z" stroke = "#800080" stroke-width = "1" fill = "#800080" />	<path d = "M323 307 L317 311 L284 262 L272 270 L274 260 L276 250 L278 240 L288 242 L298 244 L308 246 L302 250 L296 254 L329 303 L323 307 Z" stroke = "#ff0000" stroke-width = "1" fill = "#ff0000" />	<path d = "M366 298 L359 297 L371 239 L356 237 L365 231 L373 225 L382 219 L388 228 L393 237 L399 245 L392 244 L385 242 L373 299 L366 298 Z" stroke = "#008000" stroke-width = "1" fill = "#008000" />	<path d = "M403 323 L399 317 L448 284 L440 272 L450 274 L460 276 L470 278 L468 288 L466 298 L464 308 L460 302 L456 296 L407 329 L403 323 Z" stroke = "#0000ff" stroke-width = "1" fill = "#0000ff" />	<path d = "M412 366 L413 359 L471 371 L473 356 L479 365 L485 373 L491 382 L482 388 L473 393 L465 399 L466 392 L468 385 L411 373 L412 366 Z" stroke = "#800080" stroke-width = "1" fill = "#800080" />    <circle cx="391" cy = "370" r = "5.447118192007048" stroke = "#000000" stroke-width = "5" fill = "#000000" />
    <circle cx="382" cy = "376" r = "5.447118192007048" stroke = "#000000" stroke-width = "5" fill = "#000000" />
    <circle cx="373" cy = "382" r = "5.447118192007048" stroke = "#000000" stroke-width = "5" fill = "#000000" />
    <circle cx="364" cy = "388" r = "5.447118192007048" stroke = "#000000" stroke-width = "5" fill = "#000000" />
    <circle cx="355" cy = "394" r = "5.447118192007048" stroke = "#000000" stroke-width = "5" fill = "#000000" />
    <circle cx="367" cy = "373" r = "5.447118192007048" stroke = "#000000" stroke-width = "5" fill = "#000000" />
    <circle cx="361" cy = "364" r = "5.447118192007048" stroke = "#000000" stroke-width = "5" fill = "#000000" />
    <circle cx="355" cy = "355" r = "5.447118192007048" stroke = "#000000" stroke-width = "5" fill = "#000000" />
    <circle cx="349" cy = "346" r = "5.447118192007048" stroke = "#000000" stroke-width = "5" fill = "#000000" />
    <circle cx="343" cy = "337" r = "5.447118192007048" stroke = "#000000" stroke-width = "5" fill = "#000000" />
    <circle cx="337" cy = "328" r = "5.447118192007048" stroke = "#000000" stroke-width = "5" fill = "#000000" />
	<path d = "M549 645 L555 641 L587 690 L599 682 L597 692 L595 702 L593 712 L583 710 L573 708 L563 706 L569 702 L575 698 L543 649 L549 645 Z" stroke = "#ff0000" stroke-width = "1" fill = "#ff0000" />	<path d = "M505 654 L512 655 L501 712 L515 715 L507 721 L498 727 L490 732 L484 724 L478 715 L473 707 L480 708 L487 710 L498 653 L505 654 Z" stroke = "#008000" stroke-width = "1" fill = "#008000" />	<path d = "M468 629 L472 635 L424 668 L432 680 L422 678 L412 676 L402 674 L404 664 L406 654 L408 643 L412 649 L416 656 L464 623 L468 629 Z" stroke = "#0000ff" stroke-width = "1" fill = "#0000ff" />	<path d = "M460 586 L458 593 L401 581 L398 596 L393 587 L387 579 L381 570 L390 564 L398 559 L407 553 L405 560 L404 567 L461 578 L460 586 Z" stroke = "#800080" stroke-width = "1" fill = "#800080" />	<path d = "M484 549 L478 553 L446 504 L434 512 L436 502 L438 492 L440 482 L450 484 L460 486 L470 488 L464 492 L458 496 L490 545 L484 549 Z" stroke = "#ff0000" stroke-width = "1" fill = "#ff0000" />	<path d = "M528 540 L521 538 L532 481 L518 479 L527 473 L535 467 L544 461 L549 470 L555 478 L561 487 L554 486 L546 484 L535 541 L528 540 Z" stroke = "#008000" stroke-width = "1" fill = "#008000" />	<path d = "M565 565 L561 559 L609 526 L601 514 L611 516 L621 518 L632 520 L630 530 L628 540 L626 550 L622 544 L617 538 L569 571 L565 565 Z" stroke = "#0000ff" stroke-width = "1" fill = "#0000ff" />	<path d = "M574 608 L575 601 L632 612 L635 598 L641 607 L646 615 L652 624 L644 630 L635 635 L627 641 L628 634 L629 627 L572 615 L574 608 Z" stroke = "#800080" stroke-width = "1" fill = "#800080" />    <circle cx="553" cy = "612" r = "5.447118192007049" stroke = "#000000" stroke-width = "5" fill = "#000000" />
    <circle cx="544" cy = "618" r = "5.447118192007049" stroke = "#000000" stroke-width = "5" fill = "#000000" />
    <circle cx="535" cy = "624" r = "5.447118192007049" stroke = "#000000" stroke-width = "5" fill = "#000000" />
    <circle cx="526" cy = "630" r = "5.447118192007049" stroke = "#000000" stroke-width = "5" fill = "#000000" />
    <circle cx="517" cy = "636" r = "5.447118192007049" stroke = "#000000" stroke-width = "5" fill = "#000000" />
    <circle cx="529" cy = "615" r = "5.447118192007049" stroke = "#000000" stroke-width = "5" fill = "#000000" />
    <circle cx="523" cy = "606" r = "5.447118192007049" stroke = "#000000" stroke-width = "5" fill = "#000000" />
    <circle cx="517" cy = "597" r = "5.447118192007049" stroke = "#000000" stroke-width = "5" fill = "#000000" />
    <circle cx="511" cy = "588" r = "5.447118192007049" stroke = "#000000" stroke-width = "5" fill = "#000000" />
    <circle cx="505" cy = "579" r = "5.447118192007049" stroke = "#000000" stroke-width = "5" fill = "#000000" />
    <circle cx="498" cy = "570" r = "5.447118192007049" stroke = "#000000" stroke-width = "5" fill = "#000000" />
	<path d = "M145 565 L151 561 L184 609 L196 601 L194 611 L192 621 L190 632 L180 630 L170 628 L160 626 L166 622 L172 617 L139 569 L145 565 Z" stroke = "#ff0000" stroke-width = "1" fill = "#ff0000" />	<path d = "M102 574 L109 575 L98 632 L112 635 L103 641 L95 646 L86 652 L80 644 L75 635 L69 627 L76 628 L83 629 L95 572 L102 574 Z" stroke = "#008000" stroke-width = "1" fill = "#008000" />	<path d = "M65 549 L69 555 L20 587 L28 599 L18 597 L8 595 L-2 593 L0 583 L2 573 L4 563 L8 569 L12 575 L61 543 L65 549 Z" stroke = "#0000ff" stroke-width = "1" fill = "#0000ff" />	<path d = "M56 505 L55 512 L-2 501 L-5 515 L-11 507 L-17 498 L-22 490 L-14 484 L-5 478 L3 473 L2 480 L0 487 L57 498 L56 505 Z" stroke = "#800080" stroke-width = "1" fill = "#800080" />	<path d = "M81 468 L75 472 L42 424 L30 432 L32 422 L34 412 L36 402 L46 404 L56 406 L67 408 L61 412 L54 416 L87 464 L81 468 Z" stroke = "#ff0000" stroke-width = "1" fill = "#ff0000" />	<path d = "M124 460 L117 458 L129 401 L114 398 L123 393 L131 387 L140 381 L146 390 L151 398 L157 407 L150 405 L143 404 L132 461 L124 460 Z" stroke = "#008000" stroke-width = "1" fill = "#008000" />	<path d = "M161 484 L157 478 L206 446 L198 434 L208 436 L218 438 L228 440 L226 450 L224 460 L222 470 L218 464 L214 458 L165 490 L161 484 Z" stroke = "#0000ff" stroke-width = "1" fill = "#0000ff" />	<path d = "M170 528 L172 521 L229 532 L231 518 L237 527 L243 535 L249 544 L240 549 L232 555 L223 561 L224 554 L226 546 L169 535 L170 528 Z" stroke = "#800080" stroke-width = "1" fill = "#800080" />    <circle cx="149" cy = "532" r = "5.447118192007049" stroke = "#000000" stroke-width = "5" fill = "#000000" />
    <circle cx="140" cy = "538" r = "5.447118192007049" stroke = "#000000" stroke-width = "5" fill = "#000000" />
    <circle cx="131" cy = "544" r = "5.447118192007049" stroke = "#000000" stroke-width = "5" fill = "#000000" />
    <circle cx="122" cy = "550" r = "5.447118192007049" stroke = "#000000" stroke-width = "5" fill = "#000000" />
    <circle cx="113" cy = "556" r = "5.447118192007049" stroke = "#000000" stroke-width = "5" fill = "#000000" />
    <circle cx="125" cy = "535" r = "5.447118192007049" stroke = "#000000" stroke-width = "5" fill = "#000000" />
    <circle cx="119" cy = "526" r = "5.447118192007049" stroke = "#000000" stroke-width = "5" fill = "#000000" />
    <circle cx="113" cy = "517" r = "5.447118192007049" stroke = "#000000" stroke-width = "5" fill = "#000000" />
    <circle cx="107" cy = "508" r = "5.447118192007049" stroke = "#000000" stroke-width = "5" fill = "#000000" />
    <circle cx="101" cy = "499" r = "5.447118192007049" stroke = "#000000" stroke-width = "5" fill = "#000000" />
    <circle cx="95" cy = "489" r = "5.447118192007049" stroke = "#000000" stroke-width = "5" fill = "#000000" />
	<path d = "M307 807 L313 803 L345 851 L358 843 L356 853 L354 863 L352 873 L341 871 L331 869 L321 867 L327 863 L333 859 L301 811 L307 807 Z" stroke = "#ff0000" stroke-width = "1" fill = "#ff0000" />	<path d = "M263 816 L271 817 L259 874 L273 877 L265 883 L256 888 L248 894 L242 886 L236 877 L231 868 L238 870 L245 871 L256 814 L263 816 Z" stroke = "#008000" stroke-width = "1" fill = "#008000" />	<path d = "M226 791 L230 797 L182 829 L190 841 L180 839 L170 837 L160 835 L162 825 L164 815 L166 805 L170 811 L174 817 L222 785 L226 791 Z" stroke = "#0000ff" stroke-width = "1" fill = "#0000ff" />	<path d = "M218 747 L216 754 L159 743 L156 757 L151 749 L145 740 L139 732 L148 726 L156 720 L165 714 L163 722 L162 729 L219 740 L218 747 Z" stroke = "#800080" stroke-width = "1" fill = "#800080" />	<path d = "M242 710 L236 714 L204 666 L192 674 L194 664 L196 654 L198 644 L208 646 L218 648 L228 650 L222 654 L216 658 L248 706 L242 710 Z" stroke = "#ff0000" stroke-width = "1" fill = "#ff0000" />	<path d = "M286 702 L279 700 L290 643 L276 640 L285 634 L293 629 L302 623 L307 632 L313 640 L319 649 L312 647 L305 646 L293 703 L286 702 Z" stroke = "#008000" stroke-width = "1" fill = "#008000" />	<path d = "M323 726 L319 720 L367 688 L359 676 L369 678 L380 680 L390 682 L388 692 L386 702 L384 712 L380 706 L376 700 L327 732 L323 726 Z" stroke = "#0000ff" stroke-width = "1" fill = "#0000ff" />	<path d = "M332 770 L333 763 L390 774 L393 760 L399 768 L405 777 L410 786 L402 791 L393 797 L385 803 L386 796 L387 788 L330 777 L332 770 Z" stroke = "#800080" stroke-width = "1" fill = "#800080" />    <circle cx="311" cy = "774" r = "5.447118192007049" stroke = "#000000" stroke-width = "5" fill = "#000000" />
    <circle cx="302" cy = "780" r = "5.447118192007049" stroke = "#000000" stroke-width = "5" fill = "#000000" />
    <circle cx="293" cy = "786" r = "5.447118192007049" stroke = "#000000" stroke-width = "5" fill = "#000000" />
    <circle cx="284" cy = "792" r = "5.447118192007049" stroke = "#000000" stroke-width = "5" fill = "#000000" />
    <circle cx="275" cy = "798" r = "5.447118192007049" stroke = "#000000" stroke-width = "5" fill = "#000000" />
    <circle cx="287" cy = "777" r = "5.447118192007049" stroke = "#000000" stroke-width = "5" fill = "#000000" />
    <circle cx="281" cy = "768" r = "5.447118192007049" stroke = "#000000" stroke-width = "5" fill = "#000000" />
    <circle cx="275" cy = "759" r = "5.447118192007049" stroke = "#000000" stroke-width = "5" fill = "#000000" />
    <circle cx="269" cy = "750" r = "5.447118192007049" stroke = "#000000" stroke-width = "5" fill = "#000000" />
    <circle cx="263" cy = "740" r = "5.447118192007049" stroke = "#000000" stroke-width = "5" fill = "#000000" />
    <circle cx="257" cy = "731" r = "5.447118192007049" stroke = "#000000" stroke-width = "5" fill = "#000000" />
	<path d = "M-16 323 L-10 319 L22 367 L34 359 L32 369 L30 380 L28 390 L18 388 L8 386 L-2 384 L4 380 L10 376 L-22 327 L-16 323 Z" stroke = "#ff0000" stroke-width = "1" fill = "#ff0000" />	<path d = "M-60 332 L-53 333 L-64 390 L-50 393 L-58 399 L-67 405 L-76 410 L-81 402 L-87 393 L-93 385 L-86 386 L-78 387 L-67 330 L-60 332 Z" stroke = "#008000" stroke-width = "1" fill = "#008000" />	<path d = "M-97 307 L-93 313 L-141 345 L-133 358 L-143 356 L-153 354 L-163 352 L-161 341 L-159 331 L-157 321 L-153 327 L-149 333 L-101 301 L-97 307 Z" stroke = "#0000ff" stroke-width = "1" fill = "#0000ff" />	<path d = "M-106 263 L-107 271 L-164 259 L-167 273 L-173 265 L-178 256 L-184 248 L-176 242 L-167 236 L-158 231 L-160 238 L-161 245 L-104 256 L-106 263 Z" stroke = "#800080" stroke-width = "1" fill = "#800080" />	<path d = "M-81 226 L-87 230 L-119 182 L-131 190 L-129 180 L-127 170 L-125 160 L-115 162 L-105 164 L-95 166 L-101 170 L-107 174 L-75 222 L-81 226 Z" stroke = "#ff0000" stroke-width = "1" fill = "#ff0000" />	<path d = "M-37 218 L-44 216 L-33 159 L-47 156 L-39 151 L-30 145 L-22 139 L-16 148 L-10 156 L-4 165 L-12 163 L-19 162 L-30 219 L-37 218 Z" stroke = "#008000" stroke-width = "1" fill = "#008000" />	<path d = "M0 242 L-4 236 L44 204 L36 192 L46 194 L56 196 L66 198 L64 208 L62 218 L60 228 L56 222 L52 216 L4 248 L0 242 Z" stroke = "#0000ff" stroke-width = "1" fill = "#0000ff" />	<path d = "M8 286 L10 279 L67 290 L70 276 L76 285 L81 293 L87 302 L78 307 L70 313 L61 319 L63 312 L64 305 L7 293 L8 286 Z" stroke = "#800080" stroke-width = "1" fill = "#800080" />    <circle cx="-12" cy = "290" r = "5.447118192007049" stroke = "#000000" stroke-width = "5" fill = "#000000" />
    <circle cx="-21" cy = "296" r = "5.447118192007049" stroke = "#000000" stroke-width = "5" fill = "#000000" />
    <circle cx="-30" cy = "302" r = "5.447118192007049" stroke = "#000000" stroke-width = "5" fill = "#000000" />
    <circle cx="-39" cy = "308" r = "5.447118192007049" stroke = "#000000" stroke-width = "5" fill = "#000000" />
    <circle cx="-49" cy = "314" r = "5.447118192007049" stroke = "#000000" stroke-width = "5" fill = "#000000" />
    <circle cx="-36" cy = "293" r = "5.447118192007049" stroke = "#000000" stroke-width = "5" fill = "#000000" />
    <circle cx="-43" cy = "284" r = "5.447118192007049" stroke = "#000000" stroke-width = "5" fill = "#000000" />
    <circle cx="-49" cy = "275" r = "5.447118192007049" stroke = "#000000" stroke-width = "5" fill = "#000000" />
    <circle cx="-55" cy = "266" r = "5.447118192007049" stroke = "#000000" stroke-width = "5" fill = "#000000" />
    <circle cx="-61" cy = "257" r = "5.447118192007049" stroke = "#000000" stroke-width = "5" fill = "#000000" />
    <circle cx="-67" cy = "248" r = "5.447118192007049" stroke = "#000000" stroke-width = "5" fill = "#000000" />
	<path d = "M226 161 L232 157 L264 206 L276 198 L274 208 L272 218 L270 228 L260 226 L250 224 L240 222 L246 218 L252 214 L220 165 L226 161 Z" stroke = "#ff0000" stroke-width = "1" fill = "#ff0000" />	<path d = "M182 170 L189 172 L178 229 L192 231 L183 237 L175 243 L166 249 L161 240 L155 232 L149 223 L156 224 L164 226 L175 169 L182 170 Z" stroke = "#008000" stroke-width = "1" fill = "#008000" />	<path d = "M145 145 L149 151 L101 184 L109 196 L99 194 L89 192 L78 190 L80 180 L82 170 L84 160 L88 166 L93 172 L141 139 L145 145 Z" stroke = "#0000ff" stroke-width = "1" fill = "#0000ff" />	<path d = "M136 102 L135 109 L78 98 L75 112 L69 103 L64 95 L58 86 L66 80 L75 75 L83 69 L82 76 L81 83 L138 95 L136 102 Z" stroke = "#800080" stroke-width = "1" fill = "#800080" />	<path d = "M161 65 L155 69 L123 20 L111 28 L113 18 L115 8 L117 -2 L127 0 L137 2 L147 4 L141 8 L135 12 L167 61 L161 65 Z" stroke = "#ff0000" stroke-width = "1" fill = "#ff0000" />	<path d = "M205 56 L198 55 L209 -2 L195 -5 L203 -11 L212 -17 L220 -22 L226 -14 L232 -5 L237 3 L230 2 L223 0 L212 57 L205 56 Z" stroke = "#008000" stroke-width = "1" fill = "#008000" />	<path d = "M242 81 L238 75 L286 42 L278 30 L288 32 L298 34 L308 36 L306 46 L304 56 L302 67 L298 61 L294 54 L246 87 L242 81 Z" stroke = "#0000ff" stroke-width = "1" fill = "#0000ff" />	<path d = "M250 124 L252 117 L309 129 L312 114 L317 123 L323 131 L329 140 L320 146 L312 151 L303 157 L305 150 L306 143 L249 132 L250 124 Z" stroke = "#800080" stroke-width = "1" fill = "#800080" />    <circle cx="230" cy = "128" r = "5.447118192007049" stroke = "#000000" stroke-width = "5" fill = "#000000" />
    <circle cx="221" cy = "134" r = "5.447118192007049" stroke = "#000000" stroke-width = "5" fill = "#000000" />
    <circle cx="212" cy = "140" r = "5.447118192007049" stroke = "#000000" stroke-width = "5" fill = "#000000" />
    <circle cx="202" cy = "146" r = "5.447118192007049" stroke = "#000000" stroke-width = "5" fill = "#000000" />
    <circle cx="193" cy = "152" r = "5.447118192007049" stroke = "#000000" stroke-width = "5" fill = "#000000" />
    <circle cx="205" cy = "131" r = "5.447118192007049" stroke = "#000000" stroke-width = "5" fill = "#000000" />
    <circle cx="199" cy = "122" r = "5.447118192007049" stroke = "#000000" stroke-width = "5" fill = "#000000" />
    <circle cx="193" cy = "113" r = "5.447118192007049" stroke = "#000000" stroke-width = "5" fill = "#000000" />
    <circle cx="187" cy = "104" r = "5.447118192007049" stroke = "#000000" stroke-width = "5" fill = "#000000" />
    <circle cx="181" cy = "95" r = "5.447118192007049" stroke = "#000000" stroke-width = "5" fill = "#000000" />
    <circle cx="175" cy = "86" r = "5.447118192007049" stroke = "#000000" stroke-width = "5" fill = "#000000" />
	<path d = "M629 242 L635 238 L668 286 L680 278 L678 288 L676 298 L674 308 L664 306 L654 304 L643 302 L649 298 L656 294 L623 246 L629 242 Z" stroke = "#ff0000" stroke-width = "1" fill = "#ff0000" />	<path d = "M586 250 L593 252 L581 309 L596 312 L587 317 L579 323 L570 329 L564 320 L559 312 L553 303 L560 305 L567 306 L578 249 L586 250 Z" stroke = "#008000" stroke-width = "1" fill = "#008000" />	<path d = "M549 226 L553 232 L504 264 L512 276 L502 274 L492 272 L482 270 L484 260 L486 250 L488 240 L492 246 L496 252 L545 220 L549 226 Z" stroke = "#0000ff" stroke-width = "1" fill = "#0000ff" />	<path d = "M540 182 L538 189 L481 178 L479 192 L473 183 L467 175 L461 166 L470 161 L478 155 L487 149 L486 156 L484 164 L541 175 L540 182 Z" stroke = "#800080" stroke-width = "1" fill = "#800080" />	<path d = "M565 145 L559 149 L526 101 L514 109 L516 99 L518 89 L520 78 L530 80 L540 82 L550 84 L544 88 L538 93 L571 141 L565 145 Z" stroke = "#ff0000" stroke-width = "1" fill = "#ff0000" />	<path d = "M608 136 L601 135 L612 78 L598 75 L607 69 L615 64 L624 58 L630 66 L635 75 L641 83 L634 82 L627 81 L615 138 L608 136 Z" stroke = "#008000" stroke-width = "1" fill = "#008000" />	<path d = "M645 161 L641 155 L690 123 L682 111 L692 113 L702 115 L712 117 L710 127 L708 137 L706 147 L702 141 L698 135 L649 167 L645 161 Z" stroke = "#0000ff" stroke-width = "1" fill = "#0000ff" />	<path d = "M654 205 L655 198 L712 209 L715 195 L721 203 L727 212 L732 220 L724 226 L715 232 L707 237 L708 230 L710 223 L653 212 L654 205 Z" stroke = "#800080" stroke-width = "1" fill = "#800080" />    <circle cx="633" cy = "208" r = "5.447118192007049" stroke = "#000000" stroke-width = "5" fill = "#000000" />
    <circle cx="624" cy = "214" r = "5.447118192007049" stroke = "#000000" stroke-width = "5" fill = "#000000" />
    <circle cx="615" cy = "221" r = "5.447118192007049" stroke = "#000000" stroke-width = "5" fill = "#000000" />
    <circle cx="606" cy = "227" r = "5.447118192007049" stroke = "#000000" stroke-width = "5" fill = "#000000" />
    <circle cx="597" cy = "233" r = "5.447118192007049" stroke = "#000000" stroke-width = "5" fill = "#000000" />
    <circle cx="609" cy = "211" r = "5.447118192007049" stroke = "#000000" stroke-width = "5" fill = "#000000" />
    <circle cx="603" cy = "202" r = "5.447118192007049" stroke = "#000000" stroke-width = "5" fill = "#000000" />
    <circle cx="597" cy = "193" r = "5.447118192007049" stroke = "#000000" stroke-width = "5" fill = "#000000" />
    <circle cx="591" cy = "184" r = "5.447118192007049" stroke = "#000000" stroke-width = "5" fill = "#000000" />
    <circle cx="585" cy = "175" r = "5.447118192007049" stroke = "#000000" stroke-width = "5" fill = "#000000" />
    <circle cx="579" cy = "166" r = "5.447118192007049" stroke = "#000000" stroke-width = "5" fill = "#000000" />
	<path d = "M468 0 L474 -4 L506 44 L518 36 L516 46 L514 56 L512 66 L502 64 L492 62 L482 60 L488 56 L494 52 L462 4 L468 0 Z" stroke = "#ff0000" stroke-width = "1" fill = "#ff0000" />	<path d = "M424 8 L431 10 L420 67 L434 70 L425 76 L417 81 L408 87 L403 78 L397 70 L391 61 L398 63 L405 64 L417 7 L424 8 Z" stroke = "#008000" stroke-width = "1" fill = "#008000" />	<path d = "M387 -16 L391 -10 L343 22 L351 34 L341 32 L330 30 L320 28 L322 18 L324 8 L326 -2 L330 4 L334 10 L383 -22 L387 -16 Z" stroke = "#0000ff" stroke-width = "1" fill = "#0000ff" />	<path d = "M378 -60 L377 -53 L320 -64 L317 -50 L311 -58 L305 -67 L300 -76 L308 -81 L317 -87 L325 -93 L324 -86 L323 -78 L380 -67 L378 -60 Z" stroke = "#800080" stroke-width = "1" fill = "#800080" />	<path d = "M403 -97 L397 -93 L365 -141 L352 -133 L354 -143 L356 -153 L358 -163 L369 -161 L379 -159 L389 -157 L383 -153 L377 -149 L409 -101 L403 -97 Z" stroke = "#ff0000" stroke-width = "1" fill = "#ff0000" />	<path d = "M447 -106 L439 -107 L451 -164 L437 -167 L445 -173 L454 -178 L462 -184 L468 -176 L474 -167 L479 -158 L472 -160 L465 -161 L454 -104 L447 -106 Z" stroke = "#008000" stroke-width = "1" fill = "#008000" />	<path d = "M484 -81 L480 -87 L528 -119 L520 -131 L530 -129 L540 -127 L550 -125 L548 -115 L546 -105 L544 -95 L540 -101 L536 -107 L488 -75 L484 -81 Z" stroke = "#0000ff" stroke-width = "1" fill = "#0000ff" />	<path d = "M492 -37 L494 -44 L551 -33 L554 -47 L559 -39 L565 -30 L571 -22 L562 -16 L554 -10 L545 -4 L547 -12 L548 -19 L491 -30 L492 -37 Z" stroke = "#800080" stroke-width = "1" fill = "#800080" />    <circle cx="472" cy = "-34" r = "5.447118192007049" stroke = "#000000" stroke-width = "5" fill = "#000000" />
    <circle cx="462" cy = "-27" r = "5.447118192007049" stroke = "#000000" stroke-width = "5" fill = "#000000" />
    <circle cx="453" cy = "-21" r = "5.447118192007049" stroke = "#000000" stroke-width = "5" fill = "#000000" />
    <circle cx="444" cy = "-15" r = "5.447118192007049" stroke = "#000000" stroke-width = "5" fill = "#000000" />
    <circle cx="435" cy = "-9" r = "5.447118192007049" stroke = "#000000" stroke-width = "5" fill = "#000000" />
    <circle cx="447" cy = "-30" r = "5.447118192007049" stroke = "#000000" stroke-width = "5" fill = "#000000" />
    <circle cx="441" cy = "-40" r = "5.447118192007049" stroke = "#000000" stroke-width = "5" fill = "#000000" />
    <circle cx="435" cy = "-49" r = "5.447118192007049" stroke = "#000000" stroke-width = "5" fill = "#000000" />
    <circle cx="429" cy = "-58" r = "5.447118192007049" stroke = "#000000" stroke-width = "5" fill = "#000000" />
    <circle cx="423" cy = "-67" r = "5.447118192007049" stroke = "#000000" stroke-width = "5" fill = "#000000" />
    <circle cx="417" cy = "-76" r = "5.447118192007049" stroke = "#000000" stroke-width = "5" fill = "#000000" />
	<path d = "M791 484 L797 480 L829 528 L841 520 L839 530 L837 540 L835 550 L825 548 L815 546 L805 544 L811 540 L817 536 L785 488 L791 484 Z" stroke = "#ff0000" stroke-width = "1" fill = "#ff0000" />	<path d = "M747 492 L754 494 L743 551 L757 554 L749 559 L740 565 L732 571 L726 562 L720 554 L714 545 L722 547 L729 548 L740 491 L747 492 Z" stroke = "#008000" stroke-width = "1" fill = "#008000" />	<path d = "M710 468 L714 474 L666 506 L674 518 L664 516 L654 514 L644 512 L646 502 L648 492 L650 482 L654 488 L658 494 L706 462 L710 468 Z" stroke = "#0000ff" stroke-width = "1" fill = "#0000ff" />	<path d = "M702 424 L700 431 L643 420 L640 434 L634 425 L629 417 L623 408 L632 403 L640 397 L649 391 L647 398 L646 405 L703 417 L702 424 Z" stroke = "#800080" stroke-width = "1" fill = "#800080" />	<path d = "M726 387 L720 391 L688 343 L676 351 L678 341 L680 330 L682 320 L692 322 L702 324 L712 326 L706 330 L700 334 L732 383 L726 387 Z" stroke = "#ff0000" stroke-width = "1" fill = "#ff0000" />	<path d = "M770 378 L763 377 L774 320 L760 317 L768 311 L777 305 L786 300 L791 308 L797 317 L803 325 L796 324 L788 323 L777 380 L770 378 Z" stroke = "#008000" stroke-width = "1" fill = "#008000" />	<path d = "M807 403 L803 397 L851 365 L843 352 L853 354 L863 356 L873 358 L871 369 L869 379 L867 389 L863 383 L859 377 L811 409 L807 403 Z" stroke = "#0000ff" stroke-width = "1" fill = "#0000ff" />	<path d = "M816 447 L817 439 L874 451 L877 437 L883 445 L888 454 L894 462 L886 468 L877 474 L868 479 L870 472 L871 465 L814 454 L816 447 Z" stroke = "#800080" stroke-width = "1" fill = "#800080" />    <circle cx="795" cy = "450" r = "5.447118192007049" stroke = "#000000" stroke-width = "5" fill = "#000000" />
    <circle cx="786" cy = "456" r = "5.447118192007049" stroke = "#000000" stroke-width = "5" fill = "#000000" />
    <circle cx="777" cy = "462" r = "5.447118192007049" stroke = "#000000" stroke-width = "5" fill = "#000000" />
    <circle cx="768" cy = "469" r = "5.447118192007049" stroke = "#000000" stroke-width = "5" fill = "#000000" />
    <circle cx="759" cy = "475" r = "5.447118192007049" stroke = "#000000" stroke-width = "5" fill = "#000000" />
    <circle cx="771" cy = "453" r = "5.447118192007049" stroke = "#000000" stroke-width = "5" fill = "#000000" />
    <circle cx="765" cy = "444" r = "5.447118192007049" stroke = "#000000" stroke-width = "5" fill = "#000000" />
    <circle cx="759" cy = "435" r = "5.447118192007049" stroke = "#000000" stroke-width = "5" fill = "#000000" />
    <circle cx="753" cy = "426" r = "5.447118192007049" stroke = "#000000" stroke-width = "5" fill = "#000000" />
    <circle cx="746" cy = "417" r = "5.447118192007049" stroke = "#000000" stroke-width = "5" fill = "#000000" />
    <circle cx="740" cy = "408" r = "5.447118192007049" stroke = "#000000" stroke-width = "5" fill = "#000000" />
</svg>