<svg width="710" height="710" viewbox = "0 0 710 710"  xmlns="http://www.w3.org/2000/svg">
<!--<json>{
  "glyph": "0350,0350,0350,0335,0335,0335,0335,0335,0335,0335,0335,0335,0335,0335,0335,0335,0335,0335,0335,0335,0335,0335,0335,0335,0335,0335,0335,0335,0335,0335,0335,0335,0335,0335,0335,0335,0335,0335,0335,0335,0335,0335,0335,0335,0335,0335,0335,0335,0304,0224,0330,0330,0330,0330,0330,0224,0331,0331,0331,0331,0331,0333,0333,0333,0333,0333,0224,0330,0330,0330,0330,0330,0224,0331,0331,0331,0331,0331,0331,0331,0331,0331,0331,0224,0332,0332,0332,0332,0332,0224,0330,0330,0330,0330,0330,0332,0332,0332,0332,0332,0224,0331,0331,0331,0331,0331,0224,0330,0330,0330,0330,0330,0330,0330,0330,0330,0330,0224,",
  "x0": 355,
  "y0": 355,
  "unit": 36.1331170853357,
  "width": 710,
  "height": 710,
  "style": {
    "color0": "black",
    "fill0": "black",
    "line0": 1,
    "color1": "black",
    "fill1": "black",
    "line1": 5,
    "color2": "red",
    "fill2": "red",
    "line2": 1,
    "color3": "#FF7900",
    "fill3": "#FF7900",
    "line3": 1,
    "color4": "yellow",
    "fill4": "yellow",
    "line4": 1,
    "color5": "green",
    "fill5": "green",
    "line5": 1,
    "color6": "blue",
    "fill6": "blue",
    "line6": 1,
    "color7": "purple",
    "fill7": "purple",
    "line7": 1
  },
  "shapes": [
    "0220:0370,0336,0336,0331,0332,0336,0331,0332,0337,0337,0337,01124,0371,",
    "0221:0336,0336,0336,0334,0362,0203,0335,0337,0337,0337,0203,0334,0336,0336,0203,0336,0335,0350,0335,0310,0337,0203,0203,0203,0335,0335,0203,0203,0203,0335,0335,0335,0336,0203,0203,0334,0334,0313,0304,0337,0337,0337,0203,0335,0336,0336,0336,0203,0363,0335,0337,0337,0337,",
    "0222:0330,0221,0331,0350,0335,0304,",
    "0223:0222,0222,0222,0222,0222,0222,0222,0222,0211,0211,0211,0220,0210,0210,0210,",
    "0224:0322,0222,0325,0222,0326,0222,0327,0222,0322,0222,0325,0222,0326,0222,0327,0222,0321,0211,0211,0211,0220,0210,0210,0210,0320,",
    "0225:0525,",
    "0226:0526,",
    "0227:0527,",
    "0230:0530,",
    "0231:0531,",
    "0232:0532,",
    "0233:0533,",
    "0234:0331,0534,",
    "0235:0535,",
    "0236:0536,",
    "0237:0220,0336,0331,0332,0336,0321,0342,0335,0342,0335,0342,0335,0342,0335,0330,0330,0333,0333,0337,0337,",
    "01220:0333,0200,0336,0330,0332,0336,0220,0337,0331,0333,0337,",
    "01221:0333,0200,0336,0330,0332,0336,0221,0337,0331,0333,0337,",
    "01222:0333,0200,0336,0330,0332,0336,0222,0222,0222,0350,0335,0304,0337,0335,0335,0331,0333,0337,",
    "01223:0333,0200,0336,0330,0332,0336,0223,0337,0331,0333,0337,",
    "01224:0333,0200,",
    "01225:0333,0200,",
    "01226:0333,0200,",
    "01227:0333,0200,",
    "01230:0333,0200,",
    "01231:0333,0200,",
    "01232:0333,0200,",
    "01233:0333,0200,",
    "01234:0333,0200,0336,0336,0330,0330,0330,0234,0331,0331,0333,0333,0331,0331,0333,0333,0337,0337,0333,0333,0333,",
    "01235:0333,0200,0336,0336,0330,0235,0331,0333,0337,0337,",
    "01236:0333,0200,",
    "01237:0333,0200,",
    "0240:0220,0336,0331,0333,0336,0321,0335,0342,0335,0335,0342,0335,0330,0330,0332,0332,0337,0337,",
    "01240:0333,0200,0336,0330,0332,0210,0240,0211,0333,0331,0337,",
    "0241:0220,0336,0321,0343,0332,0350,0335,0336,0342,0334,0334,0342,0335,0304,0337,0333,0337,",
    "01241:0333,0200,0336,0332,0330,0210,0241,0211,0333,0331,0337,",
    "0242:0220,0321,0336,0343,0333,0336,0350,0335,0342,0334,0334,0342,0335,0337,0304,0332,0337,",
    "01242:0333,0200,0336,0330,0332,0210,0242,0211,0333,0331,0337,",
    "0243:0220,0336,0331,0332,0336,0321,0343,0332,0350,0334,0336,0342,0335,0335,0342,0337,0334,0334,0335,0304,0332,0330,0330,0337,0337,0333,",
    "01243:0333,0200,0336,0330,0332,0210,0243,0211,0333,0331,0337,",
    "0244:0220,0336,0331,0333,0336,0321,0343,0333,0350,0336,0335,0342,0334,0334,0342,0335,0337,0304,0333,0330,0330,0337,0337,0332,",
    "01244:0333,0200,0336,0330,0332,0210,0244,0211,0333,0331,0337,",
    "0245:0210,0332,0332,0362,0335,0203,0203,0203,0203,0334,0203,0363,0332,0332,0331,0211,",
    "01245:0333,0200,0336,0330,0332,0336,0245,0337,0333,0331,0337,",
    "0246:0210,0332,0332,0335,0306,0336,0330,0335,0335,0335,0321,0362,0203,0335,0335,0203,0364,0331,0350,0335,0337,0366,0333,0333,0333,0333,0334,0334,0334,0334,0367,0335,0336,0342,0334,0334,0342,0330,0330,0330,0330,0335,0335,0335,0304,0337,0211,",
    "01246:0333,0200,0336,0330,0332,0336,0246,",
    "0247:0330,0332,0336,0332,0336,0221,0333,0333,0333,0222,0333,0333,0333,0223,0333,0333,0333,0225,0333,0331,0331,0331,0332,0332,0332,0332,0332,0332,0332,0332,0332,0332,0332,0332,0333,0333,0226,0331,0331,0331,0333,0333,0333,0333,0333,0333,0333,0333,0333,0333,0333,0333,0333,0330,0333,0330,0330,0333,0330,0331,0332,0332,0332,0332,0332,0332,0332,0332,0332,0332,0332,0332,0227,0333,0333,0333,0230,0333,0331,0331,0331,0331,0332,0332,0332,0330,0332,0332,0332,0332,0332,0332,0333,0333,0231,0333,0333,0333,0232,0331,0333,0330,0333,0333,0233,0333,0333,0333,0234,0330,0330,0332,0330,0332,0332,0337,0337,",
    "01247:0333,0200,0336,0330,0332,0220,0336,0247,0337,0331,0333,0337,"
  ]
}</json>-->	<path d = "M375 385 L379 383 L399 413 L406 408 L405 414 L404 420 L403 426 L396 425 L390 424 L384 423 L388 420 L391 418 L371 388 L375 385 Z" stroke = "#ff0000" stroke-width = "1" fill = "#ff0000" />	<path d = "M348 390 L352 391 L345 427 L354 429 L349 432 L344 436 L338 439 L335 434 L331 429 L328 423 L332 424 L336 425 L344 390 L348 390 Z" stroke = "#008000" stroke-width = "1" fill = "#008000" />	<path d = "M325 375 L327 379 L297 399 L302 406 L296 405 L290 404 L284 403 L285 396 L286 390 L287 384 L290 388 L292 391 L322 371 L325 375 Z" stroke = "#0000ff" stroke-width = "1" fill = "#0000ff" />	<path d = "M320 348 L319 352 L283 345 L281 354 L278 349 L274 344 L271 338 L276 335 L281 331 L287 328 L286 332 L285 336 L320 344 L320 348 Z" stroke = "#800080" stroke-width = "1" fill = "#800080" />	<path d = "M335 325 L331 327 L311 297 L304 302 L305 296 L306 290 L307 284 L314 285 L320 286 L326 287 L322 290 L319 292 L339 322 L335 325 Z" stroke = "#ff0000" stroke-width = "1" fill = "#ff0000" />	<path d = "M362 320 L358 319 L365 283 L356 281 L361 278 L366 274 L372 271 L375 276 L379 281 L382 287 L378 286 L374 285 L366 320 L362 320 Z" stroke = "#008000" stroke-width = "1" fill = "#008000" />	<path d = "M385 335 L383 331 L413 311 L408 304 L414 305 L420 306 L426 307 L425 314 L424 320 L423 326 L420 322 L418 319 L388 339 L385 335 Z" stroke = "#0000ff" stroke-width = "1" fill = "#0000ff" />	<path d = "M390 362 L391 358 L427 365 L429 356 L432 361 L436 366 L439 372 L434 375 L429 379 L423 382 L424 378 L425 374 L390 366 L390 362 Z" stroke = "#800080" stroke-width = "1" fill = "#800080" />    <circle cx="378" cy = "364" r = "3.382231834640608" stroke = "#000000" stroke-width = "5" fill = "#000000" />
    <circle cx="372" cy = "368" r = "3.382231834640608" stroke = "#000000" stroke-width = "5" fill = "#000000" />
    <circle cx="366" cy = "372" r = "3.382231834640608" stroke = "#000000" stroke-width = "5" fill = "#000000" />
    <circle cx="361" cy = "376" r = "3.382231834640608" stroke = "#000000" stroke-width = "5" fill = "#000000" />
    <circle cx="355" cy = "379" r = "3.382231834640608" stroke = "#000000" stroke-width = "5" fill = "#000000" />
    <circle cx="363" cy = "366" r = "3.382231834640608" stroke = "#000000" stroke-width = "5" fill = "#000000" />
    <circle cx="359" cy = "361" r = "3.382231834640608" stroke = "#000000" stroke-width = "5" fill = "#000000" />
    <circle cx="355" cy = "355" r = "3.382231834640608" stroke = "#000000" stroke-width = "5" fill = "#000000" />
    <circle cx="351" cy = "349" r = "3.382231834640608" stroke = "#000000" stroke-width = "5" fill = "#000000" />
    <circle cx="347" cy = "344" r = "3.382231834640608" stroke = "#000000" stroke-width = "5" fill = "#000000" />
    <circle cx="344" cy = "338" r = "3.382231834640608" stroke = "#000000" stroke-width = "5" fill = "#000000" />
	<path d = "M475 535 L479 533 L499 563 L507 558 L506 564 L504 570 L503 577 L497 575 L491 574 L484 573 L488 570 L492 568 L472 538 L475 535 Z" stroke = "#ff0000" stroke-width = "1" fill = "#ff0000" />	<path d = "M448 541 L453 542 L446 577 L455 579 L449 582 L444 586 L439 589 L435 584 L432 579 L428 573 L432 574 L437 575 L444 540 L448 541 Z" stroke = "#008000" stroke-width = "1" fill = "#008000" />	<path d = "M425 525 L428 529 L398 549 L403 557 L397 555 L390 554 L384 553 L385 547 L387 540 L388 534 L390 538 L393 542 L423 522 L425 525 Z" stroke = "#0000ff" stroke-width = "1" fill = "#0000ff" />	<path d = "M420 498 L419 503 L384 496 L382 504 L378 499 L375 494 L371 488 L377 485 L382 481 L387 478 L386 482 L385 487 L421 494 L420 498 Z" stroke = "#800080" stroke-width = "1" fill = "#800080" />	<path d = "M435 475 L432 478 L411 448 L404 453 L405 446 L406 440 L408 434 L414 435 L420 436 L426 438 L423 440 L419 443 L439 473 L435 475 Z" stroke = "#ff0000" stroke-width = "1" fill = "#ff0000" />	<path d = "M462 470 L458 469 L465 433 L456 432 L461 428 L467 425 L472 421 L476 426 L479 432 L483 437 L478 436 L474 435 L467 471 L462 470 Z" stroke = "#008000" stroke-width = "1" fill = "#008000" />	<path d = "M485 485 L483 481 L513 461 L508 454 L514 455 L520 456 L527 458 L525 464 L524 470 L523 476 L520 473 L518 469 L488 489 L485 485 Z" stroke = "#0000ff" stroke-width = "1" fill = "#0000ff" />	<path d = "M491 512 L492 508 L527 515 L529 506 L532 511 L536 517 L540 522 L534 526 L529 529 L524 533 L524 528 L525 524 L490 517 L491 512 Z" stroke = "#800080" stroke-width = "1" fill = "#800080" />    <circle cx="478" cy = "515" r = "3.382231834640608" stroke = "#000000" stroke-width = "5" fill = "#000000" />
    <circle cx="472" cy = "518" r = "3.382231834640608" stroke = "#000000" stroke-width = "5" fill = "#000000" />
    <circle cx="467" cy = "522" r = "3.382231834640608" stroke = "#000000" stroke-width = "5" fill = "#000000" />
    <circle cx="461" cy = "526" r = "3.382231834640608" stroke = "#000000" stroke-width = "5" fill = "#000000" />
    <circle cx="455" cy = "530" r = "3.382231834640608" stroke = "#000000" stroke-width = "5" fill = "#000000" />
    <circle cx="463" cy = "516" r = "3.382231834640608" stroke = "#000000" stroke-width = "5" fill = "#000000" />
    <circle cx="459" cy = "511" r = "3.382231834640608" stroke = "#000000" stroke-width = "5" fill = "#000000" />
    <circle cx="455" cy = "505" r = "3.382231834640608" stroke = "#000000" stroke-width = "5" fill = "#000000" />
    <circle cx="452" cy = "500" r = "3.382231834640608" stroke = "#000000" stroke-width = "5" fill = "#000000" />
    <circle cx="448" cy = "494" r = "3.382231834640608" stroke = "#000000" stroke-width = "5" fill = "#000000" />
    <circle cx="444" cy = "488" r = "3.382231834640608" stroke = "#000000" stroke-width = "5" fill = "#000000" />
	<path d = "M225 485 L229 483 L249 513 L256 508 L255 514 L254 520 L252 527 L246 525 L240 524 L234 523 L237 520 L241 518 L221 488 L225 485 Z" stroke = "#ff0000" stroke-width = "1" fill = "#ff0000" />	<path d = "M198 491 L202 492 L195 527 L204 529 L199 532 L193 536 L188 540 L184 534 L181 529 L177 524 L182 524 L186 525 L193 490 L198 491 Z" stroke = "#008000" stroke-width = "1" fill = "#008000" />	<path d = "M175 475 L177 479 L147 499 L152 507 L146 506 L140 504 L133 503 L135 497 L136 491 L137 484 L140 488 L142 492 L172 472 L175 475 Z" stroke = "#0000ff" stroke-width = "1" fill = "#0000ff" />	<path d = "M169 448 L168 453 L133 446 L131 455 L128 449 L124 444 L121 439 L126 435 L131 432 L137 428 L136 432 L135 437 L170 444 L169 448 Z" stroke = "#800080" stroke-width = "1" fill = "#800080" />	<path d = "M185 425 L181 428 L161 398 L153 403 L155 397 L156 390 L157 384 L163 385 L170 387 L176 388 L172 390 L168 393 L188 423 L185 425 Z" stroke = "#ff0000" stroke-width = "1" fill = "#ff0000" />	<path d = "M212 420 L207 419 L214 384 L206 382 L211 378 L216 375 L222 371 L225 377 L229 382 L232 387 L228 386 L223 385 L216 421 L212 420 Z" stroke = "#008000" stroke-width = "1" fill = "#008000" />	<path d = "M235 435 L232 432 L262 411 L257 404 L264 405 L270 406 L276 408 L275 414 L274 420 L272 426 L270 423 L267 419 L237 439 L235 435 Z" stroke = "#0000ff" stroke-width = "1" fill = "#0000ff" />	<path d = "M240 462 L241 458 L277 465 L278 456 L282 461 L285 467 L289 472 L284 476 L278 479 L273 483 L274 478 L275 474 L239 467 L240 462 Z" stroke = "#800080" stroke-width = "1" fill = "#800080" />    <circle cx="227" cy = "465" r = "3.382231834640608" stroke = "#000000" stroke-width = "5" fill = "#000000" />
    <circle cx="222" cy = "468" r = "3.382231834640608" stroke = "#000000" stroke-width = "5" fill = "#000000" />
    <circle cx="216" cy = "472" r = "3.382231834640608" stroke = "#000000" stroke-width = "5" fill = "#000000" />
    <circle cx="210" cy = "476" r = "3.382231834640608" stroke = "#000000" stroke-width = "5" fill = "#000000" />
    <circle cx="205" cy = "480" r = "3.382231834640608" stroke = "#000000" stroke-width = "5" fill = "#000000" />
    <circle cx="212" cy = "467" r = "3.382231834640608" stroke = "#000000" stroke-width = "5" fill = "#000000" />
    <circle cx="209" cy = "461" r = "3.382231834640608" stroke = "#000000" stroke-width = "5" fill = "#000000" />
    <circle cx="205" cy = "455" r = "3.382231834640608" stroke = "#000000" stroke-width = "5" fill = "#000000" />
    <circle cx="201" cy = "450" r = "3.382231834640608" stroke = "#000000" stroke-width = "5" fill = "#000000" />
    <circle cx="197" cy = "444" r = "3.382231834640608" stroke = "#000000" stroke-width = "5" fill = "#000000" />
    <circle cx="194" cy = "438" r = "3.382231834640608" stroke = "#000000" stroke-width = "5" fill = "#000000" />
	<path d = "M325 636 L329 633 L349 663 L357 658 L355 664 L354 671 L353 677 L347 676 L340 674 L334 673 L338 671 L342 668 L321 638 L325 636 Z" stroke = "#ff0000" stroke-width = "1" fill = "#ff0000" />	<path d = "M298 641 L303 642 L295 677 L304 679 L299 683 L294 686 L288 690 L285 684 L281 679 L278 674 L282 675 L287 676 L294 640 L298 641 Z" stroke = "#008000" stroke-width = "1" fill = "#008000" />	<path d = "M275 626 L278 629 L248 649 L253 657 L246 656 L240 655 L234 653 L235 647 L236 641 L238 634 L240 638 L243 642 L273 622 L275 626 Z" stroke = "#0000ff" stroke-width = "1" fill = "#0000ff" />	<path d = "M270 599 L269 603 L233 596 L232 605 L228 599 L225 594 L221 589 L226 585 L232 582 L237 578 L236 583 L235 587 L271 594 L270 599 Z" stroke = "#800080" stroke-width = "1" fill = "#800080" />	<path d = "M285 576 L281 578 L261 548 L254 553 L255 547 L256 541 L257 534 L264 535 L270 537 L276 538 L273 540 L269 543 L289 573 L285 576 Z" stroke = "#ff0000" stroke-width = "1" fill = "#ff0000" />	<path d = "M312 570 L308 569 L315 534 L306 532 L311 529 L317 525 L322 521 L325 527 L329 532 L333 537 L328 536 L324 536 L317 571 L312 570 Z" stroke = "#008000" stroke-width = "1" fill = "#008000" />	<path d = "M335 586 L333 582 L363 562 L358 554 L364 555 L370 557 L377 558 L375 564 L374 570 L373 577 L370 573 L368 569 L338 589 L335 586 Z" stroke = "#0000ff" stroke-width = "1" fill = "#0000ff" />	<path d = "M341 613 L341 608 L377 615 L379 606 L382 612 L386 617 L389 622 L384 626 L379 629 L373 633 L374 629 L375 624 L340 617 L341 613 Z" stroke = "#800080" stroke-width = "1" fill = "#800080" />    <circle cx="328" cy = "615" r = "3.382231834640608" stroke = "#000000" stroke-width = "5" fill = "#000000" />
    <circle cx="322" cy = "619" r = "3.382231834640608" stroke = "#000000" stroke-width = "5" fill = "#000000" />
    <circle cx="316" cy = "622" r = "3.382231834640608" stroke = "#000000" stroke-width = "5" fill = "#000000" />
    <circle cx="311" cy = "626" r = "3.382231834640608" stroke = "#000000" stroke-width = "5" fill = "#000000" />
    <circle cx="305" cy = "630" r = "3.382231834640608" stroke = "#000000" stroke-width = "5" fill = "#000000" />
    <circle cx="313" cy = "617" r = "3.382231834640608" stroke = "#000000" stroke-width = "5" fill = "#000000" />
    <circle cx="309" cy = "611" r = "3.382231834640608" stroke = "#000000" stroke-width = "5" fill = "#000000" />
    <circle cx="305" cy = "606" r = "3.382231834640608" stroke = "#000000" stroke-width = "5" fill = "#000000" />
    <circle cx="301" cy = "600" r = "3.382231834640608" stroke = "#000000" stroke-width = "5" fill = "#000000" />
    <circle cx="298" cy = "594" r = "3.382231834640608" stroke = "#000000" stroke-width = "5" fill = "#000000" />
    <circle cx="294" cy = "589" r = "3.382231834640608" stroke = "#000000" stroke-width = "5" fill = "#000000" />
	<path d = "M124 335 L128 333 L148 363 L156 358 L155 364 L153 370 L152 377 L146 375 L140 374 L133 373 L137 370 L141 368 L121 338 L124 335 Z" stroke = "#ff0000" stroke-width = "1" fill = "#ff0000" />	<path d = "M97 341 L102 341 L95 377 L104 379 L98 382 L93 386 L88 389 L84 384 L81 379 L77 373 L81 374 L86 375 L93 340 L97 341 Z" stroke = "#008000" stroke-width = "1" fill = "#008000" />	<path d = "M74 325 L77 329 L47 349 L52 357 L46 355 L39 354 L33 353 L34 347 L36 340 L37 334 L39 338 L42 342 L72 321 L74 325 Z" stroke = "#0000ff" stroke-width = "1" fill = "#0000ff" />	<path d = "M69 298 L68 303 L33 295 L31 304 L27 299 L24 294 L20 288 L26 285 L31 281 L36 278 L35 282 L34 287 L70 294 L69 298 Z" stroke = "#800080" stroke-width = "1" fill = "#800080" />	<path d = "M84 275 L81 278 L61 248 L53 253 L54 246 L55 240 L57 234 L63 235 L69 236 L76 238 L72 240 L68 243 L88 273 L84 275 Z" stroke = "#ff0000" stroke-width = "1" fill = "#ff0000" />	<path d = "M111 270 L107 269 L114 233 L105 232 L111 228 L116 225 L121 221 L125 226 L128 232 L132 237 L127 236 L123 235 L116 271 L111 270 Z" stroke = "#008000" stroke-width = "1" fill = "#008000" />	<path d = "M134 285 L132 281 L162 261 L157 254 L163 255 L169 256 L176 257 L175 264 L173 270 L172 276 L170 273 L167 269 L137 289 L134 285 Z" stroke = "#0000ff" stroke-width = "1" fill = "#0000ff" />	<path d = "M140 312 L141 308 L176 315 L178 306 L181 311 L185 317 L189 322 L183 325 L178 329 L173 333 L174 328 L174 324 L139 317 L140 312 Z" stroke = "#800080" stroke-width = "1" fill = "#800080" />    <circle cx="127" cy = "315" r = "3.382231834640608" stroke = "#000000" stroke-width = "5" fill = "#000000" />
    <circle cx="121" cy = "318" r = "3.382231834640608" stroke = "#000000" stroke-width = "5" fill = "#000000" />
    <circle cx="116" cy = "322" r = "3.382231834640608" stroke = "#000000" stroke-width = "5" fill = "#000000" />
    <circle cx="110" cy = "326" r = "3.382231834640608" stroke = "#000000" stroke-width = "5" fill = "#000000" />
    <circle cx="104" cy = "330" r = "3.382231834640608" stroke = "#000000" stroke-width = "5" fill = "#000000" />
    <circle cx="112" cy = "316" r = "3.382231834640608" stroke = "#000000" stroke-width = "5" fill = "#000000" />
    <circle cx="108" cy = "311" r = "3.382231834640608" stroke = "#000000" stroke-width = "5" fill = "#000000" />
    <circle cx="104" cy = "305" r = "3.382231834640608" stroke = "#000000" stroke-width = "5" fill = "#000000" />
    <circle cx="101" cy = "300" r = "3.382231834640608" stroke = "#000000" stroke-width = "5" fill = "#000000" />
    <circle cx="97" cy = "294" r = "3.382231834640608" stroke = "#000000" stroke-width = "5" fill = "#000000" />
    <circle cx="93" cy = "288" r = "3.382231834640608" stroke = "#000000" stroke-width = "5" fill = "#000000" />
	<path d = "M275 235 L278 232 L299 262 L306 257 L305 264 L304 270 L302 276 L296 275 L290 274 L284 272 L287 270 L291 267 L271 237 L275 235 Z" stroke = "#ff0000" stroke-width = "1" fill = "#ff0000" />	<path d = "M248 240 L252 241 L245 277 L254 278 L249 282 L243 285 L238 289 L234 284 L231 278 L227 273 L232 274 L236 275 L243 239 L248 240 Z" stroke = "#008000" stroke-width = "1" fill = "#008000" />	<path d = "M225 225 L227 229 L197 249 L202 256 L196 255 L190 254 L183 252 L185 246 L186 240 L187 234 L190 237 L192 241 L222 221 L225 225 Z" stroke = "#0000ff" stroke-width = "1" fill = "#0000ff" />	<path d = "M219 198 L218 202 L183 195 L181 204 L178 199 L174 193 L170 188 L176 184 L181 181 L186 177 L186 182 L185 186 L220 193 L219 198 Z" stroke = "#800080" stroke-width = "1" fill = "#800080" />	<path d = "M235 175 L231 177 L211 147 L203 152 L204 146 L206 140 L207 133 L213 135 L219 136 L226 137 L222 140 L218 142 L238 172 L235 175 Z" stroke = "#ff0000" stroke-width = "1" fill = "#ff0000" />	<path d = "M262 169 L257 168 L264 133 L255 131 L261 128 L266 124 L271 121 L275 126 L278 131 L282 137 L278 136 L273 135 L266 170 L262 169 Z" stroke = "#008000" stroke-width = "1" fill = "#008000" />	<path d = "M285 185 L282 181 L312 161 L307 153 L313 155 L320 156 L326 157 L325 163 L323 170 L322 176 L320 172 L317 168 L287 188 L285 185 Z" stroke = "#0000ff" stroke-width = "1" fill = "#0000ff" />	<path d = "M290 212 L291 207 L326 214 L328 206 L332 211 L335 216 L339 222 L333 225 L328 229 L323 232 L324 228 L325 223 L289 216 L290 212 Z" stroke = "#800080" stroke-width = "1" fill = "#800080" />    <circle cx="277" cy = "214" r = "3.382231834640608" stroke = "#000000" stroke-width = "5" fill = "#000000" />
    <circle cx="272" cy = "218" r = "3.382231834640608" stroke = "#000000" stroke-width = "5" fill = "#000000" />
    <circle cx="266" cy = "222" r = "3.382231834640608" stroke = "#000000" stroke-width = "5" fill = "#000000" />
    <circle cx="260" cy = "225" r = "3.382231834640608" stroke = "#000000" stroke-width = "5" fill = "#000000" />
    <circle cx="255" cy = "229" r = "3.382231834640608" stroke = "#000000" stroke-width = "5" fill = "#000000" />
    <circle cx="262" cy = "216" r = "3.382231834640608" stroke = "#000000" stroke-width = "5" fill = "#000000" />
    <circle cx="258" cy = "210" r = "3.382231834640608" stroke = "#000000" stroke-width = "5" fill = "#000000" />
    <circle cx="255" cy = "205" r = "3.382231834640608" stroke = "#000000" stroke-width = "5" fill = "#000000" />
    <circle cx="251" cy = "199" r = "3.382231834640608" stroke = "#000000" stroke-width = "5" fill = "#000000" />
    <circle cx="247" cy = "194" r = "3.382231834640608" stroke = "#000000" stroke-width = "5" fill = "#000000" />
    <circle cx="243" cy = "188" r = "3.382231834640608" stroke = "#000000" stroke-width = "5" fill = "#000000" />
	<path d = "M525 285 L529 282 L549 312 L557 307 L555 313 L554 320 L553 326 L547 325 L540 323 L534 322 L538 320 L542 317 L522 287 L525 285 Z" stroke = "#ff0000" stroke-width = "1" fill = "#ff0000" />	<path d = "M498 290 L503 291 L496 326 L504 328 L499 332 L494 335 L488 339 L485 333 L481 328 L478 323 L482 324 L487 325 L494 289 L498 290 Z" stroke = "#008000" stroke-width = "1" fill = "#008000" />	<path d = "M475 275 L478 278 L448 299 L453 306 L446 305 L440 304 L434 302 L435 296 L436 290 L438 284 L440 287 L443 291 L473 271 L475 275 Z" stroke = "#0000ff" stroke-width = "1" fill = "#0000ff" />	<path d = "M470 248 L469 252 L433 245 L432 254 L428 249 L425 243 L421 238 L426 234 L432 231 L437 227 L436 232 L435 236 L471 243 L470 248 Z" stroke = "#800080" stroke-width = "1" fill = "#800080" />	<path d = "M485 225 L481 227 L461 197 L454 202 L455 196 L456 190 L458 183 L464 185 L470 186 L476 187 L473 190 L469 192 L489 222 L485 225 Z" stroke = "#ff0000" stroke-width = "1" fill = "#ff0000" />	<path d = "M512 219 L508 218 L515 183 L506 181 L511 178 L517 174 L522 170 L526 176 L529 181 L533 186 L528 186 L524 185 L517 220 L512 219 Z" stroke = "#008000" stroke-width = "1" fill = "#008000" />	<path d = "M535 235 L533 231 L563 211 L558 203 L564 204 L570 206 L577 207 L575 213 L574 219 L573 226 L570 222 L568 218 L538 238 L535 235 Z" stroke = "#0000ff" stroke-width = "1" fill = "#0000ff" />	<path d = "M541 262 L542 257 L577 264 L579 255 L582 261 L586 266 L589 271 L584 275 L579 278 L573 282 L574 278 L575 273 L540 266 L541 262 Z" stroke = "#800080" stroke-width = "1" fill = "#800080" />    <circle cx="528" cy = "264" r = "3.382231834640608" stroke = "#000000" stroke-width = "5" fill = "#000000" />
    <circle cx="522" cy = "268" r = "3.382231834640608" stroke = "#000000" stroke-width = "5" fill = "#000000" />
    <circle cx="516" cy = "272" r = "3.382231834640608" stroke = "#000000" stroke-width = "5" fill = "#000000" />
    <circle cx="511" cy = "275" r = "3.382231834640608" stroke = "#000000" stroke-width = "5" fill = "#000000" />
    <circle cx="505" cy = "279" r = "3.382231834640608" stroke = "#000000" stroke-width = "5" fill = "#000000" />
    <circle cx="513" cy = "266" r = "3.382231834640608" stroke = "#000000" stroke-width = "5" fill = "#000000" />
    <circle cx="509" cy = "260" r = "3.382231834640608" stroke = "#000000" stroke-width = "5" fill = "#000000" />
    <circle cx="505" cy = "255" r = "3.382231834640608" stroke = "#000000" stroke-width = "5" fill = "#000000" />
    <circle cx="501" cy = "249" r = "3.382231834640608" stroke = "#000000" stroke-width = "5" fill = "#000000" />
    <circle cx="498" cy = "243" r = "3.382231834640608" stroke = "#000000" stroke-width = "5" fill = "#000000" />
    <circle cx="494" cy = "238" r = "3.382231834640608" stroke = "#000000" stroke-width = "5" fill = "#000000" />
	<path d = "M425 134 L429 132 L449 162 L456 157 L455 163 L454 169 L453 176 L446 175 L440 173 L434 172 L437 170 L441 167 L421 137 L425 134 Z" stroke = "#ff0000" stroke-width = "1" fill = "#ff0000" />	<path d = "M398 140 L402 141 L395 176 L404 178 L399 181 L393 185 L388 189 L385 183 L381 178 L377 173 L382 174 L386 174 L393 139 L398 140 Z" stroke = "#008000" stroke-width = "1" fill = "#008000" />	<path d = "M375 124 L377 128 L347 148 L352 156 L346 155 L340 153 L333 152 L335 146 L336 140 L337 133 L340 137 L342 141 L372 121 L375 124 Z" stroke = "#0000ff" stroke-width = "1" fill = "#0000ff" />	<path d = "M369 97 L369 102 L333 95 L331 104 L328 98 L324 93 L321 88 L326 84 L331 81 L337 77 L336 81 L335 86 L370 93 L369 97 Z" stroke = "#800080" stroke-width = "1" fill = "#800080" />	<path d = "M385 74 L381 77 L361 47 L353 52 L355 46 L356 39 L357 33 L363 34 L370 36 L376 37 L372 39 L368 42 L389 72 L385 74 Z" stroke = "#ff0000" stroke-width = "1" fill = "#ff0000" />	<path d = "M412 69 L407 68 L415 33 L406 31 L411 27 L416 24 L422 20 L425 26 L429 31 L432 36 L428 35 L423 34 L416 70 L412 69 Z" stroke = "#008000" stroke-width = "1" fill = "#008000" />	<path d = "M435 84 L432 81 L462 61 L457 53 L464 54 L470 55 L476 57 L475 63 L474 69 L472 76 L470 72 L467 68 L437 88 L435 84 Z" stroke = "#0000ff" stroke-width = "1" fill = "#0000ff" />	<path d = "M440 111 L441 107 L477 114 L478 105 L482 111 L485 116 L489 121 L484 125 L478 128 L473 132 L474 127 L475 123 L439 116 L440 111 Z" stroke = "#800080" stroke-width = "1" fill = "#800080" />    <circle cx="427" cy = "114" r = "3.382231834640608" stroke = "#000000" stroke-width = "5" fill = "#000000" />
    <circle cx="422" cy = "118" r = "3.382231834640608" stroke = "#000000" stroke-width = "5" fill = "#000000" />
    <circle cx="416" cy = "121" r = "3.382231834640608" stroke = "#000000" stroke-width = "5" fill = "#000000" />
    <circle cx="410" cy = "125" r = "3.382231834640608" stroke = "#000000" stroke-width = "5" fill = "#000000" />
    <circle cx="405" cy = "129" r = "3.382231834640608" stroke = "#000000" stroke-width = "5" fill = "#000000" />
    <circle cx="412" cy = "116" r = "3.382231834640608" stroke = "#000000" stroke-width = "5" fill = "#000000" />
    <circle cx="409" cy = "110" r = "3.382231834640608" stroke = "#000000" stroke-width = "5" fill = "#000000" />
    <circle cx="405" cy = "104" r = "3.382231834640608" stroke = "#000000" stroke-width = "5" fill = "#000000" />
    <circle cx="401" cy = "99" r = "3.382231834640608" stroke = "#000000" stroke-width = "5" fill = "#000000" />
    <circle cx="397" cy = "93" r = "3.382231834640608" stroke = "#000000" stroke-width = "5" fill = "#000000" />
    <circle cx="394" cy = "88" r = "3.382231834640608" stroke = "#000000" stroke-width = "5" fill = "#000000" />
	<path d = "M626 435 L629 432 L649 462 L657 457 L656 464 L655 470 L653 476 L647 475 L641 474 L634 472 L638 470 L642 467 L622 437 L626 435 Z" stroke = "#ff0000" stroke-width = "1" fill = "#ff0000" />	<path d = "M599 440 L603 441 L596 477 L605 478 L599 482 L594 485 L589 489 L585 484 L582 478 L578 473 L583 474 L587 475 L594 439 L599 440 Z" stroke = "#008000" stroke-width = "1" fill = "#008000" />	<path d = "M576 425 L578 429 L548 449 L553 456 L547 455 L541 454 L534 453 L535 446 L537 440 L538 434 L540 437 L543 441 L573 421 L576 425 Z" stroke = "#0000ff" stroke-width = "1" fill = "#0000ff" />	<path d = "M570 398 L569 402 L534 395 L532 404 L529 399 L525 393 L521 388 L527 385 L532 381 L537 377 L536 382 L536 386 L571 393 L570 398 Z" stroke = "#800080" stroke-width = "1" fill = "#800080" />	<path d = "M586 375 L582 377 L562 347 L554 352 L555 346 L557 340 L558 333 L564 335 L570 336 L577 337 L573 340 L569 342 L589 372 L586 375 Z" stroke = "#ff0000" stroke-width = "1" fill = "#ff0000" />	<path d = "M613 369 L608 369 L615 333 L606 331 L612 328 L617 324 L622 321 L626 326 L629 331 L633 337 L629 336 L624 335 L617 370 L613 369 Z" stroke = "#008000" stroke-width = "1" fill = "#008000" />	<path d = "M636 385 L633 381 L663 361 L658 353 L664 355 L671 356 L677 357 L676 363 L674 370 L673 376 L671 372 L668 368 L638 389 L636 385 Z" stroke = "#0000ff" stroke-width = "1" fill = "#0000ff" />	<path d = "M641 412 L642 407 L677 415 L679 406 L683 411 L686 416 L690 422 L684 425 L679 429 L674 432 L675 428 L676 423 L640 416 L641 412 Z" stroke = "#800080" stroke-width = "1" fill = "#800080" />    <circle cx="628" cy = "414" r = "3.382231834640608" stroke = "#000000" stroke-width = "5" fill = "#000000" />
    <circle cx="622" cy = "418" r = "3.382231834640608" stroke = "#000000" stroke-width = "5" fill = "#000000" />
    <circle cx="617" cy = "422" r = "3.382231834640608" stroke = "#000000" stroke-width = "5" fill = "#000000" />
    <circle cx="611" cy = "425" r = "3.382231834640608" stroke = "#000000" stroke-width = "5" fill = "#000000" />
    <circle cx="606" cy = "429" r = "3.382231834640608" stroke = "#000000" stroke-width = "5" fill = "#000000" />
    <circle cx="613" cy = "416" r = "3.382231834640608" stroke = "#000000" stroke-width = "5" fill = "#000000" />
    <circle cx="609" cy = "410" r = "3.382231834640608" stroke = "#000000" stroke-width = "5" fill = "#000000" />
    <circle cx="606" cy = "405" r = "3.382231834640608" stroke = "#000000" stroke-width = "5" fill = "#000000" />
    <circle cx="602" cy = "399" r = "3.382231834640608" stroke = "#000000" stroke-width = "5" fill = "#000000" />
    <circle cx="598" cy = "394" r = "3.382231834640608" stroke = "#000000" stroke-width = "5" fill = "#000000" />
    <circle cx="594" cy = "388" r = "3.382231834640608" stroke = "#000000" stroke-width = "5" fill = "#000000" />
</svg>