<svg width="710" height="710" viewbox = "0 0 710 710"  xmlns="http://www.w3.org/2000/svg">
<!--<json>{
  "glyph": "0350,0350,0350,0335,0335,0335,0335,0335,0335,0335,0335,0335,0335,0335,0335,0335,0335,0335,0335,0335,0335,0335,0335,0335,0335,0335,0335,0335,0335,0335,0335,0335,0335,0335,0335,0335,0335,0335,0335,0335,0335,0335,0335,0335,0335,0335,0335,0335,0304,0224,0330,0330,0330,0330,0330,0224,0331,0331,0331,0331,0331,0333,0333,0333,0333,0333,0224,0330,0330,0330,0330,0330,0224,0331,0331,0331,0331,0331,0331,0331,0331,0331,0331,0224,0332,0332,0332,0332,0332,0224,0330,0330,0330,0330,0330,0332,0332,0332,0332,0332,0224,0331,0331,0331,0331,0331,0224,0330,0330,0330,0330,0330,0330,0330,0330,0330,0330,0224,",
  "x0": 355,
  "y0": 355,
  "unit": 64.01202103681442,
  "width": 710,
  "height": 710,
  "style": {
    "color0": "black",
    "fill0": "black",
    "line0": 1,
    "color1": "black",
    "fill1": "black",
    "line1": 5,
    "color2": "red",
    "fill2": "red",
    "line2": 1,
    "color3": "#FF7900",
    "fill3": "#FF7900",
    "line3": 1,
    "color4": "yellow",
    "fill4": "yellow",
    "line4": 1,
    "color5": "green",
    "fill5": "green",
    "line5": 1,
    "color6": "blue",
    "fill6": "blue",
    "line6": 1,
    "color7": "purple",
    "fill7": "purple",
    "line7": 1
  },
  "shapes": [
    "0220:0370,0336,0336,0331,0332,0336,0331,0332,0337,0337,0337,01124,0371,",
    "0221:0336,0336,0336,0334,0362,0203,0335,0337,0337,0337,0203,0334,0336,0336,0203,0336,0335,0350,0335,0310,0337,0203,0203,0203,0335,0335,0203,0203,0203,0335,0335,0335,0336,0203,0203,0334,0334,0313,0304,0337,0337,0337,0203,0335,0336,0336,0336,0203,0363,0335,0337,0337,0337,",
    "0222:0330,0221,0331,0350,0335,0304,",
    "0223:0222,0222,0222,0222,0222,0222,0222,0222,0211,0211,0211,0220,0210,0210,0210,",
    "0224:0322,0222,0325,0222,0326,0222,0327,0222,0322,0222,0325,0222,0326,0222,0327,0222,0321,0211,0211,0211,0220,0210,0210,0210,0320,",
    "0225:0525,",
    "0226:0526,",
    "0227:0527,",
    "0230:0530,",
    "0231:0531,",
    "0232:0532,",
    "0233:0533,",
    "0234:0331,0534,",
    "0235:0535,",
    "0236:0536,",
    "0237:0220,0336,0331,0332,0336,0321,0342,0335,0342,0335,0342,0335,0342,0335,0330,0330,0333,0333,0337,0337,",
    "01220:0333,0200,0336,0330,0332,0336,0220,0337,0331,0333,0337,",
    "01221:0333,0200,0336,0330,0332,0336,0221,0337,0331,0333,0337,",
    "01222:0333,0200,0336,0330,0332,0336,0222,0222,0222,0350,0335,0304,0337,0335,0335,0331,0333,0337,",
    "01223:0333,0200,0336,0330,0332,0336,0223,0337,0331,0333,0337,",
    "01224:0333,0200,",
    "01225:0333,0200,",
    "01226:0333,0200,",
    "01227:0333,0200,",
    "01230:0333,0200,",
    "01231:0333,0200,",
    "01232:0333,0200,",
    "01233:0333,0200,",
    "01234:0333,0200,0336,0336,0330,0330,0330,0234,0331,0331,0333,0333,0331,0331,0333,0333,0337,0337,0333,0333,0333,",
    "01235:0333,0200,0336,0336,0330,0235,0331,0333,0337,0337,",
    "01236:0333,0200,",
    "01237:0333,0200,",
    "0240:0220,0336,0331,0333,0336,0321,0335,0342,0335,0335,0342,0335,0330,0330,0332,0332,0337,0337,",
    "01240:0333,0200,0336,0330,0332,0210,0240,0211,0333,0331,0337,",
    "0241:0220,0336,0321,0343,0332,0350,0335,0336,0342,0334,0334,0342,0335,0304,0337,0333,0337,",
    "01241:0333,0200,0336,0332,0330,0210,0241,0211,0333,0331,0337,",
    "0242:0220,0321,0336,0343,0333,0336,0350,0335,0342,0334,0334,0342,0335,0337,0304,0332,0337,",
    "01242:0333,0200,0336,0330,0332,0210,0242,0211,0333,0331,0337,",
    "0243:0220,0336,0331,0332,0336,0321,0343,0332,0350,0334,0336,0342,0335,0335,0342,0337,0334,0334,0335,0304,0332,0330,0330,0337,0337,0333,",
    "01243:0333,0200,0336,0330,0332,0210,0243,0211,0333,0331,0337,",
    "0244:0220,0336,0331,0333,0336,0321,0343,0333,0350,0336,0335,0342,0334,0334,0342,0335,0337,0304,0333,0330,0330,0337,0337,0332,",
    "01244:0333,0200,0336,0330,0332,0210,0244,0211,0333,0331,0337,",
    "0245:0210,0332,0332,0362,0335,0203,0203,0203,0203,0334,0203,0363,0332,0332,0331,0211,",
    "01245:0333,0200,0336,0330,0332,0336,0245,0337,0333,0331,0337,",
    "0246:0210,0332,0332,0335,0306,0336,0330,0335,0335,0335,0321,0362,0203,0335,0335,0203,0364,0331,0350,0335,0337,0366,0333,0333,0333,0333,0334,0334,0334,0334,0367,0335,0336,0342,0334,0334,0342,0330,0330,0330,0330,0335,0335,0335,0304,0337,0211,",
    "01246:0333,0200,0336,0330,0332,0336,0246,",
    "0247:0330,0332,0336,0332,0336,0221,0333,0333,0333,0222,0333,0333,0333,0223,0333,0333,0333,0225,0333,0331,0331,0331,0332,0332,0332,0332,0332,0332,0332,0332,0332,0332,0332,0332,0333,0333,0226,0331,0331,0331,0333,0333,0333,0333,0333,0333,0333,0333,0333,0333,0333,0333,0333,0330,0333,0330,0330,0333,0330,0331,0332,0332,0332,0332,0332,0332,0332,0332,0332,0332,0332,0332,0227,0333,0333,0333,0230,0333,0331,0331,0331,0331,0332,0332,0332,0330,0332,0332,0332,0332,0332,0332,0333,0333,0231,0333,0333,0333,0232,0331,0333,0330,0333,0333,0233,0333,0333,0333,0234,0330,0330,0332,0330,0332,0332,0337,0337,",
    "01247:0333,0200,0336,0330,0332,0220,0336,0247,0337,0331,0333,0337,"
  ]
}</json>-->	<path d = "M391 408 L397 404 L433 457 L446 448 L444 459 L442 470 L439 481 L428 479 L417 477 L406 475 L413 470 L419 466 L384 413 L391 408 Z" stroke = "#ff0000" stroke-width = "1" fill = "#ff0000" />	<path d = "M343 418 L350 419 L338 482 L354 485 L344 492 L335 498 L325 504 L319 495 L313 485 L306 476 L314 477 L322 479 L335 416 L343 418 Z" stroke = "#008000" stroke-width = "1" fill = "#008000" />	<path d = "M302 391 L306 397 L253 433 L262 446 L251 444 L240 442 L229 439 L231 428 L233 417 L235 406 L240 413 L244 419 L297 384 L302 391 Z" stroke = "#0000ff" stroke-width = "1" fill = "#0000ff" />	<path d = "M292 343 L291 350 L228 338 L225 354 L218 344 L212 335 L206 325 L215 319 L225 313 L234 306 L233 314 L231 322 L294 335 L292 343 Z" stroke = "#800080" stroke-width = "1" fill = "#800080" />	<path d = "M319 302 L313 306 L277 253 L264 262 L266 251 L268 240 L271 229 L282 231 L293 233 L304 235 L297 240 L291 244 L326 297 L319 302 Z" stroke = "#ff0000" stroke-width = "1" fill = "#ff0000" />	<path d = "M367 292 L360 291 L372 228 L356 225 L366 218 L375 212 L385 206 L391 215 L397 225 L404 234 L396 233 L388 231 L375 294 L367 292 Z" stroke = "#008000" stroke-width = "1" fill = "#008000" />	<path d = "M408 319 L404 313 L457 277 L448 264 L459 266 L470 268 L481 271 L479 282 L477 293 L475 304 L470 297 L466 291 L413 326 L408 319 Z" stroke = "#0000ff" stroke-width = "1" fill = "#0000ff" />	<path d = "M418 367 L419 360 L482 372 L485 356 L492 366 L498 375 L504 385 L495 391 L485 397 L476 404 L477 396 L479 388 L416 375 L418 367 Z" stroke = "#800080" stroke-width = "1" fill = "#800080" />    <circle cx="395" cy = "372" r = "5.991830011207751" stroke = "#000000" stroke-width = "5" fill = "#000000" />
    <circle cx="385" cy = "378" r = "5.991830011207751" stroke = "#000000" stroke-width = "5" fill = "#000000" />
    <circle cx="375" cy = "385" r = "5.991830011207751" stroke = "#000000" stroke-width = "5" fill = "#000000" />
    <circle cx="365" cy = "392" r = "5.991830011207751" stroke = "#000000" stroke-width = "5" fill = "#000000" />
    <circle cx="355" cy = "398" r = "5.991830011207751" stroke = "#000000" stroke-width = "5" fill = "#000000" />
    <circle cx="368" cy = "375" r = "5.991830011207751" stroke = "#000000" stroke-width = "5" fill = "#000000" />
    <circle cx="362" cy = "365" r = "5.991830011207751" stroke = "#000000" stroke-width = "5" fill = "#000000" />
    <circle cx="355" cy = "355" r = "5.991830011207751" stroke = "#000000" stroke-width = "5" fill = "#000000" />
    <circle cx="348" cy = "345" r = "5.991830011207751" stroke = "#000000" stroke-width = "5" fill = "#000000" />
    <circle cx="342" cy = "335" r = "5.991830011207751" stroke = "#000000" stroke-width = "5" fill = "#000000" />
    <circle cx="335" cy = "325" r = "5.991830011207751" stroke = "#000000" stroke-width = "5" fill = "#000000" />
	<path d = "M568 674 L575 670 L611 723 L624 714 L622 725 L619 736 L617 748 L606 745 L595 743 L584 741 L591 736 L597 732 L562 679 L568 674 Z" stroke = "#ff0000" stroke-width = "1" fill = "#ff0000" />	<path d = "M520 684 L528 685 L516 748 L531 751 L522 758 L513 764 L503 770 L497 761 L491 751 L484 742 L492 744 L500 745 L512 682 L520 684 Z" stroke = "#008000" stroke-width = "1" fill = "#008000" />	<path d = "M480 657 L484 663 L431 699 L440 712 L429 710 L418 708 L406 706 L409 694 L411 683 L413 672 L417 679 L422 686 L475 650 L480 657 Z" stroke = "#0000ff" stroke-width = "1" fill = "#0000ff" />	<path d = "M470 609 L468 616 L406 604 L403 620 L396 610 L390 601 L384 591 L393 585 L403 579 L412 573 L410 580 L409 588 L472 601 L470 609 Z" stroke = "#800080" stroke-width = "1" fill = "#800080" />	<path d = "M497 568 L491 572 L455 519 L442 528 L444 517 L446 506 L448 495 L459 497 L471 499 L482 501 L475 506 L468 510 L504 563 L497 568 Z" stroke = "#ff0000" stroke-width = "1" fill = "#ff0000" />	<path d = "M545 558 L537 557 L550 494 L534 491 L544 485 L553 478 L562 472 L569 481 L575 491 L581 500 L573 499 L566 497 L553 560 L545 558 Z" stroke = "#008000" stroke-width = "1" fill = "#008000" />	<path d = "M586 586 L582 579 L635 543 L626 530 L637 532 L648 534 L659 537 L657 548 L655 559 L653 570 L648 563 L644 557 L590 592 L586 586 Z" stroke = "#0000ff" stroke-width = "1" fill = "#0000ff" />	<path d = "M596 634 L597 626 L660 638 L663 623 L669 632 L676 641 L682 651 L673 657 L663 663 L654 670 L655 662 L657 654 L594 641 L596 634 Z" stroke = "#800080" stroke-width = "1" fill = "#800080" />    <circle cx="573" cy = "638" r = "5.991830011207751" stroke = "#000000" stroke-width = "5" fill = "#000000" />
    <circle cx="563" cy = "644" r = "5.991830011207751" stroke = "#000000" stroke-width = "5" fill = "#000000" />
    <circle cx="553" cy = "651" r = "5.991830011207751" stroke = "#000000" stroke-width = "5" fill = "#000000" />
    <circle cx="543" cy = "658" r = "5.991830011207751" stroke = "#000000" stroke-width = "5" fill = "#000000" />
    <circle cx="533" cy = "664" r = "5.991830011207751" stroke = "#000000" stroke-width = "5" fill = "#000000" />
    <circle cx="546" cy = "641" r = "5.991830011207751" stroke = "#000000" stroke-width = "5" fill = "#000000" />
    <circle cx="539" cy = "631" r = "5.991830011207751" stroke = "#000000" stroke-width = "5" fill = "#000000" />
    <circle cx="533" cy = "621" r = "5.991830011207751" stroke = "#000000" stroke-width = "5" fill = "#000000" />
    <circle cx="526" cy = "611" r = "5.991830011207751" stroke = "#000000" stroke-width = "5" fill = "#000000" />
    <circle cx="520" cy = "601" r = "5.991830011207751" stroke = "#000000" stroke-width = "5" fill = "#000000" />
    <circle cx="513" cy = "591" r = "5.991830011207751" stroke = "#000000" stroke-width = "5" fill = "#000000" />
	<path d = "M124 586 L131 582 L167 635 L180 626 L178 637 L176 648 L173 659 L162 657 L151 655 L140 653 L147 648 L153 644 L118 590 L124 586 Z" stroke = "#ff0000" stroke-width = "1" fill = "#ff0000" />	<path d = "M76 596 L84 597 L72 660 L87 663 L78 669 L69 676 L59 682 L53 673 L47 663 L40 654 L48 655 L56 657 L69 594 L76 596 Z" stroke = "#008000" stroke-width = "1" fill = "#008000" />	<path d = "M36 568 L40 575 L-13 611 L-4 624 L-15 622 L-26 619 L-38 617 L-35 606 L-33 595 L-31 584 L-26 591 L-22 597 L31 562 L36 568 Z" stroke = "#0000ff" stroke-width = "1" fill = "#0000ff" />	<path d = "M26 520 L25 528 L-38 516 L-41 531 L-48 522 L-54 513 L-60 503 L-51 497 L-41 491 L-32 484 L-34 492 L-35 500 L28 512 L26 520 Z" stroke = "#800080" stroke-width = "1" fill = "#800080" />	<path d = "M53 480 L47 484 L11 431 L-2 440 L0 429 L2 418 L4 406 L16 409 L27 411 L38 413 L31 417 L24 422 L60 475 L53 480 Z" stroke = "#ff0000" stroke-width = "1" fill = "#ff0000" />	<path d = "M101 470 L94 468 L106 406 L90 403 L100 396 L109 390 L119 384 L125 393 L131 403 L137 412 L130 410 L122 409 L109 472 L101 470 Z" stroke = "#008000" stroke-width = "1" fill = "#008000" />	<path d = "M142 497 L138 491 L191 455 L182 442 L193 444 L204 446 L215 448 L213 459 L211 471 L209 482 L204 475 L200 468 L147 504 L142 497 Z" stroke = "#0000ff" stroke-width = "1" fill = "#0000ff" />	<path d = "M152 545 L153 537 L216 550 L219 534 L225 544 L232 553 L238 562 L229 569 L219 575 L210 581 L211 573 L213 566 L150 553 L152 545 Z" stroke = "#800080" stroke-width = "1" fill = "#800080" />    <circle cx="129" cy = "549" r = "5.991830011207751" stroke = "#000000" stroke-width = "5" fill = "#000000" />
    <circle cx="119" cy = "556" r = "5.991830011207751" stroke = "#000000" stroke-width = "5" fill = "#000000" />
    <circle cx="109" cy = "563" r = "5.991830011207751" stroke = "#000000" stroke-width = "5" fill = "#000000" />
    <circle cx="99" cy = "569" r = "5.991830011207751" stroke = "#000000" stroke-width = "5" fill = "#000000" />
    <circle cx="89" cy = "576" r = "5.991830011207751" stroke = "#000000" stroke-width = "5" fill = "#000000" />
    <circle cx="102" cy = "553" r = "5.991830011207751" stroke = "#000000" stroke-width = "5" fill = "#000000" />
    <circle cx="96" cy = "543" r = "5.991830011207751" stroke = "#000000" stroke-width = "5" fill = "#000000" />
    <circle cx="89" cy = "533" r = "5.991830011207751" stroke = "#000000" stroke-width = "5" fill = "#000000" />
    <circle cx="82" cy = "523" r = "5.991830011207751" stroke = "#000000" stroke-width = "5" fill = "#000000" />
    <circle cx="76" cy = "513" r = "5.991830011207751" stroke = "#000000" stroke-width = "5" fill = "#000000" />
    <circle cx="69" cy = "503" r = "5.991830011207751" stroke = "#000000" stroke-width = "5" fill = "#000000" />
	<path d = "M302 852 L309 848 L344 901 L358 892 L356 903 L353 914 L351 925 L340 923 L329 921 L318 919 L325 914 L331 910 L296 857 L302 852 Z" stroke = "#ff0000" stroke-width = "1" fill = "#ff0000" />	<path d = "M254 862 L262 863 L250 926 L265 929 L256 935 L246 942 L237 948 L231 939 L224 929 L218 920 L226 921 L234 923 L246 860 L254 862 Z" stroke = "#008000" stroke-width = "1" fill = "#008000" />	<path d = "M213 834 L218 841 L165 877 L174 890 L162 888 L151 886 L140 883 L142 872 L145 861 L147 850 L151 857 L156 863 L209 828 L213 834 Z" stroke = "#0000ff" stroke-width = "1" fill = "#0000ff" />	<path d = "M204 786 L202 794 L140 782 L136 798 L130 788 L124 779 L118 769 L127 763 L136 757 L146 750 L144 758 L143 766 L205 779 L204 786 Z" stroke = "#800080" stroke-width = "1" fill = "#800080" />	<path d = "M231 746 L224 750 L189 697 L176 706 L178 695 L180 684 L182 673 L193 675 L204 677 L216 679 L209 684 L202 688 L238 741 L231 746 Z" stroke = "#ff0000" stroke-width = "1" fill = "#ff0000" />	<path d = "M279 736 L271 735 L284 672 L268 669 L278 662 L287 656 L296 650 L303 659 L309 669 L315 678 L307 676 L300 675 L287 738 L279 736 Z" stroke = "#008000" stroke-width = "1" fill = "#008000" />	<path d = "M320 763 L315 757 L369 721 L360 708 L371 710 L382 712 L393 714 L391 726 L389 737 L386 748 L382 741 L378 734 L324 770 L320 763 Z" stroke = "#0000ff" stroke-width = "1" fill = "#0000ff" />	<path d = "M329 811 L331 804 L394 816 L397 800 L403 810 L410 819 L416 829 L406 835 L397 841 L388 847 L389 840 L391 832 L328 819 L329 811 Z" stroke = "#800080" stroke-width = "1" fill = "#800080" />    <circle cx="307" cy = "816" r = "5.991830011207751" stroke = "#000000" stroke-width = "5" fill = "#000000" />
    <circle cx="297" cy = "822" r = "5.991830011207751" stroke = "#000000" stroke-width = "5" fill = "#000000" />
    <circle cx="287" cy = "829" r = "5.991830011207751" stroke = "#000000" stroke-width = "5" fill = "#000000" />
    <circle cx="277" cy = "835" r = "5.991830011207751" stroke = "#000000" stroke-width = "5" fill = "#000000" />
    <circle cx="267" cy = "842" r = "5.991830011207751" stroke = "#000000" stroke-width = "5" fill = "#000000" />
    <circle cx="280" cy = "819" r = "5.991830011207751" stroke = "#000000" stroke-width = "5" fill = "#000000" />
    <circle cx="273" cy = "809" r = "5.991830011207751" stroke = "#000000" stroke-width = "5" fill = "#000000" />
    <circle cx="267" cy = "799" r = "5.991830011207751" stroke = "#000000" stroke-width = "5" fill = "#000000" />
    <circle cx="260" cy = "789" r = "5.991830011207751" stroke = "#000000" stroke-width = "5" fill = "#000000" />
    <circle cx="253" cy = "779" r = "5.991830011207751" stroke = "#000000" stroke-width = "5" fill = "#000000" />
    <circle cx="247" cy = "769" r = "5.991830011207751" stroke = "#000000" stroke-width = "5" fill = "#000000" />
	<path d = "M-53 320 L-47 315 L-11 369 L2 360 L0 371 L-2 382 L-4 393 L-16 391 L-27 389 L-38 386 L-31 382 L-24 378 L-60 324 L-53 320 Z" stroke = "#ff0000" stroke-width = "1" fill = "#ff0000" />	<path d = "M-101 329 L-94 331 L-106 394 L-90 397 L-100 403 L-109 410 L-119 416 L-125 406 L-131 397 L-137 388 L-130 389 L-122 391 L-109 328 L-101 329 Z" stroke = "#008000" stroke-width = "1" fill = "#008000" />	<path d = "M-142 302 L-138 309 L-191 344 L-182 358 L-193 356 L-204 353 L-215 351 L-213 340 L-211 329 L-209 318 L-204 325 L-200 331 L-147 296 L-142 302 Z" stroke = "#0000ff" stroke-width = "1" fill = "#0000ff" />	<path d = "M-152 254 L-153 262 L-216 250 L-219 265 L-225 256 L-232 246 L-238 237 L-229 231 L-219 224 L-210 218 L-211 226 L-213 234 L-150 246 L-152 254 Z" stroke = "#800080" stroke-width = "1" fill = "#800080" />	<path d = "M-124 213 L-131 218 L-167 165 L-180 174 L-178 162 L-176 151 L-173 140 L-162 142 L-151 145 L-140 147 L-147 151 L-153 156 L-118 209 L-124 213 Z" stroke = "#ff0000" stroke-width = "1" fill = "#ff0000" />	<path d = "M-76 204 L-84 202 L-72 140 L-88 136 L-78 130 L-69 124 L-59 118 L-53 127 L-47 136 L-40 146 L-48 144 L-56 143 L-69 205 L-76 204 Z" stroke = "#008000" stroke-width = "1" fill = "#008000" />	<path d = "M-36 231 L-40 224 L13 189 L4 176 L15 178 L26 180 L37 182 L35 193 L33 204 L31 216 L26 209 L22 202 L-31 238 L-36 231 Z" stroke = "#0000ff" stroke-width = "1" fill = "#0000ff" />	<path d = "M-26 279 L-25 271 L38 284 L41 268 L48 278 L54 287 L60 296 L51 303 L41 309 L32 315 L34 307 L35 300 L-28 287 L-26 279 Z" stroke = "#800080" stroke-width = "1" fill = "#800080" />    <circle cx="-49" cy = "283" r = "5.991830011207751" stroke = "#000000" stroke-width = "5" fill = "#000000" />
    <circle cx="-59" cy = "290" r = "5.991830011207751" stroke = "#000000" stroke-width = "5" fill = "#000000" />
    <circle cx="-69" cy = "297" r = "5.991830011207751" stroke = "#000000" stroke-width = "5" fill = "#000000" />
    <circle cx="-79" cy = "303" r = "5.991830011207751" stroke = "#000000" stroke-width = "5" fill = "#000000" />
    <circle cx="-89" cy = "310" r = "5.991830011207751" stroke = "#000000" stroke-width = "5" fill = "#000000" />
    <circle cx="-76" cy = "287" r = "5.991830011207751" stroke = "#000000" stroke-width = "5" fill = "#000000" />
    <circle cx="-82" cy = "277" r = "5.991830011207751" stroke = "#000000" stroke-width = "5" fill = "#000000" />
    <circle cx="-89" cy = "267" r = "5.991830011207751" stroke = "#000000" stroke-width = "5" fill = "#000000" />
    <circle cx="-96" cy = "257" r = "5.991830011207751" stroke = "#000000" stroke-width = "5" fill = "#000000" />
    <circle cx="-102" cy = "247" r = "5.991830011207751" stroke = "#000000" stroke-width = "5" fill = "#000000" />
    <circle cx="-109" cy = "237" r = "5.991830011207751" stroke = "#000000" stroke-width = "5" fill = "#000000" />
	<path d = "M213 142 L219 138 L255 191 L268 182 L266 193 L264 204 L262 215 L251 213 L239 211 L228 209 L235 204 L242 200 L206 147 L213 142 Z" stroke = "#ff0000" stroke-width = "1" fill = "#ff0000" />	<path d = "M165 152 L173 153 L160 216 L176 219 L166 225 L157 232 L148 238 L141 229 L135 219 L129 210 L137 211 L144 213 L157 150 L165 152 Z" stroke = "#008000" stroke-width = "1" fill = "#008000" />	<path d = "M124 124 L128 131 L75 167 L84 180 L73 178 L62 176 L51 173 L53 162 L55 151 L57 140 L62 147 L66 153 L120 118 L124 124 Z" stroke = "#0000ff" stroke-width = "1" fill = "#0000ff" />	<path d = "M114 76 L113 84 L50 72 L47 87 L41 78 L34 69 L28 59 L37 53 L47 47 L56 40 L55 48 L53 56 L116 69 L114 76 Z" stroke = "#800080" stroke-width = "1" fill = "#800080" />	<path d = "M142 36 L135 40 L99 -13 L86 -4 L88 -15 L91 -26 L93 -38 L104 -35 L115 -33 L126 -31 L119 -26 L113 -22 L148 31 L142 36 Z" stroke = "#ff0000" stroke-width = "1" fill = "#ff0000" />	<path d = "M190 26 L182 25 L194 -38 L179 -41 L188 -48 L197 -54 L207 -60 L213 -51 L219 -41 L226 -32 L218 -34 L210 -35 L198 28 L190 26 Z" stroke = "#008000" stroke-width = "1" fill = "#008000" />	<path d = "M230 53 L226 47 L279 11 L270 -2 L281 0 L292 2 L304 4 L301 16 L299 27 L297 38 L293 31 L288 24 L235 60 L230 53 Z" stroke = "#0000ff" stroke-width = "1" fill = "#0000ff" />	<path d = "M240 101 L242 94 L304 106 L307 90 L314 100 L320 109 L326 119 L317 125 L307 131 L298 137 L300 130 L301 122 L238 109 L240 101 Z" stroke = "#800080" stroke-width = "1" fill = "#800080" />    <circle cx="217" cy = "105" r = "5.991830011207751" stroke = "#000000" stroke-width = "5" fill = "#000000" />
    <circle cx="207" cy = "112" r = "5.991830011207751" stroke = "#000000" stroke-width = "5" fill = "#000000" />
    <circle cx="197" cy = "119" r = "5.991830011207751" stroke = "#000000" stroke-width = "5" fill = "#000000" />
    <circle cx="187" cy = "125" r = "5.991830011207751" stroke = "#000000" stroke-width = "5" fill = "#000000" />
    <circle cx="177" cy = "132" r = "5.991830011207751" stroke = "#000000" stroke-width = "5" fill = "#000000" />
    <circle cx="190" cy = "109" r = "5.991830011207751" stroke = "#000000" stroke-width = "5" fill = "#000000" />
    <circle cx="184" cy = "99" r = "5.991830011207751" stroke = "#000000" stroke-width = "5" fill = "#000000" />
    <circle cx="177" cy = "89" r = "5.991830011207751" stroke = "#000000" stroke-width = "5" fill = "#000000" />
    <circle cx="171" cy = "79" r = "5.991830011207751" stroke = "#000000" stroke-width = "5" fill = "#000000" />
    <circle cx="164" cy = "69" r = "5.991830011207751" stroke = "#000000" stroke-width = "5" fill = "#000000" />
    <circle cx="157" cy = "59" r = "5.991830011207751" stroke = "#000000" stroke-width = "5" fill = "#000000" />
	<path d = "M657 230 L663 226 L699 279 L712 270 L710 281 L708 292 L706 304 L694 301 L683 299 L672 297 L679 293 L686 288 L650 235 L657 230 Z" stroke = "#ff0000" stroke-width = "1" fill = "#ff0000" />	<path d = "M609 240 L616 242 L604 304 L620 307 L610 314 L601 320 L591 326 L585 317 L579 307 L573 298 L580 300 L588 301 L601 238 L609 240 Z" stroke = "#008000" stroke-width = "1" fill = "#008000" />	<path d = "M568 213 L572 219 L519 255 L528 268 L517 266 L506 264 L495 262 L497 251 L499 239 L501 228 L506 235 L510 242 L563 206 L568 213 Z" stroke = "#0000ff" stroke-width = "1" fill = "#0000ff" />	<path d = "M558 165 L557 173 L494 160 L491 176 L485 166 L478 157 L472 148 L481 141 L491 135 L500 129 L499 137 L497 144 L560 157 L558 165 Z" stroke = "#800080" stroke-width = "1" fill = "#800080" />	<path d = "M586 124 L579 128 L543 75 L530 84 L532 73 L534 62 L537 51 L548 53 L559 55 L570 57 L563 62 L557 66 L592 120 L586 124 Z" stroke = "#ff0000" stroke-width = "1" fill = "#ff0000" />	<path d = "M634 114 L626 113 L638 50 L623 47 L632 41 L641 34 L651 28 L657 37 L663 47 L670 56 L662 55 L654 53 L641 116 L634 114 Z" stroke = "#008000" stroke-width = "1" fill = "#008000" />	<path d = "M674 142 L670 135 L723 99 L714 86 L725 88 L736 91 L748 93 L745 104 L743 115 L741 126 L736 119 L732 113 L679 148 L674 142 Z" stroke = "#0000ff" stroke-width = "1" fill = "#0000ff" />	<path d = "M684 190 L685 182 L748 194 L751 179 L758 188 L764 197 L770 207 L761 213 L751 219 L742 226 L744 218 L745 210 L682 198 L684 190 Z" stroke = "#800080" stroke-width = "1" fill = "#800080" />    <circle cx="661" cy = "194" r = "5.991830011207751" stroke = "#000000" stroke-width = "5" fill = "#000000" />
    <circle cx="651" cy = "200" r = "5.991830011207751" stroke = "#000000" stroke-width = "5" fill = "#000000" />
    <circle cx="641" cy = "207" r = "5.991830011207751" stroke = "#000000" stroke-width = "5" fill = "#000000" />
    <circle cx="631" cy = "214" r = "5.991830011207751" stroke = "#000000" stroke-width = "5" fill = "#000000" />
    <circle cx="621" cy = "220" r = "5.991830011207751" stroke = "#000000" stroke-width = "5" fill = "#000000" />
    <circle cx="634" cy = "197" r = "5.991830011207751" stroke = "#000000" stroke-width = "5" fill = "#000000" />
    <circle cx="628" cy = "187" r = "5.991830011207751" stroke = "#000000" stroke-width = "5" fill = "#000000" />
    <circle cx="621" cy = "177" r = "5.991830011207751" stroke = "#000000" stroke-width = "5" fill = "#000000" />
    <circle cx="614" cy = "167" r = "5.991830011207751" stroke = "#000000" stroke-width = "5" fill = "#000000" />
    <circle cx="608" cy = "157" r = "5.991830011207751" stroke = "#000000" stroke-width = "5" fill = "#000000" />
    <circle cx="601" cy = "147" r = "5.991830011207751" stroke = "#000000" stroke-width = "5" fill = "#000000" />
	<path d = "M479 -36 L486 -40 L521 13 L534 4 L532 15 L530 26 L528 37 L517 35 L506 33 L494 31 L501 26 L508 22 L472 -31 L479 -36 Z" stroke = "#ff0000" stroke-width = "1" fill = "#ff0000" />	<path d = "M431 -26 L439 -25 L426 38 L442 41 L432 48 L423 54 L414 60 L407 51 L401 41 L395 32 L403 34 L410 35 L423 -28 L431 -26 Z" stroke = "#008000" stroke-width = "1" fill = "#008000" />	<path d = "M390 -53 L395 -47 L341 -11 L350 2 L339 0 L328 -2 L317 -4 L319 -16 L321 -27 L324 -38 L328 -31 L332 -24 L386 -60 L390 -53 Z" stroke = "#0000ff" stroke-width = "1" fill = "#0000ff" />	<path d = "M381 -101 L379 -94 L316 -106 L313 -90 L307 -100 L300 -109 L294 -119 L304 -125 L313 -131 L322 -137 L321 -130 L319 -122 L382 -109 L381 -101 Z" stroke = "#800080" stroke-width = "1" fill = "#800080" />	<path d = "M408 -142 L401 -138 L366 -191 L352 -182 L354 -193 L357 -204 L359 -215 L370 -213 L381 -211 L392 -209 L385 -204 L379 -200 L414 -147 L408 -142 Z" stroke = "#ff0000" stroke-width = "1" fill = "#ff0000" />	<path d = "M456 -152 L448 -153 L460 -216 L445 -219 L454 -225 L464 -232 L473 -238 L479 -229 L486 -219 L492 -210 L484 -211 L476 -213 L464 -150 L456 -152 Z" stroke = "#008000" stroke-width = "1" fill = "#008000" />	<path d = "M497 -124 L492 -131 L545 -167 L536 -180 L548 -178 L559 -176 L570 -173 L568 -162 L565 -151 L563 -140 L559 -147 L554 -153 L501 -118 L497 -124 Z" stroke = "#0000ff" stroke-width = "1" fill = "#0000ff" />	<path d = "M506 -76 L508 -84 L570 -72 L574 -88 L580 -78 L586 -69 L592 -59 L583 -53 L574 -47 L564 -40 L566 -48 L567 -56 L505 -69 L506 -76 Z" stroke = "#800080" stroke-width = "1" fill = "#800080" />    <circle cx="483" cy = "-72" r = "5.991830011207751" stroke = "#000000" stroke-width = "5" fill = "#000000" />
    <circle cx="473" cy = "-66" r = "5.991830011207751" stroke = "#000000" stroke-width = "5" fill = "#000000" />
    <circle cx="463" cy = "-59" r = "5.991830011207751" stroke = "#000000" stroke-width = "5" fill = "#000000" />
    <circle cx="453" cy = "-52" r = "5.991830011207751" stroke = "#000000" stroke-width = "5" fill = "#000000" />
    <circle cx="443" cy = "-46" r = "5.991830011207751" stroke = "#000000" stroke-width = "5" fill = "#000000" />
    <circle cx="457" cy = "-69" r = "5.991830011207751" stroke = "#000000" stroke-width = "5" fill = "#000000" />
    <circle cx="450" cy = "-79" r = "5.991830011207751" stroke = "#000000" stroke-width = "5" fill = "#000000" />
    <circle cx="443" cy = "-89" r = "5.991830011207751" stroke = "#000000" stroke-width = "5" fill = "#000000" />
    <circle cx="437" cy = "-99" r = "5.991830011207751" stroke = "#000000" stroke-width = "5" fill = "#000000" />
    <circle cx="430" cy = "-109" r = "5.991830011207751" stroke = "#000000" stroke-width = "5" fill = "#000000" />
    <circle cx="423" cy = "-119" r = "5.991830011207751" stroke = "#000000" stroke-width = "5" fill = "#000000" />
	<path d = "M834 497 L841 492 L877 545 L890 536 L888 548 L886 559 L883 570 L872 568 L861 565 L850 563 L857 559 L863 554 L828 501 L834 497 Z" stroke = "#ff0000" stroke-width = "1" fill = "#ff0000" />	<path d = "M786 506 L794 508 L782 570 L798 574 L788 580 L779 586 L769 592 L763 583 L757 574 L750 564 L758 566 L766 567 L779 505 L786 506 Z" stroke = "#008000" stroke-width = "1" fill = "#008000" />	<path d = "M746 479 L750 486 L697 521 L706 534 L695 532 L684 530 L673 528 L675 517 L677 506 L679 494 L684 501 L688 508 L741 472 L746 479 Z" stroke = "#0000ff" stroke-width = "1" fill = "#0000ff" />	<path d = "M736 431 L735 439 L672 426 L669 442 L662 432 L656 423 L650 414 L659 407 L669 401 L678 395 L676 403 L675 410 L738 423 L736 431 Z" stroke = "#800080" stroke-width = "1" fill = "#800080" />	<path d = "M763 390 L757 395 L721 341 L708 350 L710 339 L712 328 L714 317 L726 319 L737 321 L748 324 L741 328 L734 332 L770 386 L763 390 Z" stroke = "#ff0000" stroke-width = "1" fill = "#ff0000" />	<path d = "M811 381 L804 379 L816 316 L800 313 L810 307 L819 300 L829 294 L835 304 L841 313 L847 322 L840 321 L832 319 L819 382 L811 381 Z" stroke = "#008000" stroke-width = "1" fill = "#008000" />	<path d = "M852 408 L848 401 L901 366 L892 352 L903 354 L914 357 L925 359 L923 370 L921 381 L919 392 L914 385 L910 379 L857 414 L852 408 Z" stroke = "#0000ff" stroke-width = "1" fill = "#0000ff" />	<path d = "M862 456 L863 448 L926 460 L929 445 L935 454 L942 464 L948 473 L939 479 L929 486 L920 492 L921 484 L923 476 L860 464 L862 456 Z" stroke = "#800080" stroke-width = "1" fill = "#800080" />    <circle cx="839" cy = "460" r = "5.991830011207751" stroke = "#000000" stroke-width = "5" fill = "#000000" />
    <circle cx="829" cy = "467" r = "5.991830011207751" stroke = "#000000" stroke-width = "5" fill = "#000000" />
    <circle cx="819" cy = "473" r = "5.991830011207751" stroke = "#000000" stroke-width = "5" fill = "#000000" />
    <circle cx="809" cy = "480" r = "5.991830011207751" stroke = "#000000" stroke-width = "5" fill = "#000000" />
    <circle cx="799" cy = "487" r = "5.991830011207751" stroke = "#000000" stroke-width = "5" fill = "#000000" />
    <circle cx="812" cy = "463" r = "5.991830011207751" stroke = "#000000" stroke-width = "5" fill = "#000000" />
    <circle cx="806" cy = "453" r = "5.991830011207751" stroke = "#000000" stroke-width = "5" fill = "#000000" />
    <circle cx="799" cy = "443" r = "5.991830011207751" stroke = "#000000" stroke-width = "5" fill = "#000000" />
    <circle cx="792" cy = "433" r = "5.991830011207751" stroke = "#000000" stroke-width = "5" fill = "#000000" />
    <circle cx="786" cy = "423" r = "5.991830011207751" stroke = "#000000" stroke-width = "5" fill = "#000000" />
    <circle cx="779" cy = "413" r = "5.991830011207751" stroke = "#000000" stroke-width = "5" fill = "#000000" />
</svg>