<svg width="710" height="710" viewbox = "0 0 710 710"  xmlns="http://www.w3.org/2000/svg">
<!--<json>{
  "glyph": "0350,0350,0350,0335,0335,0335,0335,0335,0335,0335,0335,0335,0335,0335,0335,0335,0335,0335,0335,0335,0335,0335,0335,0335,0335,0335,0335,0335,0335,0335,0335,0335,0335,0335,0335,0335,0335,0335,0335,0335,0335,0335,0335,0335,0335,0335,0335,0335,0304,0224,0330,0330,0330,0330,0330,0224,0331,0331,0331,0331,0331,0333,0333,0333,0333,0333,0224,0330,0330,0330,0330,0330,0224,0331,0331,0331,0331,0331,0331,0331,0331,0331,0331,0224,0332,0332,0332,0332,0332,0224,0330,0330,0330,0330,0330,0332,0332,0332,0332,0332,0224,0331,0331,0331,0331,0331,0224,0330,0330,0330,0330,0330,0330,0330,0330,0330,0330,0224,",
  "x0": 355,
  "y0": 355,
  "unit": 2176.6614722318914,
  "width": 710,
  "height": 710,
  "style": {
    "color0": "black",
    "fill0": "black",
    "line0": 1,
    "color1": "black",
    "fill1": "black",
    "line1": 5,
    "color2": "red",
    "fill2": "red",
    "line2": 1,
    "color3": "#FF7900",
    "fill3": "#FF7900",
    "line3": 1,
    "color4": "yellow",
    "fill4": "yellow",
    "line4": 1,
    "color5": "green",
    "fill5": "green",
    "line5": 1,
    "color6": "blue",
    "fill6": "blue",
    "line6": 1,
    "color7": "purple",
    "fill7": "purple",
    "line7": 1
  },
  "shapes": [
    "0220:0370,0336,0336,0331,0332,0336,0331,0332,0337,0337,0337,01124,0371,",
    "0221:0336,0336,0336,0334,0362,0203,0335,0337,0337,0337,0203,0334,0336,0336,0203,0336,0335,0350,0335,0310,0337,0203,0203,0203,0335,0335,0203,0203,0203,0335,0335,0335,0336,0203,0203,0334,0334,0313,0304,0337,0337,0337,0203,0335,0336,0336,0336,0203,0363,0335,0337,0337,0337,",
    "0222:0330,0221,0331,0350,0335,0304,",
    "0223:0222,0222,0222,0222,0222,0222,0222,0222,0211,0211,0211,0220,0210,0210,0210,",
    "0224:0322,0222,0325,0222,0326,0222,0327,0222,0322,0222,0325,0222,0326,0222,0327,0222,0321,0211,0211,0211,0220,0210,0210,0210,0320,",
    "0225:0525,",
    "0226:0526,",
    "0227:0527,",
    "0230:0530,",
    "0231:0531,",
    "0232:0532,",
    "0233:0533,",
    "0234:0331,0534,",
    "0235:0535,",
    "0236:0536,",
    "0237:0220,0336,0331,0332,0336,0321,0342,0335,0342,0335,0342,0335,0342,0335,0330,0330,0333,0333,0337,0337,",
    "01220:0333,0200,0336,0330,0332,0336,0220,0337,0331,0333,0337,",
    "01221:0333,0200,0336,0330,0332,0336,0221,0337,0331,0333,0337,",
    "01222:0333,0200,0336,0330,0332,0336,0222,0222,0222,0350,0335,0304,0337,0335,0335,0331,0333,0337,",
    "01223:0333,0200,0336,0330,0332,0336,0223,0337,0331,0333,0337,",
    "01224:0333,0200,",
    "01225:0333,0200,",
    "01226:0333,0200,",
    "01227:0333,0200,",
    "01230:0333,0200,",
    "01231:0333,0200,",
    "01232:0333,0200,",
    "01233:0333,0200,",
    "01234:0333,0200,0336,0336,0330,0330,0330,0234,0331,0331,0333,0333,0331,0331,0333,0333,0337,0337,0333,0333,0333,",
    "01235:0333,0200,0336,0336,0330,0235,0331,0333,0337,0337,",
    "01236:0333,0200,",
    "01237:0333,0200,",
    "0240:0220,0336,0331,0333,0336,0321,0335,0342,0335,0335,0342,0335,0330,0330,0332,0332,0337,0337,",
    "01240:0333,0200,0336,0330,0332,0210,0240,0211,0333,0331,0337,",
    "0241:0220,0336,0321,0343,0332,0350,0335,0336,0342,0334,0334,0342,0335,0304,0337,0333,0337,",
    "01241:0333,0200,0336,0332,0330,0210,0241,0211,0333,0331,0337,",
    "0242:0220,0321,0336,0343,0333,0336,0350,0335,0342,0334,0334,0342,0335,0337,0304,0332,0337,",
    "01242:0333,0200,0336,0330,0332,0210,0242,0211,0333,0331,0337,",
    "0243:0220,0336,0331,0332,0336,0321,0343,0332,0350,0334,0336,0342,0335,0335,0342,0337,0334,0334,0335,0304,0332,0330,0330,0337,0337,0333,",
    "01243:0333,0200,0336,0330,0332,0210,0243,0211,0333,0331,0337,",
    "0244:0220,0336,0331,0333,0336,0321,0343,0333,0350,0336,0335,0342,0334,0334,0342,0335,0337,0304,0333,0330,0330,0337,0337,0332,",
    "01244:0333,0200,0336,0330,0332,0210,0244,0211,0333,0331,0337,",
    "0245:0210,0332,0332,0362,0335,0203,0203,0203,0203,0334,0203,0363,0332,0332,0331,0211,",
    "01245:0333,0200,0336,0330,0332,0336,0245,0337,0333,0331,0337,",
    "0246:0210,0332,0332,0335,0306,0336,0330,0335,0335,0335,0321,0362,0203,0335,0335,0203,0364,0331,0350,0335,0337,0366,0333,0333,0333,0333,0334,0334,0334,0334,0367,0335,0336,0342,0334,0334,0342,0330,0330,0330,0330,0335,0335,0335,0304,0337,0211,",
    "01246:0333,0200,0336,0330,0332,0336,0246,",
    "0247:0330,0332,0336,0332,0336,0221,0333,0333,0333,0222,0333,0333,0333,0223,0333,0333,0333,0225,0333,0331,0331,0331,0332,0332,0332,0332,0332,0332,0332,0332,0332,0332,0332,0332,0333,0333,0226,0331,0331,0331,0333,0333,0333,0333,0333,0333,0333,0333,0333,0333,0333,0333,0333,0330,0333,0330,0330,0333,0330,0331,0332,0332,0332,0332,0332,0332,0332,0332,0332,0332,0332,0332,0227,0333,0333,0333,0230,0333,0331,0331,0331,0331,0332,0332,0332,0330,0332,0332,0332,0332,0332,0332,0333,0333,0231,0333,0333,0333,0232,0331,0333,0330,0333,0333,0233,0333,0333,0333,0234,0330,0330,0332,0330,0332,0332,0337,0337,",
    "01247:0333,0200,0336,0330,0332,0220,0336,0247,0337,0331,0333,0337,"
  ]
}</json>-->	<path d = "M1564 2165 L1791 2014 L3000 3823 L3452 3521 L3377 3899 L3302 4276 L3227 4653 L2850 4578 L2472 4503 L2095 4428 L2321 4277 L2547 4126 L1338 2316 L1564 2165 Z" stroke = "#ff0000" stroke-width = "1" fill = "#ff0000" />	<path d = "M-70 2490 L197 2543 L-227 4678 L306 4784 L-14 4998 L-334 5211 L-654 5425 L-867 5105 L-1081 4785 L-1295 4465 L-1028 4519 L-761 4572 L-337 2437 L-70 2490 Z" stroke = "#008000" stroke-width = "1" fill = "#008000" />	<path d = "M-1455 1564 L-1304 1791 L-3113 3000 L-2811 3452 L-3189 3377 L-3566 3302 L-3943 3227 L-3868 2850 L-3793 2472 L-3718 2095 L-3567 2321 L-3416 2547 L-1606 1338 L-1455 1564 Z" stroke = "#0000ff" stroke-width = "1" fill = "#0000ff" />	<path d = "M-1780 -70 L-1833 197 L-3968 -227 L-4074 306 L-4288 -14 L-4501 -334 L-4715 -654 L-4395 -867 L-4075 -1081 L-3755 -1295 L-3809 -1028 L-3862 -761 L-1727 -337 L-1780 -70 Z" stroke = "#800080" stroke-width = "1" fill = "#800080" />	<path d = "M-854 -1455 L-1081 -1304 L-2290 -3113 L-2742 -2811 L-2667 -3189 L-2592 -3566 L-2517 -3943 L-2140 -3868 L-1762 -3793 L-1385 -3718 L-1611 -3567 L-1837 -3416 L-628 -1606 L-854 -1455 Z" stroke = "#ff0000" stroke-width = "1" fill = "#ff0000" />	<path d = "M780 -1780 L513 -1833 L937 -3968 L404 -4074 L724 -4288 L1044 -4501 L1364 -4715 L1577 -4395 L1791 -4075 L2005 -3755 L1738 -3809 L1471 -3862 L1047 -1727 L780 -1780 Z" stroke = "#008000" stroke-width = "1" fill = "#008000" />	<path d = "M2165 -854 L2014 -1081 L3823 -2290 L3521 -2742 L3899 -2667 L4276 -2592 L4653 -2517 L4578 -2140 L4503 -1762 L4428 -1385 L4277 -1611 L4126 -1837 L2316 -628 L2165 -854 Z" stroke = "#0000ff" stroke-width = "1" fill = "#0000ff" />	<path d = "M2490 780 L2543 513 L4678 937 L4784 404 L4998 724 L5211 1044 L5425 1364 L5105 1577 L4785 1791 L4465 2005 L4519 1738 L4572 1471 L2437 1047 L2490 780 Z" stroke = "#800080" stroke-width = "1" fill = "#800080" />    <circle cx="1712" cy = "919" r = "203.74587963810598" stroke = "#000000" stroke-width = "5" fill = "#000000" />
    <circle cx="1373" cy = "1145" r = "203.74587963810598" stroke = "#000000" stroke-width = "5" fill = "#000000" />
    <circle cx="1034" cy = "1371" r = "203.74587963810598" stroke = "#000000" stroke-width = "5" fill = "#000000" />
    <circle cx="695" cy = "1598" r = "203.74587963810598" stroke = "#000000" stroke-width = "5" fill = "#000000" />
    <circle cx="357" cy = "1824" r = "203.74587963810598" stroke = "#000000" stroke-width = "5" fill = "#000000" />
    <circle cx="808" cy = "1033" r = "203.74587963810598" stroke = "#000000" stroke-width = "5" fill = "#000000" />
    <circle cx="581" cy = "694" r = "203.74587963810598" stroke = "#000000" stroke-width = "5" fill = "#000000" />
    <circle cx="355" cy = "355" r = "203.74587963810598" stroke = "#000000" stroke-width = "5" fill = "#000000" />
    <circle cx="129" cy = "16" r = "203.74587963810598" stroke = "#000000" stroke-width = "5" fill = "#000000" />
    <circle cx="-98" cy = "-323" r = "203.74587963810598" stroke = "#000000" stroke-width = "5" fill = "#000000" />
    <circle cx="-324" cy = "-661" r = "203.74587963810598" stroke = "#000000" stroke-width = "5" fill = "#000000" />
	<path d = "M7611 11214 L7837 11063 L9046 12873 L9499 12570 L9424 12948 L9349 13325 L9274 13702 L8896 13627 L8519 13552 L8141 13477 L8368 13326 L8594 13175 L7385 11365 L7611 11214 Z" stroke = "#ff0000" stroke-width = "1" fill = "#ff0000" />	<path d = "M5977 11539 L6244 11592 L5819 13727 L6353 13833 L6033 14047 L5713 14261 L5393 14474 L5179 14154 L4965 13835 L4752 13515 L5018 13568 L5285 13621 L5710 11486 L5977 11539 Z" stroke = "#008000" stroke-width = "1" fill = "#008000" />	<path d = "M4592 10613 L4743 10840 L2933 12049 L3235 12501 L2858 12426 L2480 12351 L2103 12276 L2178 11899 L2253 11521 L2328 11144 L2479 11370 L2631 11596 L4440 10387 L4592 10613 Z" stroke = "#0000ff" stroke-width = "1" fill = "#0000ff" />	<path d = "M4267 8979 L4214 9246 L2079 8822 L1973 9355 L1759 9035 L1545 8716 L1331 8396 L1651 8182 L1971 7968 L2291 7754 L2238 8021 L2185 8288 L4320 8713 L4267 8979 Z" stroke = "#800080" stroke-width = "1" fill = "#800080" />	<path d = "M5192 7594 L4966 7745 L3757 5936 L3304 6238 L3379 5861 L3454 5483 L3529 5106 L3907 5181 L4284 5256 L4662 5331 L4435 5482 L4209 5633 L5418 7443 L5192 7594 Z" stroke = "#ff0000" stroke-width = "1" fill = "#ff0000" />	<path d = "M6826 7269 L6559 7216 L6984 5081 L6450 4975 L6770 4761 L7090 4548 L7410 4334 L7624 4654 L7838 4974 L8051 5294 L7784 5241 L7518 5188 L7093 7322 L6826 7269 Z" stroke = "#008000" stroke-width = "1" fill = "#008000" />	<path d = "M8211 8195 L8060 7969 L9870 6759 L9568 6307 L9945 6382 L10322 6457 L10700 6532 L10625 6909 L10550 7287 L10475 7664 L10323 7438 L10172 7212 L8362 8421 L8211 8195 Z" stroke = "#0000ff" stroke-width = "1" fill = "#0000ff" />	<path d = "M8536 9829 L8589 9562 L10724 9987 L10830 9453 L11044 9773 L11258 10093 L11472 10413 L11152 10626 L10832 10840 L10512 11054 L10565 10787 L10618 10520 L8483 10096 L8536 9829 Z" stroke = "#800080" stroke-width = "1" fill = "#800080" />    <circle cx="7758" cy = "9968" r = "203.74587963810598" stroke = "#000000" stroke-width = "5" fill = "#000000" />
    <circle cx="7419" cy = "10194" r = "203.74587963810598" stroke = "#000000" stroke-width = "5" fill = "#000000" />
    <circle cx="7081" cy = "10421" r = "203.74587963810598" stroke = "#000000" stroke-width = "5" fill = "#000000" />
    <circle cx="6742" cy = "10647" r = "203.74587963810598" stroke = "#000000" stroke-width = "5" fill = "#000000" />
    <circle cx="6403" cy = "10873" r = "203.74587963810598" stroke = "#000000" stroke-width = "5" fill = "#000000" />
    <circle cx="6854" cy = "10082" r = "203.74587963810598" stroke = "#000000" stroke-width = "5" fill = "#000000" />
    <circle cx="6628" cy = "9743" r = "203.74587963810598" stroke = "#000000" stroke-width = "5" fill = "#000000" />
    <circle cx="6401" cy = "9404" r = "203.74587963810598" stroke = "#000000" stroke-width = "5" fill = "#000000" />
    <circle cx="6175" cy = "9065" r = "203.74587963810598" stroke = "#000000" stroke-width = "5" fill = "#000000" />
    <circle cx="5949" cy = "8727" r = "203.74587963810598" stroke = "#000000" stroke-width = "5" fill = "#000000" />
    <circle cx="5722" cy = "8388" r = "203.74587963810598" stroke = "#000000" stroke-width = "5" fill = "#000000" />
	<path d = "M-7485 8211 L-7259 8060 L-6049 9870 L-5597 9568 L-5672 9945 L-5747 10322 L-5822 10700 L-6199 10625 L-6577 10550 L-6954 10475 L-6728 10323 L-6502 10172 L-7711 8362 L-7485 8211 Z" stroke = "#ff0000" stroke-width = "1" fill = "#ff0000" />	<path d = "M-9119 8536 L-8852 8589 L-9277 10724 L-8743 10830 L-9063 11044 L-9383 11258 L-9703 11472 L-9916 11152 L-10130 10832 L-10344 10512 L-10077 10565 L-9810 10618 L-9386 8483 L-9119 8536 Z" stroke = "#008000" stroke-width = "1" fill = "#008000" />	<path d = "M-10504 7611 L-10353 7837 L-12163 9046 L-11860 9499 L-12238 9424 L-12615 9349 L-12992 9274 L-12917 8896 L-12842 8519 L-12767 8141 L-12616 8368 L-12465 8594 L-10655 7385 L-10504 7611 Z" stroke = "#0000ff" stroke-width = "1" fill = "#0000ff" />	<path d = "M-10829 5977 L-10882 6244 L-13017 5819 L-13123 6353 L-13337 6033 L-13551 5713 L-13764 5393 L-13444 5179 L-13125 4965 L-12805 4752 L-12858 5018 L-12911 5285 L-10776 5710 L-10829 5977 Z" stroke = "#800080" stroke-width = "1" fill = "#800080" />	<path d = "M-9903 4592 L-10130 4743 L-11339 2933 L-11791 3235 L-11716 2858 L-11641 2480 L-11566 2103 L-11189 2178 L-10811 2253 L-10434 2328 L-10660 2479 L-10886 2631 L-9677 4440 L-9903 4592 Z" stroke = "#ff0000" stroke-width = "1" fill = "#ff0000" />	<path d = "M-8269 4267 L-8536 4214 L-8112 2079 L-8645 1973 L-8325 1759 L-8006 1545 L-7686 1331 L-7472 1651 L-7258 1971 L-7044 2291 L-7311 2238 L-7578 2185 L-8003 4320 L-8269 4267 Z" stroke = "#008000" stroke-width = "1" fill = "#008000" />	<path d = "M-6884 5192 L-7035 4966 L-5226 3757 L-5528 3304 L-5151 3379 L-4773 3454 L-4396 3529 L-4471 3907 L-4546 4284 L-4621 4662 L-4772 4435 L-4923 4209 L-6733 5418 L-6884 5192 Z" stroke = "#0000ff" stroke-width = "1" fill = "#0000ff" />	<path d = "M-6559 6826 L-6506 6559 L-4371 6984 L-4265 6450 L-4051 6770 L-3838 7090 L-3624 7410 L-3944 7624 L-4264 7838 L-4584 8051 L-4531 7784 L-4478 7518 L-6612 7093 L-6559 6826 Z" stroke = "#800080" stroke-width = "1" fill = "#800080" />    <circle cx="-7337" cy = "6965" r = "203.74587963810598" stroke = "#000000" stroke-width = "5" fill = "#000000" />
    <circle cx="-7676" cy = "7192" r = "203.74587963810598" stroke = "#000000" stroke-width = "5" fill = "#000000" />
    <circle cx="-8015" cy = "7418" r = "203.74587963810598" stroke = "#000000" stroke-width = "5" fill = "#000000" />
    <circle cx="-8354" cy = "7644" r = "203.74587963810598" stroke = "#000000" stroke-width = "5" fill = "#000000" />
    <circle cx="-8693" cy = "7871" r = "203.74587963810598" stroke = "#000000" stroke-width = "5" fill = "#000000" />
    <circle cx="-8241" cy = "7079" r = "203.74587963810598" stroke = "#000000" stroke-width = "5" fill = "#000000" />
    <circle cx="-8468" cy = "6740" r = "203.74587963810598" stroke = "#000000" stroke-width = "5" fill = "#000000" />
    <circle cx="-8694" cy = "6401" r = "203.74587963810598" stroke = "#000000" stroke-width = "5" fill = "#000000" />
    <circle cx="-8921" cy = "6063" r = "203.74587963810598" stroke = "#000000" stroke-width = "5" fill = "#000000" />
    <circle cx="-9147" cy = "5724" r = "203.74587963810598" stroke = "#000000" stroke-width = "5" fill = "#000000" />
    <circle cx="-9373" cy = "5385" r = "203.74587963810598" stroke = "#000000" stroke-width = "5" fill = "#000000" />
	<path d = "M-1438 17260 L-1212 17109 L-3 18919 L450 18617 L374 18994 L299 19372 L224 19749 L-153 19674 L-530 19599 L-908 19524 L-682 19373 L-455 19221 L-1665 17412 L-1438 17260 Z" stroke = "#ff0000" stroke-width = "1" fill = "#ff0000" />	<path d = "M-3072 17585 L-2805 17638 L-3230 19773 L-2696 19879 L-3016 20093 L-3336 20307 L-3656 20521 L-3870 20201 L-4084 19881 L-4298 19561 L-4031 19614 L-3764 19667 L-3339 17532 L-3072 17585 Z" stroke = "#008000" stroke-width = "1" fill = "#008000" />	<path d = "M-4458 16660 L-4306 16886 L-6116 18095 L-5814 18548 L-6191 18473 L-6569 18398 L-6946 18323 L-6871 17945 L-6796 17568 L-6721 17190 L-6570 17417 L-6419 17643 L-4609 16434 L-4458 16660 Z" stroke = "#0000ff" stroke-width = "1" fill = "#0000ff" />	<path d = "M-4783 15026 L-4836 15293 L-6970 14868 L-7077 15402 L-7290 15082 L-7504 14762 L-7718 14442 L-7398 14228 L-7078 14014 L-6758 13801 L-6811 14068 L-6864 14334 L-4729 14759 L-4783 15026 Z" stroke = "#800080" stroke-width = "1" fill = "#800080" />	<path d = "M-3857 13641 L-4083 13792 L-5293 11982 L-5745 12284 L-5670 11907 L-5595 11530 L-5520 11152 L-5142 11227 L-4765 11302 L-4388 11377 L-4614 11529 L-4840 11680 L-3631 13490 L-3857 13641 Z" stroke = "#ff0000" stroke-width = "1" fill = "#ff0000" />	<path d = "M-2223 13316 L-2490 13263 L-2065 11128 L-2599 11022 L-2279 10808 L-1959 10594 L-1639 10380 L-1425 10700 L-1212 11020 L-998 11340 L-1265 11287 L-1532 11234 L-1956 13369 L-2223 13316 Z" stroke = "#008000" stroke-width = "1" fill = "#008000" />	<path d = "M-838 14241 L-989 14015 L821 12806 L518 12353 L896 12428 L1273 12503 L1651 12579 L1576 12956 L1501 13333 L1425 13711 L1274 13484 L1123 13258 L-687 14468 L-838 14241 Z" stroke = "#0000ff" stroke-width = "1" fill = "#0000ff" />	<path d = "M-513 15875 L-460 15608 L1675 16033 L1781 15499 L1995 15819 L2209 16139 L2423 16459 L2103 16673 L1783 16887 L1463 17100 L1516 16834 L1569 16567 L-566 16142 L-513 15875 Z" stroke = "#800080" stroke-width = "1" fill = "#800080" />    <circle cx="-1291" cy = "16014" r = "203.74587963810598" stroke = "#000000" stroke-width = "5" fill = "#000000" />
    <circle cx="-1630" cy = "16241" r = "203.74587963810598" stroke = "#000000" stroke-width = "5" fill = "#000000" />
    <circle cx="-1969" cy = "16467" r = "203.74587963810598" stroke = "#000000" stroke-width = "5" fill = "#000000" />
    <circle cx="-2307" cy = "16693" r = "203.74587963810598" stroke = "#000000" stroke-width = "5" fill = "#000000" />
    <circle cx="-2646" cy = "16920" r = "203.74587963810598" stroke = "#000000" stroke-width = "5" fill = "#000000" />
    <circle cx="-2195" cy = "16128" r = "203.74587963810598" stroke = "#000000" stroke-width = "5" fill = "#000000" />
    <circle cx="-2421" cy = "15789" r = "203.74587963810598" stroke = "#000000" stroke-width = "5" fill = "#000000" />
    <circle cx="-2648" cy = "15451" r = "203.74587963810598" stroke = "#000000" stroke-width = "5" fill = "#000000" />
    <circle cx="-2874" cy = "15112" r = "203.74587963810598" stroke = "#000000" stroke-width = "5" fill = "#000000" />
    <circle cx="-3100" cy = "14773" r = "203.74587963810598" stroke = "#000000" stroke-width = "5" fill = "#000000" />
    <circle cx="-3327" cy = "14434" r = "203.74587963810598" stroke = "#000000" stroke-width = "5" fill = "#000000" />
	<path d = "M-13531 -838 L-13305 -989 L-12096 821 L-11643 518 L-11718 896 L-11793 1273 L-11869 1651 L-12246 1576 L-12623 1501 L-13001 1425 L-12774 1274 L-12548 1123 L-13758 -687 L-13531 -838 Z" stroke = "#ff0000" stroke-width = "1" fill = "#ff0000" />	<path d = "M-15165 -513 L-14898 -460 L-15323 1675 L-14789 1781 L-15109 1995 L-15429 2209 L-15749 2423 L-15963 2103 L-16177 1783 L-16390 1463 L-16124 1516 L-15857 1569 L-15432 -566 L-15165 -513 Z" stroke = "#008000" stroke-width = "1" fill = "#008000" />	<path d = "M-16550 -1438 L-16399 -1212 L-18209 -3 L-17907 450 L-18284 374 L-18662 299 L-19039 224 L-18964 -153 L-18889 -530 L-18814 -908 L-18663 -682 L-18511 -455 L-16702 -1665 L-16550 -1438 Z" stroke = "#0000ff" stroke-width = "1" fill = "#0000ff" />	<path d = "M-16875 -3072 L-16928 -2805 L-19063 -3230 L-19169 -2696 L-19383 -3016 L-19597 -3336 L-19811 -3656 L-19491 -3870 L-19171 -4084 L-18851 -4298 L-18904 -4031 L-18957 -3764 L-16822 -3339 L-16875 -3072 Z" stroke = "#800080" stroke-width = "1" fill = "#800080" />	<path d = "M-15950 -4458 L-16176 -4306 L-17385 -6116 L-17838 -5814 L-17763 -6191 L-17688 -6569 L-17613 -6946 L-17235 -6871 L-16858 -6796 L-16480 -6721 L-16707 -6570 L-16933 -6419 L-15724 -4609 L-15950 -4458 Z" stroke = "#ff0000" stroke-width = "1" fill = "#ff0000" />	<path d = "M-14316 -4783 L-14583 -4836 L-14158 -6970 L-14692 -7077 L-14372 -7290 L-14052 -7504 L-13732 -7718 L-13518 -7398 L-13304 -7078 L-13091 -6758 L-13358 -6811 L-13624 -6864 L-14049 -4729 L-14316 -4783 Z" stroke = "#008000" stroke-width = "1" fill = "#008000" />	<path d = "M-12931 -3857 L-13082 -4083 L-11272 -5293 L-11574 -5745 L-11197 -5670 L-10820 -5595 L-10442 -5520 L-10517 -5142 L-10592 -4765 L-10667 -4388 L-10819 -4614 L-10970 -4840 L-12780 -3631 L-12931 -3857 Z" stroke = "#0000ff" stroke-width = "1" fill = "#0000ff" />	<path d = "M-12606 -2223 L-12553 -2490 L-10418 -2065 L-10312 -2599 L-10098 -2279 L-9884 -1959 L-9670 -1639 L-9990 -1425 L-10310 -1212 L-10630 -998 L-10577 -1265 L-10524 -1532 L-12659 -1956 L-12606 -2223 Z" stroke = "#800080" stroke-width = "1" fill = "#800080" />    <circle cx="-13384" cy = "-2084" r = "203.74587963810598" stroke = "#000000" stroke-width = "5" fill = "#000000" />
    <circle cx="-13723" cy = "-1858" r = "203.74587963810598" stroke = "#000000" stroke-width = "5" fill = "#000000" />
    <circle cx="-14061" cy = "-1631" r = "203.74587963810598" stroke = "#000000" stroke-width = "5" fill = "#000000" />
    <circle cx="-14400" cy = "-1405" r = "203.74587963810598" stroke = "#000000" stroke-width = "5" fill = "#000000" />
    <circle cx="-14739" cy = "-1178" r = "203.74587963810598" stroke = "#000000" stroke-width = "5" fill = "#000000" />
    <circle cx="-14288" cy = "-1970" r = "203.74587963810598" stroke = "#000000" stroke-width = "5" fill = "#000000" />
    <circle cx="-14514" cy = "-2309" r = "203.74587963810598" stroke = "#000000" stroke-width = "5" fill = "#000000" />
    <circle cx="-14741" cy = "-2648" r = "203.74587963810598" stroke = "#000000" stroke-width = "5" fill = "#000000" />
    <circle cx="-14967" cy = "-2987" r = "203.74587963810598" stroke = "#000000" stroke-width = "5" fill = "#000000" />
    <circle cx="-15193" cy = "-3325" r = "203.74587963810598" stroke = "#000000" stroke-width = "5" fill = "#000000" />
    <circle cx="-15420" cy = "-3664" r = "203.74587963810598" stroke = "#000000" stroke-width = "5" fill = "#000000" />
	<path d = "M-4482 -6884 L-4256 -7035 L-3047 -5226 L-2594 -5528 L-2669 -5151 L-2744 -4773 L-2819 -4396 L-3197 -4471 L-3574 -4546 L-3952 -4621 L-3725 -4772 L-3499 -4923 L-4708 -6733 L-4482 -6884 Z" stroke = "#ff0000" stroke-width = "1" fill = "#ff0000" />	<path d = "M-6116 -6559 L-5849 -6506 L-6274 -4371 L-5740 -4265 L-6060 -4051 L-6380 -3838 L-6700 -3624 L-6914 -3944 L-7128 -4264 L-7341 -4584 L-7074 -4531 L-6808 -4478 L-6383 -6612 L-6116 -6559 Z" stroke = "#008000" stroke-width = "1" fill = "#008000" />	<path d = "M-7501 -7485 L-7350 -7259 L-9160 -6049 L-8858 -5597 L-9235 -5672 L-9612 -5747 L-9990 -5822 L-9915 -6199 L-9840 -6577 L-9765 -6954 L-9613 -6728 L-9462 -6502 L-7652 -7711 L-7501 -7485 Z" stroke = "#0000ff" stroke-width = "1" fill = "#0000ff" />	<path d = "M-7826 -9119 L-7879 -8852 L-10014 -9277 L-10120 -8743 L-10334 -9063 L-10548 -9383 L-10762 -9703 L-10442 -9916 L-10122 -10130 L-9802 -10344 L-9855 -10077 L-9908 -9810 L-7773 -9386 L-7826 -9119 Z" stroke = "#800080" stroke-width = "1" fill = "#800080" />	<path d = "M-6901 -10504 L-7127 -10353 L-8336 -12163 L-8789 -11860 L-8714 -12238 L-8639 -12615 L-8564 -12992 L-8186 -12917 L-7809 -12842 L-7431 -12767 L-7658 -12616 L-7884 -12465 L-6675 -10655 L-6901 -10504 Z" stroke = "#ff0000" stroke-width = "1" fill = "#ff0000" />	<path d = "M-5267 -10829 L-5534 -10882 L-5109 -13017 L-5643 -13123 L-5323 -13337 L-5003 -13551 L-4683 -13764 L-4469 -13444 L-4255 -13125 L-4042 -12805 L-4308 -12858 L-4575 -12911 L-5000 -10776 L-5267 -10829 Z" stroke = "#008000" stroke-width = "1" fill = "#008000" />	<path d = "M-3882 -9903 L-4033 -10130 L-2223 -11339 L-2525 -11791 L-2148 -11716 L-1770 -11641 L-1393 -11566 L-1468 -11189 L-1543 -10811 L-1618 -10434 L-1769 -10660 L-1921 -10886 L-3730 -9677 L-3882 -9903 Z" stroke = "#0000ff" stroke-width = "1" fill = "#0000ff" />	<path d = "M-3557 -8269 L-3504 -8536 L-1369 -8112 L-1263 -8645 L-1049 -8325 L-835 -8006 L-621 -7686 L-941 -7472 L-1261 -7258 L-1581 -7044 L-1528 -7311 L-1475 -7578 L-3610 -8003 L-3557 -8269 Z" stroke = "#800080" stroke-width = "1" fill = "#800080" />    <circle cx="-4335" cy = "-8130" r = "203.74587963810598" stroke = "#000000" stroke-width = "5" fill = "#000000" />
    <circle cx="-4673" cy = "-7904" r = "203.74587963810598" stroke = "#000000" stroke-width = "5" fill = "#000000" />
    <circle cx="-5012" cy = "-7678" r = "203.74587963810598" stroke = "#000000" stroke-width = "5" fill = "#000000" />
    <circle cx="-5351" cy = "-7451" r = "203.74587963810598" stroke = "#000000" stroke-width = "5" fill = "#000000" />
    <circle cx="-5690" cy = "-7225" r = "203.74587963810598" stroke = "#000000" stroke-width = "5" fill = "#000000" />
    <circle cx="-5239" cy = "-8017" r = "203.74587963810598" stroke = "#000000" stroke-width = "5" fill = "#000000" />
    <circle cx="-5465" cy = "-8355" r = "203.74587963810598" stroke = "#000000" stroke-width = "5" fill = "#000000" />
    <circle cx="-5691" cy = "-8694" r = "203.74587963810598" stroke = "#000000" stroke-width = "5" fill = "#000000" />
    <circle cx="-5918" cy = "-9033" r = "203.74587963810598" stroke = "#000000" stroke-width = "5" fill = "#000000" />
    <circle cx="-6144" cy = "-9372" r = "203.74587963810598" stroke = "#000000" stroke-width = "5" fill = "#000000" />
    <circle cx="-6371" cy = "-9711" r = "203.74587963810598" stroke = "#000000" stroke-width = "5" fill = "#000000" />
	<path d = "M10613 -3882 L10840 -4033 L12049 -2223 L12501 -2525 L12426 -2148 L12351 -1770 L12276 -1393 L11899 -1468 L11521 -1543 L11144 -1618 L11370 -1769 L11596 -1921 L10387 -3730 L10613 -3882 Z" stroke = "#ff0000" stroke-width = "1" fill = "#ff0000" />	<path d = "M8979 -3557 L9246 -3504 L8822 -1369 L9355 -1263 L9035 -1049 L8716 -835 L8396 -621 L8182 -941 L7968 -1261 L7754 -1581 L8021 -1528 L8288 -1475 L8713 -3610 L8979 -3557 Z" stroke = "#008000" stroke-width = "1" fill = "#008000" />	<path d = "M7594 -4482 L7745 -4256 L5936 -3047 L6238 -2594 L5861 -2669 L5483 -2744 L5106 -2819 L5181 -3197 L5256 -3574 L5331 -3952 L5482 -3725 L5633 -3499 L7443 -4708 L7594 -4482 Z" stroke = "#0000ff" stroke-width = "1" fill = "#0000ff" />	<path d = "M7269 -6116 L7216 -5849 L5081 -6274 L4975 -5740 L4761 -6060 L4548 -6380 L4334 -6700 L4654 -6914 L4974 -7128 L5294 -7341 L5241 -7074 L5188 -6808 L7322 -6383 L7269 -6116 Z" stroke = "#800080" stroke-width = "1" fill = "#800080" />	<path d = "M8195 -7501 L7969 -7350 L6759 -9160 L6307 -8858 L6382 -9235 L6457 -9612 L6532 -9990 L6909 -9915 L7287 -9840 L7664 -9765 L7438 -9613 L7212 -9462 L8421 -7652 L8195 -7501 Z" stroke = "#ff0000" stroke-width = "1" fill = "#ff0000" />	<path d = "M9829 -7826 L9562 -7879 L9987 -10014 L9453 -10120 L9773 -10334 L10093 -10548 L10413 -10762 L10626 -10442 L10840 -10122 L11054 -9802 L10787 -9855 L10520 -9908 L10096 -7773 L9829 -7826 Z" stroke = "#008000" stroke-width = "1" fill = "#008000" />	<path d = "M11214 -6901 L11063 -7127 L12873 -8336 L12570 -8789 L12948 -8714 L13325 -8639 L13702 -8564 L13627 -8186 L13552 -7809 L13477 -7431 L13326 -7658 L13175 -7884 L11365 -6675 L11214 -6901 Z" stroke = "#0000ff" stroke-width = "1" fill = "#0000ff" />	<path d = "M11539 -5267 L11592 -5534 L13727 -5109 L13833 -5643 L14047 -5323 L14261 -5003 L14474 -4683 L14154 -4469 L13835 -4255 L13515 -4042 L13568 -4308 L13621 -4575 L11486 -5000 L11539 -5267 Z" stroke = "#800080" stroke-width = "1" fill = "#800080" />    <circle cx="10761" cy = "-5128" r = "203.74587963810598" stroke = "#000000" stroke-width = "5" fill = "#000000" />
    <circle cx="10422" cy = "-4901" r = "203.74587963810598" stroke = "#000000" stroke-width = "5" fill = "#000000" />
    <circle cx="10083" cy = "-4675" r = "203.74587963810598" stroke = "#000000" stroke-width = "5" fill = "#000000" />
    <circle cx="9744" cy = "-4449" r = "203.74587963810598" stroke = "#000000" stroke-width = "5" fill = "#000000" />
    <circle cx="9406" cy = "-4222" r = "203.74587963810598" stroke = "#000000" stroke-width = "5" fill = "#000000" />
    <circle cx="9857" cy = "-5014" r = "203.74587963810598" stroke = "#000000" stroke-width = "5" fill = "#000000" />
    <circle cx="9631" cy = "-5353" r = "203.74587963810598" stroke = "#000000" stroke-width = "5" fill = "#000000" />
    <circle cx="9404" cy = "-5691" r = "203.74587963810598" stroke = "#000000" stroke-width = "5" fill = "#000000" />
    <circle cx="9178" cy = "-6030" r = "203.74587963810598" stroke = "#000000" stroke-width = "5" fill = "#000000" />
    <circle cx="8951" cy = "-6369" r = "203.74587963810598" stroke = "#000000" stroke-width = "5" fill = "#000000" />
    <circle cx="8725" cy = "-6708" r = "203.74587963810598" stroke = "#000000" stroke-width = "5" fill = "#000000" />
	<path d = "M4567 -12931 L4793 -13082 L6003 -11272 L6455 -11574 L6380 -11197 L6305 -10820 L6230 -10442 L5852 -10517 L5475 -10592 L5098 -10667 L5324 -10819 L5550 -10970 L4341 -12780 L4567 -12931 Z" stroke = "#ff0000" stroke-width = "1" fill = "#ff0000" />	<path d = "M2933 -12606 L3200 -12553 L2775 -10418 L3309 -10312 L2989 -10098 L2669 -9884 L2349 -9670 L2135 -9990 L1922 -10310 L1708 -10630 L1975 -10577 L2242 -10524 L2666 -12659 L2933 -12606 Z" stroke = "#008000" stroke-width = "1" fill = "#008000" />	<path d = "M1548 -13531 L1699 -13305 L-111 -12096 L192 -11643 L-186 -11718 L-563 -11793 L-941 -11869 L-866 -12246 L-791 -12623 L-715 -13001 L-564 -12774 L-413 -12548 L1397 -13758 L1548 -13531 Z" stroke = "#0000ff" stroke-width = "1" fill = "#0000ff" />	<path d = "M1223 -15165 L1170 -14898 L-965 -15323 L-1071 -14789 L-1285 -15109 L-1499 -15429 L-1713 -15749 L-1393 -15963 L-1073 -16177 L-753 -16390 L-806 -16124 L-859 -15857 L1276 -15432 L1223 -15165 Z" stroke = "#800080" stroke-width = "1" fill = "#800080" />	<path d = "M2148 -16550 L1922 -16399 L713 -18209 L260 -17907 L336 -18284 L411 -18662 L486 -19039 L863 -18964 L1240 -18889 L1618 -18814 L1392 -18663 L1165 -18511 L2375 -16702 L2148 -16550 Z" stroke = "#ff0000" stroke-width = "1" fill = "#ff0000" />	<path d = "M3782 -16875 L3515 -16928 L3940 -19063 L3406 -19169 L3726 -19383 L4046 -19597 L4366 -19811 L4580 -19491 L4794 -19171 L5008 -18851 L4741 -18904 L4474 -18957 L4049 -16822 L3782 -16875 Z" stroke = "#008000" stroke-width = "1" fill = "#008000" />	<path d = "M5168 -15950 L5016 -16176 L6826 -17385 L6524 -17838 L6901 -17763 L7279 -17688 L7656 -17613 L7581 -17235 L7506 -16858 L7431 -16480 L7280 -16707 L7129 -16933 L5319 -15724 L5168 -15950 Z" stroke = "#0000ff" stroke-width = "1" fill = "#0000ff" />	<path d = "M5493 -14316 L5546 -14583 L7680 -14158 L7787 -14692 L8000 -14372 L8214 -14052 L8428 -13732 L8108 -13518 L7788 -13304 L7468 -13091 L7521 -13358 L7574 -13624 L5439 -14049 L5493 -14316 Z" stroke = "#800080" stroke-width = "1" fill = "#800080" />    <circle cx="4715" cy = "-14177" r = "203.74587963810598" stroke = "#000000" stroke-width = "5" fill = "#000000" />
    <circle cx="4376" cy = "-13951" r = "203.74587963810598" stroke = "#000000" stroke-width = "5" fill = "#000000" />
    <circle cx="4037" cy = "-13724" r = "203.74587963810598" stroke = "#000000" stroke-width = "5" fill = "#000000" />
    <circle cx="3698" cy = "-13498" r = "203.74587963810598" stroke = "#000000" stroke-width = "5" fill = "#000000" />
    <circle cx="3359" cy = "-13271" r = "203.74587963810598" stroke = "#000000" stroke-width = "5" fill = "#000000" />
    <circle cx="3810" cy = "-14063" r = "203.74587963810598" stroke = "#000000" stroke-width = "5" fill = "#000000" />
    <circle cx="3584" cy = "-14402" r = "203.74587963810598" stroke = "#000000" stroke-width = "5" fill = "#000000" />
    <circle cx="3358" cy = "-14741" r = "203.74587963810598" stroke = "#000000" stroke-width = "5" fill = "#000000" />
    <circle cx="3131" cy = "-15079" r = "203.74587963810598" stroke = "#000000" stroke-width = "5" fill = "#000000" />
    <circle cx="2905" cy = "-15418" r = "203.74587963810598" stroke = "#000000" stroke-width = "5" fill = "#000000" />
    <circle cx="2679" cy = "-15757" r = "203.74587963810598" stroke = "#000000" stroke-width = "5" fill = "#000000" />
	<path d = "M16660 5168 L16886 5016 L18095 6826 L18548 6524 L18473 6901 L18398 7279 L18323 7656 L17945 7581 L17568 7506 L17190 7431 L17417 7280 L17643 7129 L16434 5319 L16660 5168 Z" stroke = "#ff0000" stroke-width = "1" fill = "#ff0000" />	<path d = "M15026 5493 L15293 5546 L14868 7680 L15402 7787 L15082 8000 L14762 8214 L14442 8428 L14228 8108 L14014 7788 L13801 7468 L14068 7521 L14334 7574 L14759 5439 L15026 5493 Z" stroke = "#008000" stroke-width = "1" fill = "#008000" />	<path d = "M13641 4567 L13792 4793 L11982 6003 L12284 6455 L11907 6380 L11530 6305 L11152 6230 L11227 5852 L11302 5475 L11377 5098 L11529 5324 L11680 5550 L13490 4341 L13641 4567 Z" stroke = "#0000ff" stroke-width = "1" fill = "#0000ff" />	<path d = "M13316 2933 L13263 3200 L11128 2775 L11022 3309 L10808 2989 L10594 2669 L10380 2349 L10700 2135 L11020 1922 L11340 1708 L11287 1975 L11234 2242 L13369 2666 L13316 2933 Z" stroke = "#800080" stroke-width = "1" fill = "#800080" />	<path d = "M14241 1548 L14015 1699 L12806 -111 L12353 192 L12428 -186 L12503 -563 L12579 -941 L12956 -866 L13333 -791 L13711 -715 L13484 -564 L13258 -413 L14468 1397 L14241 1548 Z" stroke = "#ff0000" stroke-width = "1" fill = "#ff0000" />	<path d = "M15875 1223 L15608 1170 L16033 -965 L15499 -1071 L15819 -1285 L16139 -1499 L16459 -1713 L16673 -1393 L16887 -1073 L17100 -753 L16834 -806 L16567 -859 L16142 1276 L15875 1223 Z" stroke = "#008000" stroke-width = "1" fill = "#008000" />	<path d = "M17260 2148 L17109 1922 L18919 713 L18617 260 L18994 336 L19372 411 L19749 486 L19674 863 L19599 1240 L19524 1618 L19373 1392 L19221 1165 L17412 2375 L17260 2148 Z" stroke = "#0000ff" stroke-width = "1" fill = "#0000ff" />	<path d = "M17585 3782 L17638 3515 L19773 3940 L19879 3406 L20093 3726 L20307 4046 L20521 4366 L20201 4580 L19881 4794 L19561 5008 L19614 4741 L19667 4474 L17532 4049 L17585 3782 Z" stroke = "#800080" stroke-width = "1" fill = "#800080" />    <circle cx="16807" cy = "3921" r = "203.74587963810598" stroke = "#000000" stroke-width = "5" fill = "#000000" />
    <circle cx="16469" cy = "4148" r = "203.74587963810598" stroke = "#000000" stroke-width = "5" fill = "#000000" />
    <circle cx="16130" cy = "4374" r = "203.74587963810598" stroke = "#000000" stroke-width = "5" fill = "#000000" />
    <circle cx="15791" cy = "4601" r = "203.74587963810598" stroke = "#000000" stroke-width = "5" fill = "#000000" />
    <circle cx="15452" cy = "4827" r = "203.74587963810598" stroke = "#000000" stroke-width = "5" fill = "#000000" />
    <circle cx="15903" cy = "4035" r = "203.74587963810598" stroke = "#000000" stroke-width = "5" fill = "#000000" />
    <circle cx="15677" cy = "3697" r = "203.74587963810598" stroke = "#000000" stroke-width = "5" fill = "#000000" />
    <circle cx="15451" cy = "3358" r = "203.74587963810598" stroke = "#000000" stroke-width = "5" fill = "#000000" />
    <circle cx="15224" cy = "3019" r = "203.74587963810598" stroke = "#000000" stroke-width = "5" fill = "#000000" />
    <circle cx="14998" cy = "2680" r = "203.74587963810598" stroke = "#000000" stroke-width = "5" fill = "#000000" />
    <circle cx="14771" cy = "2341" r = "203.74587963810598" stroke = "#000000" stroke-width = "5" fill = "#000000" />
</svg>