<svg width="710" height="710" viewbox = "0 0 710 710"  xmlns="http://www.w3.org/2000/svg">
<!--<json>{
  "glyph": "0337,0337,0337,0337,0337,0337,0323,0347,0300,0336,0331,0331,0331,0331,0337,0321,0336,0336,0330,0330,0330,0330,0330,0330,0330,0332,0332,0332,0332,0332,0332,0332,01341,01306,01350,01335,01342,01334,01334,01342,01330,01335,01335,01335,0331,0332,0332,0332,0332,0332,0332,0332,0332,0332,0332,0332,0332,0336,0331,0337,01335,01342,01330,01334,01334,01334,01304,01336,01201,01334,01201,01201,0331,0332,0332,0332,0332,0332,0332,0332,0332,0332,0332,0332,0332,0336,0331,0337,01334,01201,01334,01330,01334,01342,0336,0333,0330,0336,0341,0300,0321,0336,0330,0332,0336,0333,0330,0330,0211,0211,0211,0337,0341,0306,0350,0335,0342,0334,0334,0342,0330,0335,0335,0335,0335,0201,0334,0334,0334,0336,0342,0330,0334,0334,0334,0201,0201,0335,0335,0335,0331,0342,0335,0335,0335,0330,0334,0334,0334,0342,",
  "x0": 410,
  "y0": 464.3027655705198,
  "unit": 200.89714327320016,
  "width": 710,
  "height": 710,
  "style": {
    "color0": "black",
    "fill0": "black",
    "line0": 1,
    "color1": "black",
    "fill1": "black",
    "line1": 5,
    "color2": "red",
    "fill2": "red",
    "line2": 1,
    "color3": "#FF7900",
    "fill3": "#9f8767",
    "line3": 1,
    "color4": "yellow",
    "fill4": "yellow",
    "line4": 1,
    "color5": "green",
    "fill5": "green",
    "line5": 1,
    "color6": "blue",
    "fill6": "blue",
    "line6": 1,
    "color7": "purple",
    "fill7": "purple",
    "line7": 1
  },
  "shapes": [
    "0220:0331,0331,0331,0331,0331,0333,0333,0333,0333,0333,0330,0201,0201,0201,0201,0201,0201,0201,0201,0332,0350,0335,0343,0334,0330,0334,0334,0201,0201,0201,0201,0201,0201,0201,0201,0334,0332,0335,0335,0343,0334,0330,0334,0334,0201,0201,0201,0201,0201,0201,0201,0201,0334,0332,0335,0335,0343,0334,0330,0334,0334,0201,0201,0201,0201,0201,0201,0201,0201,0334,0332,0335,0335,0343,0334,0334,0334,0304,0332,0330,0332,0330,0332,0330,0332,0330,",
    "0221:0336,0336,0336,0336,0314,0337,0341,0336,0313,0337,0337,0337,0337,",
    "0222:0220,0331,0331,0331,0331,0333,0333,0333,0333,0221,0330,0330,0330,0330,0330,0330,0330,0330,0221,0332,0332,0332,0332,0332,0332,0332,0332,0221,0331,0331,0331,0331,0331,0331,0331,0331,0221,0333,0333,0333,0330,0333,0330,0330,0330,",
    "0223:0330,0330,0330,0330,0336,0331,0337,0330,0335,0331,0336,0331,0337,0201,0201,0201,0333,0335,0335,0201,0201,0201,0336,0333,0343,0335,0335,0330,0330,0330,0330,0330,0330,0343,0334,0332,0332,0332,0337,0331,0331,0331,0331,",
    "0224:0335,0335,0334,0201,0201,0201,0201,0201,0334,0201,0201,0201,0201,0332,0350,0335,0343,0334,0330,0334,0334,0201,0201,0201,0201,0201,0201,0201,0201,0334,0332,0335,0335,0343,0334,0330,0334,0334,0201,0201,0201,0201,0334,0334,0201,0201,0201,0201,0201,0335,0335,0304,0331,0331,0331,0331,0332,0332,0332,0332,0221,0333,0333,0333,0333,0333,0333,0333,0333,0221,0330,0330,0330,0330,0332,0332,0332,0332,0335,0335,",
    "0225:0224,0223,",
    "0226:0331,0331,0331,0331,0331,0201,0201,0201,0201,0201,0201,0201,0201,0201,0201,0334,0201,0201,0201,0201,0332,0350,0335,0343,0334,0330,0334,0334,0201,0201,0201,0201,0201,0201,0201,0201,0335,0335,0331,0334,0343,0334,0330,0334,0334,0201,0201,0201,0201,0334,0334,0304,0332,0332,0332,0332,0330,0221,0330,0330,0330,0330,0330,0330,0330,0330,0221,0333,0333,0333,0333,0334,0336,0333,0337,0201,0331,0332,0201,0336,0342,0333,0333,0342,0330,0332,0343,0335,0333,0333,0333,0330,0330,0337,0331,0331,0331,0331,0331,",
    "01220:0333,0200,0336,0330,0332,0336,0336,0336,0220,0337,0337,0337,0331,0333,0337,",
    "01221:0333,0200,0336,0330,0332,0336,0336,0336,0220,0331,0333,0331,0333,0331,0333,0331,0333,0221,0331,0331,0333,0331,0333,0331,0333,0333,0337,0337,0337,0337,",
    "01222:0333,0200,0336,0330,0332,0336,0336,0336,0222,0337,0337,0337,0331,0333,0337,",
    "01223:0333,0200,0336,0330,0332,0336,0336,0336,0223,0337,0337,0337,0331,0333,0337,",
    "01224:0333,0200,0336,0330,0332,0336,0336,0336,0224,0337,0337,0337,0331,0333,0337,",
    "01225:0333,0200,0336,0330,0332,0336,0336,0336,0225,0337,0337,0337,0331,0333,0337,",
    "01226:0333,0200,0336,0330,0332,0336,0336,0336,0226,0337,0337,0337,0331,0333,0337,",
    "01227:0333,0200,",
    "01230:0333,0200,",
    "01231:0333,0200,",
    "01232:0333,0200,",
    "01233:0333,0200,",
    "01234:0333,0200,0336,0336,0330,0330,0330,0234,0331,0331,0333,0333,0331,0331,0333,0333,0337,0337,0333,0333,0333,",
    "01235:0333,0200,0336,0336,0330,0235,0331,0333,0337,0337,",
    "01236:0333,0200,",
    "01237:0333,0200,",
    "0240:0220,0336,0331,0333,0336,0321,0335,0342,0335,0335,0342,0335,0330,0330,0332,0332,0337,0337,",
    "01240:0333,0200,0336,0330,0332,0210,0240,0211,0333,0331,0337,",
    "0241:0220,0336,0321,0343,0332,0350,0335,0336,0342,0334,0334,0342,0335,0304,0337,0333,0337,",
    "01241:0333,0200,0336,0332,0330,0210,0241,0211,0333,0331,0337,",
    "0242:0220,0321,0336,0343,0333,0336,0350,0335,0342,0334,0334,0342,0335,0337,0304,0332,0337,",
    "01242:0333,0200,0336,0330,0332,0210,0242,0211,0333,0331,0337,",
    "0243:0220,0336,0331,0332,0336,0321,0343,0332,0350,0334,0336,0342,0335,0335,0342,0337,0334,0334,0335,0304,0332,0330,0330,0337,0337,0333,",
    "01243:0333,0200,0336,0330,0332,0210,0243,0211,0333,0331,0337,",
    "0244:0220,0336,0331,0333,0336,0321,0343,0333,0350,0336,0335,0342,0334,0334,0342,0335,0337,0304,0333,0330,0330,0337,0337,0332,",
    "01244:0333,0200,0336,0330,0332,0210,0244,0211,0333,0331,0337,",
    "0245:0210,0332,0332,0362,0335,0203,0203,0203,0203,0334,0203,0363,0332,0332,0331,0211,",
    "01245:0333,0200,0336,0330,0332,0336,0245,0337,0333,0331,0337,",
    "0246:0210,0332,0332,0335,0306,0336,0330,0335,0335,0335,0321,0362,0203,0335,0335,0203,0364,0331,0350,0335,0337,0366,0333,0333,0333,0333,0334,0334,0334,0334,0367,0335,0336,0342,0334,0334,0342,0330,0330,0330,0330,0335,0335,0335,0304,0337,0211,",
    "01246:0333,0200,0336,0330,0332,0336,0246,",
    "0247:0330,0332,0336,0332,0336,0221,0333,0333,0333,0222,0333,0333,0333,0223,0333,0333,0333,0225,0333,0331,0331,0331,0332,0332,0332,0332,0332,0332,0332,0332,0332,0332,0332,0332,0333,0333,0226,0331,0331,0331,0333,0333,0333,0333,0333,0333,0333,0333,0333,0333,0333,0333,0333,0330,0333,0330,0330,0333,0330,0331,0332,0332,0332,0332,0332,0332,0332,0332,0332,0332,0332,0332,0227,0333,0333,0333,0230,0333,0331,0331,0331,0331,0332,0332,0332,0330,0332,0332,0332,0332,0332,0332,0333,0333,0231,0333,0333,0333,0232,0331,0333,0330,0333,0333,0233,0333,0333,0333,0234,0330,0330,0332,0330,0332,0332,0337,0337,",
    "01247:0333,0200,0336,0330,0332,0220,0336,0247,0337,0331,0333,0337,"
  ]
}</json>-->    <circle cx="410" cy = "464" r = "12857.41716948481" stroke = "#ff7900" stroke-width = "1" fill = "#9f8767" />
	<path d = "M109 515 L109 464 L58 464 L58 515 L109 515 Z" stroke = "#000000" stroke-width = "5" fill = "none" /><circle cx="84" cy = "489" r = "25.11214290915002" stroke = "#000000" stroke-width = "5" fill = "none" />
<circle cx="84" cy = "489" r = "5" stroke = "#000000" stroke-width = "5" fill = "#000000" />
	<path d = "M159 515 L159 464 L109 464 L109 515 L159 515 Z" stroke = "#000000" stroke-width = "5" fill = "none" />    <line x1="134" y1="489" x2="134" y2="464" style="stroke:#000000;stroke-width:5" />
    <line x1="134" y1="489" x2="156" y2="477" style="stroke:#000000;stroke-width:5" />
    <line x1="134" y1="489" x2="156" y2="502" style="stroke:#000000;stroke-width:5" />
    <line x1="134" y1="489" x2="134" y2="515" style="stroke:#000000;stroke-width:5" />
    <line x1="134" y1="489" x2="112" y2="502" style="stroke:#000000;stroke-width:5" />
<circle cx="134" cy = "489" r = "25.11214290915002" stroke = "#000000" stroke-width = "5" fill = "none" />
<circle cx="127" cy = "479" r = "3.1390178636437525" stroke = "#000000" stroke-width = "5" fill = "none" />
<circle cx="140" cy = "479" r = "3.1390178636437525" stroke = "#000000" stroke-width = "5" fill = "none" />
<circle cx="146" cy = "489" r = "3.1390178636437525" stroke = "#000000" stroke-width = "5" fill = "none" />
<circle cx="140" cy = "500" r = "3.1390178636437525" stroke = "#000000" stroke-width = "5" fill = "none" />
<circle cx="127" cy = "500" r = "3.1390178636437525" stroke = "#000000" stroke-width = "5" fill = "none" />
    <line x1="134" y1="489" x2="112" y2="477" style="stroke:#000000;stroke-width:5" />
<circle cx="121" cy = "489" r = "3.1390178636437525" stroke = "#000000" stroke-width = "5" fill = "none" />
	<path d = "M209 515 L209 464 L159 464 L159 515 L209 515 Z" stroke = "#000000" stroke-width = "5" fill = "none" />	<path d = "M202 472 L184 489 L202 507 " stroke = "#000000" stroke-width = "5" fill = "none" />    <line x1="184" y1="489" x2="190" y2="489" style="stroke:#000000;stroke-width:5" />
    <line x1="197" y1="489" x2="203" y2="489" style="stroke:#000000;stroke-width:5" />
	<path d = "M259 515 L259 464 L209 464 L209 515 L259 515 Z" stroke = "#000000" stroke-width = "5" fill = "none" />  <path d="M243.0934829065427 498.29339175026297           A12.55607145457501 12.55607145457501 0 0 1 225.33651636535703 498.29339175026297" fill = "none" stroke = "#000000" stroke-width = "5" />
  <path d="M225.33651636535703 498.29339175026297           A12.55607145457501 12.55607145457501 0 0 1 225.33651636535708 480.53642520907727" fill = "none" stroke = "#000000" stroke-width = "5" />
  <path d="M225.33651636535708 480.53642520907727           A12.55607145457501 12.55607145457501 0 0 1 243.09348290654276 480.5364252090774" fill = "none" stroke = "#000000" stroke-width = "5" />
	<path d = "M231 485 L243 481 L238 469 " stroke = "#000000" stroke-width = "5" fill = "none" />	<path d = "M310 515 L310 464 L259 464 L259 515 L310 515 Z" stroke = "#000000" stroke-width = "5" fill = "none" />    <line x1="284" y1="489" x2="272" y2="489" style="stroke:#000000;stroke-width:5" />
<circle cx="272" cy = "489" r = "5" stroke = "#000000" stroke-width = "5" fill = "#000000" />
    <line x1="284" y1="489" x2="297" y2="489" style="stroke:#000000;stroke-width:5" />
<circle cx="297" cy = "489" r = "5" stroke = "#000000" stroke-width = "5" fill = "#000000" />
	<path d = "M360 515 L360 464 L310 464 L310 515 L360 515 Z" stroke = "#000000" stroke-width = "5" fill = "none" />  <path d="M325.7850880019571 480.53642520907783           A12.55607145457501 12.55607145457501 0 0 1 343.54205454314274 480.53642520907783" fill = "none" stroke = "#000000" stroke-width = "5" />
  <path d="M325.7850880019571 498.29339175026354           A12.55607145457501 12.55607145457501 0 0 1 325.7850880019571 480.53642520907783" fill = "none" stroke = "#000000" stroke-width = "5" />
  <path d="M343.5420545431428 498.2933917502634           A12.55607145457501 12.55607145457501 0 0 1 325.7850880019571 498.29339175026354" fill = "none" stroke = "#000000" stroke-width = "5" />
	<path d = "M339 510 L344 498 L332 493 " stroke = "#000000" stroke-width = "5" fill = "none" />	<path d = "M410 515 L410 464 L360 464 L360 515 L410 515 Z" stroke = "#000000" stroke-width = "5" fill = "none" />  <path d="M376.009373820257 480.5364252090777           A12.55607145457501 12.55607145457501 0 0 1 393.7663403614427 480.5364252090775" fill = "none" stroke = "#000000" stroke-width = "5" />
  <path d="M376.00937382025734 498.2933917502634           A12.55607145457501 12.55607145457501 0 0 1 376.009373820257 480.5364252090777" fill = "none" stroke = "#000000" stroke-width = "5" />
  <path d="M393.766340361443 498.2933917502631           A12.55607145457501 12.55607145457501 0 0 1 376.00937382025734 498.2933917502634" fill = "none" stroke = "#000000" stroke-width = "5" />
	<path d = "M389 510 L394 498 L382 493 " stroke = "#000000" stroke-width = "5" fill = "none" />	<path d = "M460 515 L460 464 L410 464 L410 515 L460 515 Z" stroke = "#000000" stroke-width = "5" fill = "none" />    <line x1="435" y1="489" x2="423" y2="489" style="stroke:#000000;stroke-width:5" />
<circle cx="423" cy = "489" r = "5" stroke = "#000000" stroke-width = "5" fill = "#000000" />
    <line x1="435" y1="489" x2="448" y2="489" style="stroke:#000000;stroke-width:5" />
<circle cx="448" cy = "489" r = "5" stroke = "#000000" stroke-width = "5" fill = "#000000" />
	<path d = "M510 515 L510 464 L460 464 L460 515 L510 515 Z" stroke = "#000000" stroke-width = "5" fill = "none" />	<path d = "M492 502 L479 502 L479 489 L473 489 L479 483 L485 477 L492 483 L498 489 L492 489 L492 502 Z" stroke = "#000000" stroke-width = "5" fill = "none" />	<path d = "M561 515 L561 464 L510 464 L510 515 L561 515 Z" stroke = "#000000" stroke-width = "5" fill = "none" />  <path d="M544.4391978163436 498.2933917502587           A12.556071454575012 12.556071454575012 0 0 1 526.682231275158 498.2933917502597" fill = "none" stroke = "#000000" stroke-width = "5" />
  <path d="M526.682231275158 498.2933917502597           A12.556071454575012 12.556071454575012 0 0 1 526.6822312751569 480.5364252090741" fill = "none" stroke = "#000000" stroke-width = "5" />
  <path d="M526.6822312751569 480.5364252090741           A12.556071454575012 12.556071454575012 0 0 1 544.4391978163426 480.5364252090729" fill = "none" stroke = "#000000" stroke-width = "5" />
	<path d = "M533 485 L544 481 L540 469 " stroke = "#000000" stroke-width = "5" fill = "none" />	<path d = "M611 515 L611 464 L561 464 L561 515 L611 515 Z" stroke = "#000000" stroke-width = "5" fill = "none" />  <path d="M594.6634836346439 498.2933917502553           A12.556071454575012 12.556071454575012 0 0 1 576.9065170934582 498.2933917502566" fill = "none" stroke = "#000000" stroke-width = "5" />
  <path d="M576.9065170934582 498.2933917502566           A12.556071454575012 12.556071454575012 0 0 1 576.9065170934567 480.536425209071" fill = "none" stroke = "#000000" stroke-width = "5" />
  <path d="M576.9065170934567 480.536425209071           A12.556071454575012 12.556071454575012 0 0 1 594.6634836346424 480.5364252090695" fill = "none" stroke = "#000000" stroke-width = "5" />
	<path d = "M583 485 L595 481 L590 469 " stroke = "#000000" stroke-width = "5" fill = "none" />	<path d = "M661 515 L661 464 L611 464 L611 515 L661 515 Z" stroke = "#000000" stroke-width = "5" fill = "none" />  <path d="M644.887769452944 498.2933917502511           A12.556071454575012 12.556071454575012 0 0 1 627.1308029117585 498.29339175025285" fill = "none" stroke = "#000000" stroke-width = "5" />
  <path d="M627.1308029117585 498.29339175025285           A12.556071454575012 12.556071454575012 0 0 1 627.1308029117566 480.5364252090672" fill = "none" stroke = "#000000" stroke-width = "5" />
  <path d="M627.1308029117566 480.5364252090672           A12.556071454575012 12.556071454575012 0 0 1 644.8877694529422 480.5364252090653" fill = "none" stroke = "#000000" stroke-width = "5" />
	<path d = "M633 485 L645 481 L640 469 " stroke = "#000000" stroke-width = "5" fill = "none" />	<path d = "M109 590 L109 540 L58 540 L58 590 L109 590 Z" stroke = "#000000" stroke-width = "5" fill = "none" />  <path d="M92.42062545165206 573.6298204777612           A12.556071454575012 12.556071454575012 0 0 1 74.66365891046645 573.6298204777632" fill = "none" stroke = "#000000" stroke-width = "5" />
  <path d="M74.66365891046645 573.6298204777632           A12.556071454575012 12.556071454575012 0 0 1 74.66365891046426 555.8728539365777" fill = "none" stroke = "#000000" stroke-width = "5" />
  <path d="M74.66365891046426 555.8728539365777           A12.556071454575012 12.556071454575012 0 0 1 92.42062545164987 555.8728539365754" fill = "none" stroke = "#000000" stroke-width = "5" />
	<path d = "M81 561 L92 556 L88 544 " stroke = "#000000" stroke-width = "5" fill = "none" />	<path d = "M159 590 L159 540 L109 540 L109 590 L159 590 Z" stroke = "#000000" stroke-width = "5" fill = "none" />    <line x1="134" y1="565" x2="121" y2="565" style="stroke:#000000;stroke-width:5" />
<circle cx="121" cy = "565" r = "5" stroke = "#000000" stroke-width = "5" fill = "#000000" />
    <line x1="134" y1="565" x2="146" y2="565" style="stroke:#000000;stroke-width:5" />
<circle cx="146" cy = "565" r = "5" stroke = "#000000" stroke-width = "5" fill = "#000000" />
	<path d = "M209 590 L209 540 L159 540 L159 590 L209 590 Z" stroke = "#000000" stroke-width = "5" fill = "none" />	<path d = "M190 577 L178 577 L178 565 L171 565 L178 558 L184 552 L190 558 L197 565 L190 565 L190 577 Z" stroke = "#000000" stroke-width = "5" fill = "none" />	<path d = "M259 590 L259 540 L209 540 L209 590 L259 590 Z" stroke = "#000000" stroke-width = "5" fill = "none" />  <path d="M225.33651636536413 555.8728539365577           A12.556071454575013 12.556071454575013 0 0 1 243.09348290654975 555.872853936555" fill = "none" stroke = "#000000" stroke-width = "5" />
  <path d="M225.3365163653668 573.6298204777434           A12.556071454575013 12.556071454575013 0 0 1 225.33651636536413 555.8728539365577" fill = "none" stroke = "#000000" stroke-width = "5" />
  <path d="M243.09348290655242 573.6298204777407           A12.556071454575013 12.556071454575013 0 0 1 225.3365163653668 573.6298204777434" fill = "none" stroke = "#000000" stroke-width = "5" />
	<path d = "M238 585 L243 574 L231 569 " stroke = "#000000" stroke-width = "5" fill = "none" />	<path d = "M310 590 L310 540 L259 540 L259 590 L310 590 Z" stroke = "#000000" stroke-width = "5" fill = "none" />  <path d="M275.56080218366395 555.8728539365501           A12.556071454575013 12.556071454575013 0 0 1 293.31776872484954 555.8728539365472" fill = "none" stroke = "#000000" stroke-width = "5" />
  <path d="M275.56080218366674 573.6298204777357           A12.556071454575013 12.556071454575013 0 0 1 275.56080218366395 555.8728539365501" fill = "none" stroke = "#000000" stroke-width = "5" />
  <path d="M293.31776872485233 573.629820477733           A12.556071454575013 12.556071454575013 0 0 1 275.56080218366674 573.6298204777357" fill = "none" stroke = "#000000" stroke-width = "5" />
	<path d = "M289 585 L293 574 L282 569 " stroke = "#000000" stroke-width = "5" fill = "none" />	<path d = "M360 590 L360 540 L310 540 L310 590 L360 590 Z" stroke = "#000000" stroke-width = "5" fill = "none" />  <path d="M325.78508800196374 555.8728539365421           A12.556071454575013 12.556071454575013 0 0 1 343.54205454314933 555.8728539365391" fill = "none" stroke = "#000000" stroke-width = "5" />
  <path d="M325.78508800196664 573.6298204777278           A12.556071454575013 12.556071454575013 0 0 1 325.78508800196374 555.8728539365421" fill = "none" stroke = "#000000" stroke-width = "5" />
  <path d="M343.5420545431523 573.6298204777249           A12.556071454575013 12.556071454575013 0 0 1 325.78508800196664 573.6298204777278" fill = "none" stroke = "#000000" stroke-width = "5" />
	<path d = "M339 585 L344 574 L332 569 " stroke = "#000000" stroke-width = "5" fill = "none" />	<path d = "M410 590 L410 540 L360 540 L360 590 L410 590 Z" stroke = "#000000" stroke-width = "5" fill = "none" /><circle cx="385" cy = "565" r = "25.112142909150027" stroke = "#000000" stroke-width = "5" fill = "none" />
    <line x1="385" y1="565" x2="385" y2="540" style="stroke:#000000;stroke-width:5" />
    <line x1="385" y1="565" x2="410" y2="565" style="stroke:#000000;stroke-width:5" />
    <line x1="385" y1="565" x2="385" y2="590" style="stroke:#000000;stroke-width:5" />
    <line x1="385" y1="565" x2="360" y2="565" style="stroke:#000000;stroke-width:5" />
<circle cx="376" cy = "556" r = "6.278035727287507" stroke = "#000000" stroke-width = "5" fill = "none" />
<circle cx="394" cy = "556" r = "6.278035727287507" stroke = "#000000" stroke-width = "5" fill = "none" />
<circle cx="394" cy = "574" r = "6.278035727287507" stroke = "#000000" stroke-width = "5" fill = "none" />
<circle cx="376" cy = "574" r = "6.278035727287507" stroke = "#000000" stroke-width = "5" fill = "none" />
	<path d = "M460 590 L460 540 L410 540 L410 590 L460 590 Z" stroke = "#000000" stroke-width = "5" fill = "none" />    <line x1="448" y1="565" x2="423" y2="565" style="stroke:#000000;stroke-width:5" />
	<path d = "M510 590 L510 540 L460 540 L460 590 L510 590 Z" stroke = "#000000" stroke-width = "5" fill = "none" />    <line x1="473" y1="565" x2="498" y2="565" style="stroke:#000000;stroke-width:5" />
    <line x1="498" y1="565" x2="493" y2="569" style="stroke:#000000;stroke-width:5" />
    <line x1="498" y1="565" x2="493" y2="560" style="stroke:#000000;stroke-width:5" />
	<path d = "M561 590 L561 540 L510 540 L510 590 L561 590 Z" stroke = "#000000" stroke-width = "5" fill = "none" />  <path d="M526.6822312751638 555.8728539365082           A12.556071454575013 12.556071454575013 0 0 1 544.4391978163494 555.8728539365048" fill = "none" stroke = "#000000" stroke-width = "5" />
  <path d="M526.682231275167 573.6298204776938           A12.556071454575013 12.556071454575013 0 0 1 526.6822312751638 555.8728539365082" fill = "none" stroke = "#000000" stroke-width = "5" />
  <path d="M544.4391978163527 573.6298204776906           A12.556071454575013 12.556071454575013 0 0 1 526.682231275167 573.6298204776938" fill = "none" stroke = "#000000" stroke-width = "5" />
	<path d = "M540 585 L544 574 L533 569 " stroke = "#000000" stroke-width = "5" fill = "none" />	<path d = "M611 590 L611 540 L561 540 L561 590 L611 590 Z" stroke = "#000000" stroke-width = "5" fill = "none" />    <line x1="573" y1="565" x2="598" y2="565" style="stroke:#000000;stroke-width:5" />
    <line x1="598" y1="565" x2="594" y2="569" style="stroke:#000000;stroke-width:5" />
    <line x1="598" y1="565" x2="594" y2="560" style="stroke:#000000;stroke-width:5" />
	<path d = "M661 590 L661 540 L611 540 L611 590 L661 590 Z" stroke = "#000000" stroke-width = "5" fill = "none" />    <line x1="623" y1="565" x2="649" y2="565" style="stroke:#000000;stroke-width:5" />
    <line x1="649" y1="565" x2="644" y2="569" style="stroke:#000000;stroke-width:5" />
    <line x1="649" y1="565" x2="644" y2="560" style="stroke:#000000;stroke-width:5" />
	<path d = "M109 665 L109 615 L58 615 L58 665 L109 665 Z" stroke = "#000000" stroke-width = "5" fill = "none" />  <path d="M74.66365891047764 631.2092826640411           A12.556071454575013 12.556071454575013 0 0 1 92.42062545166326 631.209282664038" fill = "none" stroke = "#000000" stroke-width = "5" />
  <path d="M74.66365891048056 648.9662492052267           A12.556071454575013 12.556071454575013 0 0 1 74.66365891047764 631.2092826640411" fill = "none" stroke = "#000000" stroke-width = "5" />
  <path d="M92.42062545166617 648.9662492052239           A12.556071454575013 12.556071454575013 0 0 1 74.66365891048056 648.9662492052267" fill = "none" stroke = "#000000" stroke-width = "5" />
	<path d = "M88 661 L92 649 L81 644 " stroke = "#000000" stroke-width = "5" fill = "none" />	<path d = "M159 665 L159 615 L109 615 L109 665 L159 665 Z" stroke = "#000000" stroke-width = "5" fill = "none" />    <line x1="121" y1="640" x2="146" y2="640" style="stroke:#000000;stroke-width:5" />
    <line x1="146" y1="640" x2="142" y2="645" style="stroke:#000000;stroke-width:5" />
    <line x1="146" y1="640" x2="142" y2="636" style="stroke:#000000;stroke-width:5" />
	<path d = "M209 665 L209 615 L159 615 L159 665 L209 665 Z" stroke = "#000000" stroke-width = "5" fill = "none" />  <path d="M175.1122305470777 631.2092826640231           A12.556071454575013 12.556071454575013 0 0 1 192.86919708826332 631.2092826640205" fill = "none" stroke = "#000000" stroke-width = "5" />
  <path d="M175.11223054708023 648.9662492052088           A12.556071454575013 12.556071454575013 0 0 1 175.1122305470777 631.2092826640231" fill = "none" stroke = "#000000" stroke-width = "5" />
  <path d="M192.86919708826585 648.9662492052064           A12.556071454575013 12.556071454575013 0 0 1 175.11223054708023 648.9662492052088" fill = "none" stroke = "#000000" stroke-width = "5" />
	<path d = "M188 661 L193 649 L181 644 " stroke = "#000000" stroke-width = "5" fill = "none" />	<path d = "M259 665 L259 615 L209 615 L209 665 L259 665 Z" stroke = "#000000" stroke-width = "5" fill = "none" />	<path d = "M240 653 L228 653 L228 640 L222 640 L228 634 L234 628 L240 634 L247 640 L240 640 L240 653 Z" stroke = "#000000" stroke-width = "5" fill = "none" />	<path d = "M310 665 L310 615 L259 615 L259 665 L310 665 Z" stroke = "#000000" stroke-width = "5" fill = "none" />  <path d="M275.5608021836777 631.209282664007           A12.556071454575017 12.556071454575017 0 0 1 293.3177687248633 631.2092826640047" fill = "none" stroke = "#000000" stroke-width = "5" />
  <path d="M275.5608021836798 648.9662492051925           A12.556071454575017 12.556071454575017 0 0 1 275.5608021836777 631.209282664007" fill = "none" stroke = "#000000" stroke-width = "5" />
  <path d="M293.31776872486546 648.9662492051905           A12.556071454575017 12.556071454575017 0 0 1 275.5608021836798 648.9662492051925" fill = "none" stroke = "#000000" stroke-width = "5" />
	<path d = "M289 661 L293 649 L282 644 " stroke = "#000000" stroke-width = "5" fill = "none" />	<path d = "M360 665 L360 615 L310 615 L310 665 L360 665 Z" stroke = "#000000" stroke-width = "5" fill = "none" />    <line x1="335" y1="640" x2="322" y2="640" style="stroke:#000000;stroke-width:5" />
<circle cx="322" cy = "640" r = "5" stroke = "#000000" stroke-width = "5" fill = "#000000" />
    <line x1="335" y1="640" x2="347" y2="640" style="stroke:#000000;stroke-width:5" />
<circle cx="347" cy = "640" r = "5" stroke = "#000000" stroke-width = "5" fill = "#000000" />
<circle cx="385" cy = "640" r = "12.556071454575017" stroke = "#000000" stroke-width = "5" fill = "none" />
<circle cx="360" cy = "263" r = "150.4394346853035" stroke = "#000000" stroke-width = "5" fill = "none" />
    <line x1="360" y1="263" x2="435" y2="133" style="stroke:#000000;stroke-width:5" />
    <line x1="360" y1="263" x2="285" y2="133" style="stroke:#000000;stroke-width:5" />
    <line x1="285" y1="133" x2="435" y2="133" style="stroke:#000000;stroke-width:5" />
    <line x1="435" y1="133" x2="435" y2="58" style="stroke:#000000;stroke-width:5" />
    <line x1="435" y1="58" x2="360" y2="58" style="stroke:#000000;stroke-width:5" />
    <line x1="360" y1="58" x2="285" y2="58" style="stroke:#000000;stroke-width:5" />
    <line x1="285" y1="133" x2="285" y2="58" style="stroke:#000000;stroke-width:5" />
    <line x1="360" y1="133" x2="360" y2="58" style="stroke:#000000;stroke-width:5" />
</svg>