<svg width="710" height="710" viewbox = "0 0 710 710"  xmlns="http://www.w3.org/2000/svg">
<!--<json>{
  "glyph": "0224,",
  "x0": 355,
  "y0": 355,
  "unit": 137.21545200000006,
  "width": 710,
  "height": 710,
  "style": {
    "color0": "black",
    "fill0": "black",
    "line0": 1,
    "color1": "black",
    "fill1": "black",
    "line1": 5,
    "color2": "red",
    "fill2": "red",
    "line2": 1,
    "color3": "#FF7900",
    "fill3": "#FF7900",
    "line3": 1,
    "color4": "yellow",
    "fill4": "yellow",
    "line4": 1,
    "color5": "green",
    "fill5": "green",
    "line5": 1,
    "color6": "blue",
    "fill6": "blue",
    "line6": 1,
    "color7": "purple",
    "fill7": "purple",
    "line7": 1
  },
  "shapes": [
    "0220:0370,0336,0336,0331,0332,0336,0331,0332,0337,0337,0337,01124,0371,",
    "0221:0336,0336,0336,0334,0362,0203,0335,0337,0337,0337,0203,0334,0336,0336,0203,0336,0335,0350,0335,0310,0337,0203,0203,0203,0335,0335,0203,0203,0203,0335,0335,0335,0336,0203,0203,0334,0334,0313,0304,0337,0337,0337,0203,0335,0336,0336,0336,0203,0363,0335,0337,0337,0337,",
    "0222:0330,0221,0331,0350,0335,0304,",
    "0223:0222,0222,0222,0222,0222,0222,0222,0222,0211,0211,0211,0220,0210,0210,0210,",
    "0224:0322,0222,0325,0222,0326,0222,0327,0222,0322,0222,0325,0222,0326,0222,0327,0222,0321,0211,0211,0211,0220,0210,0210,0210,0320,",
    "01220:0333,0200,0336,0330,0332,0336,0220,0337,0331,0333,0337,",
    "01221:0333,0200,0336,0330,0332,0336,0221,0337,0331,0333,0337,",
    "01222:0333,0200,0336,0330,0332,0336,0222,0222,0222,0350,0335,0304,0337,0335,0335,0331,0333,0337,",
    "01223:0333,0200,0336,0330,0332,0336,0223,0337,0331,0333,0337,",
    "01224:0333,0200,",
    "01225:0333,0200,",
    "01226:0333,0200,",
    "01227:0333,0200,",
    "01230:0333,0200,",
    "01231:0333,0200,",
    "01232:0333,0200,",
    "01233:0333,0200,",
    "01234:0333,0200,0336,0336,0330,0330,0330,0234,0331,0331,0333,0333,0331,0331,0333,0333,0337,0337,0333,0333,0333,",
    "01235:0333,0200,0336,0336,0330,0235,0331,0333,0337,0337,",
    "01236:0333,0200,",
    "01237:0333,0200,",
    "0240:0220,0336,0331,0333,0336,0321,0335,0342,0335,0335,0342,0335,0330,0330,0332,0332,0337,0337,",
    "01240:0333,0200,0336,0330,0332,0210,0240,0211,0333,0331,0337,",
    "0241:0220,0336,0321,0343,0332,0350,0335,0336,0342,0334,0334,0342,0335,0304,0337,0333,0337,",
    "01241:0333,0200,0336,0332,0330,0210,0241,0211,0333,0331,0337,",
    "0242:0220,0321,0336,0343,0333,0336,0350,0335,0342,0334,0334,0342,0335,0337,0304,0332,0337,",
    "01242:0333,0200,0336,0330,0332,0210,0242,0211,0333,0331,0337,",
    "0243:0220,0336,0331,0332,0336,0321,0343,0332,0350,0334,0336,0342,0335,0335,0342,0337,0334,0334,0335,0304,0332,0330,0330,0337,0337,0333,",
    "01243:0333,0200,0336,0330,0332,0210,0243,0211,0333,0331,0337,",
    "0244:0220,0336,0331,0333,0336,0321,0343,0333,0350,0336,0335,0342,0334,0334,0342,0335,0337,0304,0333,0330,0330,0337,0337,0332,",
    "01244:0333,0200,0336,0330,0332,0210,0244,0211,0333,0331,0337,",
    "0245:0210,0332,0332,0362,0335,0203,0203,0203,0203,0334,0203,0363,0332,0332,0331,0211,",
    "01245:0333,0200,0336,0330,0332,0336,0245,0337,0333,0331,0337,",
    "0246:0210,0332,0332,0335,0306,0336,0330,0335,0335,0335,0321,0362,0203,0335,0335,0203,0364,0331,0350,0335,0337,0366,0333,0333,0333,0333,0334,0334,0334,0334,0367,0335,0336,0342,0334,0334,0342,0330,0330,0330,0330,0335,0335,0335,0304,0337,0211,",
    "01246:0333,0200,0336,0330,0332,0336,0246,",
    "0247:0330,0332,0336,0332,0336,0221,0333,0333,0333,0222,0333,0333,0333,0223,0333,0333,0333,0225,0333,0331,0331,0331,0332,0332,0332,0332,0332,0332,0332,0332,0332,0332,0332,0332,0333,0333,0226,0331,0331,0331,0333,0333,0333,0333,0333,0333,0333,0333,0333,0333,0333,0333,0333,0330,0333,0330,0330,0333,0330,0331,0332,0332,0332,0332,0332,0332,0332,0332,0332,0332,0332,0332,0227,0333,0333,0333,0230,0333,0331,0331,0331,0331,0332,0332,0332,0330,0332,0332,0332,0332,0332,0332,0333,0333,0231,0333,0333,0333,0232,0331,0333,0330,0333,0333,0233,0333,0333,0333,0234,0330,0330,0332,0330,0332,0332,0337,0337,",
    "01247:0333,0200,0336,0330,0332,0220,0336,0247,0337,0331,0333,0337,"
  ]
}</json>-->	<path d = "M355 218 L338 218 L338 81 L304 81 L321 63 L338 46 L355 29 L372 46 L389 63 L406 81 L389 81 L372 81 L372 218 L355 218 Z" stroke = "#ff0000" stroke-width = "1" fill = "#ff0000" />	<path d = "M452 258 L440 246 L537 149 L513 125 L537 125 L561 125 L585 125 L585 149 L585 173 L585 197 L573 185 L561 173 L464 270 L452 258 Z" stroke = "#008000" stroke-width = "1" fill = "#008000" />	<path d = "M492 355 L492 338 L629 338 L629 304 L647 321 L664 338 L681 355 L664 372 L647 389 L629 406 L629 389 L629 372 L492 372 L492 355 Z" stroke = "#0000ff" stroke-width = "1" fill = "#0000ff" />	<path d = "M452 452 L464 440 L561 537 L585 513 L585 537 L585 561 L585 585 L561 585 L537 585 L513 585 L525 573 L537 561 L440 464 L452 452 Z" stroke = "#800080" stroke-width = "1" fill = "#800080" />	<path d = "M355 492 L372 492 L372 629 L406 629 L389 647 L372 664 L355 681 L338 664 L321 647 L304 629 L321 629 L338 629 L338 492 L355 492 Z" stroke = "#ff0000" stroke-width = "1" fill = "#ff0000" />	<path d = "M258 452 L270 464 L173 561 L197 585 L173 585 L149 585 L125 585 L125 561 L125 537 L125 513 L137 525 L149 537 L246 440 L258 452 Z" stroke = "#008000" stroke-width = "1" fill = "#008000" />	<path d = "M218 355 L218 372 L81 372 L81 406 L63 389 L46 372 L29 355 L46 338 L63 321 L81 304 L81 321 L81 338 L218 338 L218 355 Z" stroke = "#0000ff" stroke-width = "1" fill = "#0000ff" />	<path d = "M258 258 L246 270 L149 173 L125 197 L125 173 L125 149 L125 125 L149 125 L173 125 L197 125 L185 137 L173 149 L270 246 L258 258 Z" stroke = "#800080" stroke-width = "1" fill = "#800080" />    <circle cx="304" cy = "278" r = "12.84401976344712" stroke = "#000000" stroke-width = "5" fill = "#000000" />
    <circle cx="329" cy = "278" r = "12.84401976344712" stroke = "#000000" stroke-width = "5" fill = "#000000" />
    <circle cx="355" cy = "278" r = "12.84401976344712" stroke = "#000000" stroke-width = "5" fill = "#000000" />
    <circle cx="381" cy = "278" r = "12.84401976344712" stroke = "#000000" stroke-width = "5" fill = "#000000" />
    <circle cx="406" cy = "278" r = "12.84401976344712" stroke = "#000000" stroke-width = "5" fill = "#000000" />
    <circle cx="355" cy = "304" r = "12.84401976344712" stroke = "#000000" stroke-width = "5" fill = "#000000" />
    <circle cx="355" cy = "329" r = "12.84401976344712" stroke = "#000000" stroke-width = "5" fill = "#000000" />
    <circle cx="355" cy = "355" r = "12.84401976344712" stroke = "#000000" stroke-width = "5" fill = "#000000" />
    <circle cx="355" cy = "381" r = "12.84401976344712" stroke = "#000000" stroke-width = "5" fill = "#000000" />
    <circle cx="355" cy = "406" r = "12.84401976344712" stroke = "#000000" stroke-width = "5" fill = "#000000" />
    <circle cx="355" cy = "432" r = "12.84401976344712" stroke = "#000000" stroke-width = "5" fill = "#000000" />
</svg>