<svg width="710" height="710" viewbox = "0 0 710 710"  xmlns="http://www.w3.org/2000/svg">
<!--<json>{
  "glyph": "0224,0330,0330,0330,0330,0330,0224,0331,0331,0331,0331,0331,0333,0333,0333,0333,0333,0224,0330,0330,0330,0330,0330,0224,0331,0331,0331,0331,0331,0331,0331,0331,0331,0331,0224,0332,0332,0332,0332,0332,0224,0330,0330,0330,0330,0330,0332,0332,0332,0332,0332,0224,0331,0331,0331,0331,0331,0224,0330,0330,0330,0330,0330,0330,0330,0330,0330,0330,0224,",
  "x0": 355,
  "y0": 355,
  "unit": 43.72107167325619,
  "width": 710,
  "height": 710,
  "style": {
    "color0": "black",
    "fill0": "black",
    "line0": 1,
    "color1": "black",
    "fill1": "black",
    "line1": 5,
    "color2": "red",
    "fill2": "red",
    "line2": 1,
    "color3": "#FF7900",
    "fill3": "#FF7900",
    "line3": 1,
    "color4": "yellow",
    "fill4": "yellow",
    "line4": 1,
    "color5": "green",
    "fill5": "green",
    "line5": 1,
    "color6": "blue",
    "fill6": "blue",
    "line6": 1,
    "color7": "purple",
    "fill7": "purple",
    "line7": 1
  },
  "shapes": [
    "0220:0370,0336,0336,0331,0332,0336,0331,0332,0337,0337,0337,01124,0371,",
    "0221:0336,0336,0336,0334,0362,0203,0335,0337,0337,0337,0203,0334,0336,0336,0203,0336,0335,0350,0335,0310,0337,0203,0203,0203,0335,0335,0203,0203,0203,0335,0335,0335,0336,0203,0203,0334,0334,0313,0304,0337,0337,0337,0203,0335,0336,0336,0336,0203,0363,0335,0337,0337,0337,",
    "0222:0330,0221,0331,0350,0335,0304,",
    "0223:0222,0222,0222,0222,0222,0222,0222,0222,0211,0211,0211,0220,0210,0210,0210,",
    "0224:0322,0222,0325,0222,0326,0222,0327,0222,0322,0222,0325,0222,0326,0222,0327,0222,0321,0211,0211,0211,0220,0210,0210,0210,0320,",
    "0225:0525,",
    "0226:0526,",
    "0227:0527,",
    "0230:0530,",
    "0231:0531,",
    "0232:0532,",
    "0233:0533,",
    "0234:0331,0534,",
    "0235:0535,",
    "0236:0536,",
    "0237:0220,0336,0331,0332,0336,0321,0342,0335,0342,0335,0342,0335,0342,0335,0330,0330,0333,0333,0337,0337,",
    "01220:0333,0200,0336,0330,0332,0336,0220,0337,0331,0333,0337,",
    "01221:0333,0200,0336,0330,0332,0336,0221,0337,0331,0333,0337,",
    "01222:0333,0200,0336,0330,0332,0336,0222,0222,0222,0350,0335,0304,0337,0335,0335,0331,0333,0337,",
    "01223:0333,0200,0336,0330,0332,0336,0223,0337,0331,0333,0337,",
    "01224:0333,0200,",
    "01225:0333,0200,",
    "01226:0333,0200,",
    "01227:0333,0200,",
    "01230:0333,0200,",
    "01231:0333,0200,",
    "01232:0333,0200,",
    "01233:0333,0200,",
    "01234:0333,0200,0336,0336,0330,0330,0330,0234,0331,0331,0333,0333,0331,0331,0333,0333,0337,0337,0333,0333,0333,",
    "01235:0333,0200,0336,0336,0330,0235,0331,0333,0337,0337,",
    "01236:0333,0200,",
    "01237:0333,0200,",
    "0240:0220,0336,0331,0333,0336,0321,0335,0342,0335,0335,0342,0335,0330,0330,0332,0332,0337,0337,",
    "01240:0333,0200,0336,0330,0332,0210,0240,0211,0333,0331,0337,",
    "0241:0220,0336,0321,0343,0332,0350,0335,0336,0342,0334,0334,0342,0335,0304,0337,0333,0337,",
    "01241:0333,0200,0336,0332,0330,0210,0241,0211,0333,0331,0337,",
    "0242:0220,0321,0336,0343,0333,0336,0350,0335,0342,0334,0334,0342,0335,0337,0304,0332,0337,",
    "01242:0333,0200,0336,0330,0332,0210,0242,0211,0333,0331,0337,",
    "0243:0220,0336,0331,0332,0336,0321,0343,0332,0350,0334,0336,0342,0335,0335,0342,0337,0334,0334,0335,0304,0332,0330,0330,0337,0337,0333,",
    "01243:0333,0200,0336,0330,0332,0210,0243,0211,0333,0331,0337,",
    "0244:0220,0336,0331,0333,0336,0321,0343,0333,0350,0336,0335,0342,0334,0334,0342,0335,0337,0304,0333,0330,0330,0337,0337,0332,",
    "01244:0333,0200,0336,0330,0332,0210,0244,0211,0333,0331,0337,",
    "0245:0210,0332,0332,0362,0335,0203,0203,0203,0203,0334,0203,0363,0332,0332,0331,0211,",
    "01245:0333,0200,0336,0330,0332,0336,0245,0337,0333,0331,0337,",
    "0246:0210,0332,0332,0335,0306,0336,0330,0335,0335,0335,0321,0362,0203,0335,0335,0203,0364,0331,0350,0335,0337,0366,0333,0333,0333,0333,0334,0334,0334,0334,0367,0335,0336,0342,0334,0334,0342,0330,0330,0330,0330,0335,0335,0335,0304,0337,0211,",
    "01246:0333,0200,0336,0330,0332,0336,0246,",
    "0247:0330,0332,0336,0332,0336,0221,0333,0333,0333,0222,0333,0333,0333,0223,0333,0333,0333,0225,0333,0331,0331,0331,0332,0332,0332,0332,0332,0332,0332,0332,0332,0332,0332,0332,0333,0333,0226,0331,0331,0331,0333,0333,0333,0333,0333,0333,0333,0333,0333,0333,0333,0333,0333,0330,0333,0330,0330,0333,0330,0331,0332,0332,0332,0332,0332,0332,0332,0332,0332,0332,0332,0332,0227,0333,0333,0333,0230,0333,0331,0331,0331,0331,0332,0332,0332,0330,0332,0332,0332,0332,0332,0332,0333,0333,0231,0333,0333,0333,0232,0331,0333,0330,0333,0333,0233,0333,0333,0333,0234,0330,0330,0332,0330,0332,0332,0337,0337,",
    "01247:0333,0200,0336,0330,0332,0220,0336,0247,0337,0331,0333,0337,"
  ]
}</json>-->	<path d = "M355 311 L350 311 L350 268 L339 268 L344 262 L350 257 L355 251 L360 257 L366 262 L371 268 L366 268 L360 268 L360 311 L355 311 Z" stroke = "#ff0000" stroke-width = "1" fill = "#ff0000" />	<path d = "M386 324 L382 320 L413 289 L405 282 L413 282 L421 282 L428 282 L428 289 L428 297 L428 305 L425 301 L421 297 L390 328 L386 324 Z" stroke = "#008000" stroke-width = "1" fill = "#008000" />	<path d = "M399 355 L399 350 L442 350 L442 339 L448 344 L453 350 L459 355 L453 360 L448 366 L442 371 L442 366 L442 360 L399 360 L399 355 Z" stroke = "#0000ff" stroke-width = "1" fill = "#0000ff" />	<path d = "M386 386 L390 382 L421 413 L428 405 L428 413 L428 421 L428 428 L421 428 L413 428 L405 428 L409 425 L413 421 L382 390 L386 386 Z" stroke = "#800080" stroke-width = "1" fill = "#800080" />	<path d = "M355 399 L360 399 L360 442 L371 442 L366 448 L360 453 L355 459 L350 453 L344 448 L339 442 L344 442 L350 442 L350 399 L355 399 Z" stroke = "#ff0000" stroke-width = "1" fill = "#ff0000" />	<path d = "M324 386 L328 390 L297 421 L305 428 L297 428 L289 428 L282 428 L282 421 L282 413 L282 405 L285 409 L289 413 L320 382 L324 386 Z" stroke = "#008000" stroke-width = "1" fill = "#008000" />	<path d = "M311 355 L311 360 L268 360 L268 371 L262 366 L257 360 L251 355 L257 350 L262 344 L268 339 L268 344 L268 350 L311 350 L311 355 Z" stroke = "#0000ff" stroke-width = "1" fill = "#0000ff" />	<path d = "M324 324 L320 328 L289 297 L282 305 L282 297 L282 289 L282 282 L289 282 L297 282 L305 282 L301 285 L297 289 L328 320 L324 324 Z" stroke = "#800080" stroke-width = "1" fill = "#800080" />    <circle cx="339" cy = "330" r = "4.092500519915135" stroke = "#000000" stroke-width = "5" fill = "#000000" />
    <circle cx="347" cy = "330" r = "4.092500519915135" stroke = "#000000" stroke-width = "5" fill = "#000000" />
    <circle cx="355" cy = "330" r = "4.092500519915135" stroke = "#000000" stroke-width = "5" fill = "#000000" />
    <circle cx="363" cy = "330" r = "4.092500519915135" stroke = "#000000" stroke-width = "5" fill = "#000000" />
    <circle cx="371" cy = "330" r = "4.092500519915135" stroke = "#000000" stroke-width = "5" fill = "#000000" />
    <circle cx="355" cy = "339" r = "4.092500519915135" stroke = "#000000" stroke-width = "5" fill = "#000000" />
    <circle cx="355" cy = "347" r = "4.092500519915135" stroke = "#000000" stroke-width = "5" fill = "#000000" />
    <circle cx="355" cy = "355" r = "4.092500519915135" stroke = "#000000" stroke-width = "5" fill = "#000000" />
    <circle cx="355" cy = "363" r = "4.092500519915135" stroke = "#000000" stroke-width = "5" fill = "#000000" />
    <circle cx="355" cy = "371" r = "4.092500519915135" stroke = "#000000" stroke-width = "5" fill = "#000000" />
    <circle cx="355" cy = "380" r = "4.092500519915135" stroke = "#000000" stroke-width = "5" fill = "#000000" />
	<path d = "M355 93 L350 93 L350 49 L339 49 L344 43 L350 38 L355 33 L360 38 L366 43 L371 49 L366 49 L360 49 L360 93 L355 93 Z" stroke = "#ff0000" stroke-width = "1" fill = "#ff0000" />	<path d = "M386 105 L382 102 L413 71 L405 63 L413 63 L421 63 L428 63 L428 71 L428 78 L428 86 L425 82 L421 78 L390 109 L386 105 Z" stroke = "#008000" stroke-width = "1" fill = "#008000" />	<path d = "M399 136 L399 131 L442 131 L442 120 L448 125 L453 131 L459 136 L453 142 L448 147 L442 153 L442 147 L442 142 L399 142 L399 136 Z" stroke = "#0000ff" stroke-width = "1" fill = "#0000ff" />	<path d = "M386 167 L390 163 L421 194 L428 187 L428 194 L428 202 L428 210 L421 210 L413 210 L405 210 L409 206 L413 202 L382 171 L386 167 Z" stroke = "#800080" stroke-width = "1" fill = "#800080" />	<path d = "M355 180 L360 180 L360 224 L371 224 L366 229 L360 235 L355 240 L350 235 L344 229 L339 224 L344 224 L350 224 L350 180 L355 180 Z" stroke = "#ff0000" stroke-width = "1" fill = "#ff0000" />	<path d = "M324 167 L328 171 L297 202 L305 210 L297 210 L289 210 L282 210 L282 202 L282 194 L282 187 L285 190 L289 194 L320 163 L324 167 Z" stroke = "#008000" stroke-width = "1" fill = "#008000" />	<path d = "M311 136 L311 142 L268 142 L268 153 L262 147 L257 142 L251 136 L257 131 L262 125 L268 120 L268 125 L268 131 L311 131 L311 136 Z" stroke = "#0000ff" stroke-width = "1" fill = "#0000ff" />	<path d = "M324 105 L320 109 L289 78 L282 86 L282 78 L282 71 L282 63 L289 63 L297 63 L305 63 L301 67 L297 71 L328 102 L324 105 Z" stroke = "#800080" stroke-width = "1" fill = "#800080" />    <circle cx="339" cy = "112" r = "4.092500519915135" stroke = "#000000" stroke-width = "5" fill = "#000000" />
    <circle cx="347" cy = "112" r = "4.092500519915135" stroke = "#000000" stroke-width = "5" fill = "#000000" />
    <circle cx="355" cy = "112" r = "4.092500519915135" stroke = "#000000" stroke-width = "5" fill = "#000000" />
    <circle cx="363" cy = "112" r = "4.092500519915135" stroke = "#000000" stroke-width = "5" fill = "#000000" />
    <circle cx="371" cy = "112" r = "4.092500519915135" stroke = "#000000" stroke-width = "5" fill = "#000000" />
    <circle cx="355" cy = "120" r = "4.092500519915135" stroke = "#000000" stroke-width = "5" fill = "#000000" />
    <circle cx="355" cy = "128" r = "4.092500519915135" stroke = "#000000" stroke-width = "5" fill = "#000000" />
    <circle cx="355" cy = "136" r = "4.092500519915135" stroke = "#000000" stroke-width = "5" fill = "#000000" />
    <circle cx="355" cy = "145" r = "4.092500519915135" stroke = "#000000" stroke-width = "5" fill = "#000000" />
    <circle cx="355" cy = "153" r = "4.092500519915135" stroke = "#000000" stroke-width = "5" fill = "#000000" />
    <circle cx="355" cy = "161" r = "4.092500519915135" stroke = "#000000" stroke-width = "5" fill = "#000000" />
	<path d = "M574 311 L568 311 L568 268 L557 268 L563 262 L568 257 L574 251 L579 257 L585 262 L590 268 L585 268 L579 268 L579 311 L574 311 Z" stroke = "#ff0000" stroke-width = "1" fill = "#ff0000" />	<path d = "M605 324 L601 320 L632 289 L624 282 L632 282 L639 282 L647 282 L647 289 L647 297 L647 305 L643 301 L639 297 L608 328 L605 324 Z" stroke = "#008000" stroke-width = "1" fill = "#008000" />	<path d = "M617 355 L617 350 L661 350 L661 339 L667 344 L672 350 L677 355 L672 360 L667 366 L661 371 L661 366 L661 360 L617 360 L617 355 Z" stroke = "#0000ff" stroke-width = "1" fill = "#0000ff" />	<path d = "M605 386 L608 382 L639 413 L647 405 L647 413 L647 421 L647 428 L639 428 L632 428 L624 428 L628 425 L632 421 L601 390 L605 386 Z" stroke = "#800080" stroke-width = "1" fill = "#800080" />	<path d = "M574 399 L579 399 L579 442 L590 442 L585 448 L579 453 L574 459 L568 453 L563 448 L557 442 L563 442 L568 442 L568 399 L574 399 Z" stroke = "#ff0000" stroke-width = "1" fill = "#ff0000" />	<path d = "M543 386 L547 390 L516 421 L523 428 L516 428 L508 428 L500 428 L500 421 L500 413 L500 405 L504 409 L508 413 L539 382 L543 386 Z" stroke = "#008000" stroke-width = "1" fill = "#008000" />	<path d = "M530 355 L530 360 L486 360 L486 371 L481 366 L475 360 L470 355 L475 350 L481 344 L486 339 L486 344 L486 350 L530 350 L530 355 Z" stroke = "#0000ff" stroke-width = "1" fill = "#0000ff" />	<path d = "M543 324 L539 328 L508 297 L500 305 L500 297 L500 289 L500 282 L508 282 L516 282 L523 282 L520 285 L516 289 L547 320 L543 324 Z" stroke = "#800080" stroke-width = "1" fill = "#800080" />    <circle cx="557" cy = "330" r = "4.092500519915135" stroke = "#000000" stroke-width = "5" fill = "#000000" />
    <circle cx="565" cy = "330" r = "4.092500519915135" stroke = "#000000" stroke-width = "5" fill = "#000000" />
    <circle cx="574" cy = "330" r = "4.092500519915135" stroke = "#000000" stroke-width = "5" fill = "#000000" />
    <circle cx="582" cy = "330" r = "4.092500519915135" stroke = "#000000" stroke-width = "5" fill = "#000000" />
    <circle cx="590" cy = "330" r = "4.092500519915135" stroke = "#000000" stroke-width = "5" fill = "#000000" />
    <circle cx="574" cy = "339" r = "4.092500519915135" stroke = "#000000" stroke-width = "5" fill = "#000000" />
    <circle cx="574" cy = "347" r = "4.092500519915135" stroke = "#000000" stroke-width = "5" fill = "#000000" />
    <circle cx="574" cy = "355" r = "4.092500519915135" stroke = "#000000" stroke-width = "5" fill = "#000000" />
    <circle cx="574" cy = "363" r = "4.092500519915135" stroke = "#000000" stroke-width = "5" fill = "#000000" />
    <circle cx="574" cy = "371" r = "4.092500519915135" stroke = "#000000" stroke-width = "5" fill = "#000000" />
    <circle cx="574" cy = "380" r = "4.092500519915135" stroke = "#000000" stroke-width = "5" fill = "#000000" />
	<path d = "M574 93 L568 93 L568 49 L557 49 L563 43 L568 38 L574 33 L579 38 L585 43 L590 49 L585 49 L579 49 L579 93 L574 93 Z" stroke = "#ff0000" stroke-width = "1" fill = "#ff0000" />	<path d = "M605 105 L601 102 L632 71 L624 63 L632 63 L639 63 L647 63 L647 71 L647 78 L647 86 L643 82 L639 78 L608 109 L605 105 Z" stroke = "#008000" stroke-width = "1" fill = "#008000" />	<path d = "M617 136 L617 131 L661 131 L661 120 L667 125 L672 131 L677 136 L672 142 L667 147 L661 153 L661 147 L661 142 L617 142 L617 136 Z" stroke = "#0000ff" stroke-width = "1" fill = "#0000ff" />	<path d = "M605 167 L608 163 L639 194 L647 187 L647 194 L647 202 L647 210 L639 210 L632 210 L624 210 L628 206 L632 202 L601 171 L605 167 Z" stroke = "#800080" stroke-width = "1" fill = "#800080" />	<path d = "M574 180 L579 180 L579 224 L590 224 L585 229 L579 235 L574 240 L568 235 L563 229 L557 224 L563 224 L568 224 L568 180 L574 180 Z" stroke = "#ff0000" stroke-width = "1" fill = "#ff0000" />	<path d = "M543 167 L547 171 L516 202 L523 210 L516 210 L508 210 L500 210 L500 202 L500 194 L500 187 L504 190 L508 194 L539 163 L543 167 Z" stroke = "#008000" stroke-width = "1" fill = "#008000" />	<path d = "M530 136 L530 142 L486 142 L486 153 L481 147 L475 142 L470 136 L475 131 L481 125 L486 120 L486 125 L486 131 L530 131 L530 136 Z" stroke = "#0000ff" stroke-width = "1" fill = "#0000ff" />	<path d = "M543 105 L539 109 L508 78 L500 86 L500 78 L500 71 L500 63 L508 63 L516 63 L523 63 L520 67 L516 71 L547 102 L543 105 Z" stroke = "#800080" stroke-width = "1" fill = "#800080" />    <circle cx="557" cy = "112" r = "4.092500519915135" stroke = "#000000" stroke-width = "5" fill = "#000000" />
    <circle cx="565" cy = "112" r = "4.092500519915135" stroke = "#000000" stroke-width = "5" fill = "#000000" />
    <circle cx="574" cy = "112" r = "4.092500519915135" stroke = "#000000" stroke-width = "5" fill = "#000000" />
    <circle cx="582" cy = "112" r = "4.092500519915135" stroke = "#000000" stroke-width = "5" fill = "#000000" />
    <circle cx="590" cy = "112" r = "4.092500519915135" stroke = "#000000" stroke-width = "5" fill = "#000000" />
    <circle cx="574" cy = "120" r = "4.092500519915135" stroke = "#000000" stroke-width = "5" fill = "#000000" />
    <circle cx="574" cy = "128" r = "4.092500519915135" stroke = "#000000" stroke-width = "5" fill = "#000000" />
    <circle cx="574" cy = "136" r = "4.092500519915135" stroke = "#000000" stroke-width = "5" fill = "#000000" />
    <circle cx="574" cy = "145" r = "4.092500519915135" stroke = "#000000" stroke-width = "5" fill = "#000000" />
    <circle cx="574" cy = "153" r = "4.092500519915135" stroke = "#000000" stroke-width = "5" fill = "#000000" />
    <circle cx="574" cy = "161" r = "4.092500519915135" stroke = "#000000" stroke-width = "5" fill = "#000000" />
	<path d = "M574 530 L568 530 L568 486 L557 486 L563 481 L568 475 L574 470 L579 475 L585 481 L590 486 L585 486 L579 486 L579 530 L574 530 Z" stroke = "#ff0000" stroke-width = "1" fill = "#ff0000" />	<path d = "M605 543 L601 539 L632 508 L624 500 L632 500 L639 500 L647 500 L647 508 L647 516 L647 523 L643 520 L639 516 L608 547 L605 543 Z" stroke = "#008000" stroke-width = "1" fill = "#008000" />	<path d = "M617 574 L617 568 L661 568 L661 557 L667 563 L672 568 L677 574 L672 579 L667 585 L661 590 L661 585 L661 579 L617 579 L617 574 Z" stroke = "#0000ff" stroke-width = "1" fill = "#0000ff" />	<path d = "M605 605 L608 601 L639 632 L647 624 L647 632 L647 639 L647 647 L639 647 L632 647 L624 647 L628 643 L632 639 L601 608 L605 605 Z" stroke = "#800080" stroke-width = "1" fill = "#800080" />	<path d = "M574 617 L579 617 L579 661 L590 661 L585 667 L579 672 L574 677 L568 672 L563 667 L557 661 L563 661 L568 661 L568 617 L574 617 Z" stroke = "#ff0000" stroke-width = "1" fill = "#ff0000" />	<path d = "M543 605 L547 608 L516 639 L523 647 L516 647 L508 647 L500 647 L500 639 L500 632 L500 624 L504 628 L508 632 L539 601 L543 605 Z" stroke = "#008000" stroke-width = "1" fill = "#008000" />	<path d = "M530 574 L530 579 L486 579 L486 590 L481 585 L475 579 L470 574 L475 568 L481 563 L486 557 L486 563 L486 568 L530 568 L530 574 Z" stroke = "#0000ff" stroke-width = "1" fill = "#0000ff" />	<path d = "M543 543 L539 547 L508 516 L500 523 L500 516 L500 508 L500 500 L508 500 L516 500 L523 500 L520 504 L516 508 L547 539 L543 543 Z" stroke = "#800080" stroke-width = "1" fill = "#800080" />    <circle cx="557" cy = "549" r = "4.092500519915135" stroke = "#000000" stroke-width = "5" fill = "#000000" />
    <circle cx="565" cy = "549" r = "4.092500519915135" stroke = "#000000" stroke-width = "5" fill = "#000000" />
    <circle cx="574" cy = "549" r = "4.092500519915135" stroke = "#000000" stroke-width = "5" fill = "#000000" />
    <circle cx="582" cy = "549" r = "4.092500519915135" stroke = "#000000" stroke-width = "5" fill = "#000000" />
    <circle cx="590" cy = "549" r = "4.092500519915135" stroke = "#000000" stroke-width = "5" fill = "#000000" />
    <circle cx="574" cy = "557" r = "4.092500519915135" stroke = "#000000" stroke-width = "5" fill = "#000000" />
    <circle cx="574" cy = "565" r = "4.092500519915135" stroke = "#000000" stroke-width = "5" fill = "#000000" />
    <circle cx="574" cy = "574" r = "4.092500519915135" stroke = "#000000" stroke-width = "5" fill = "#000000" />
    <circle cx="574" cy = "582" r = "4.092500519915135" stroke = "#000000" stroke-width = "5" fill = "#000000" />
    <circle cx="574" cy = "590" r = "4.092500519915135" stroke = "#000000" stroke-width = "5" fill = "#000000" />
    <circle cx="574" cy = "598" r = "4.092500519915135" stroke = "#000000" stroke-width = "5" fill = "#000000" />
	<path d = "M355 530 L350 530 L350 486 L339 486 L344 481 L350 475 L355 470 L360 475 L366 481 L371 486 L366 486 L360 486 L360 530 L355 530 Z" stroke = "#ff0000" stroke-width = "1" fill = "#ff0000" />	<path d = "M386 543 L382 539 L413 508 L405 500 L413 500 L421 500 L428 500 L428 508 L428 516 L428 523 L425 520 L421 516 L390 547 L386 543 Z" stroke = "#008000" stroke-width = "1" fill = "#008000" />	<path d = "M399 574 L399 568 L442 568 L442 557 L448 563 L453 568 L459 574 L453 579 L448 585 L442 590 L442 585 L442 579 L399 579 L399 574 Z" stroke = "#0000ff" stroke-width = "1" fill = "#0000ff" />	<path d = "M386 605 L390 601 L421 632 L428 624 L428 632 L428 639 L428 647 L421 647 L413 647 L405 647 L409 643 L413 639 L382 608 L386 605 Z" stroke = "#800080" stroke-width = "1" fill = "#800080" />	<path d = "M355 617 L360 617 L360 661 L371 661 L366 667 L360 672 L355 677 L350 672 L344 667 L339 661 L344 661 L350 661 L350 617 L355 617 Z" stroke = "#ff0000" stroke-width = "1" fill = "#ff0000" />	<path d = "M324 605 L328 608 L297 639 L305 647 L297 647 L289 647 L282 647 L282 639 L282 632 L282 624 L285 628 L289 632 L320 601 L324 605 Z" stroke = "#008000" stroke-width = "1" fill = "#008000" />	<path d = "M311 574 L311 579 L268 579 L268 590 L262 585 L257 579 L251 574 L257 568 L262 563 L268 557 L268 563 L268 568 L311 568 L311 574 Z" stroke = "#0000ff" stroke-width = "1" fill = "#0000ff" />	<path d = "M324 543 L320 547 L289 516 L282 523 L282 516 L282 508 L282 500 L289 500 L297 500 L305 500 L301 504 L297 508 L328 539 L324 543 Z" stroke = "#800080" stroke-width = "1" fill = "#800080" />    <circle cx="339" cy = "549" r = "4.092500519915135" stroke = "#000000" stroke-width = "5" fill = "#000000" />
    <circle cx="347" cy = "549" r = "4.092500519915135" stroke = "#000000" stroke-width = "5" fill = "#000000" />
    <circle cx="355" cy = "549" r = "4.092500519915135" stroke = "#000000" stroke-width = "5" fill = "#000000" />
    <circle cx="363" cy = "549" r = "4.092500519915135" stroke = "#000000" stroke-width = "5" fill = "#000000" />
    <circle cx="371" cy = "549" r = "4.092500519915135" stroke = "#000000" stroke-width = "5" fill = "#000000" />
    <circle cx="355" cy = "557" r = "4.092500519915135" stroke = "#000000" stroke-width = "5" fill = "#000000" />
    <circle cx="355" cy = "565" r = "4.092500519915135" stroke = "#000000" stroke-width = "5" fill = "#000000" />
    <circle cx="355" cy = "574" r = "4.092500519915135" stroke = "#000000" stroke-width = "5" fill = "#000000" />
    <circle cx="355" cy = "582" r = "4.092500519915135" stroke = "#000000" stroke-width = "5" fill = "#000000" />
    <circle cx="355" cy = "590" r = "4.092500519915135" stroke = "#000000" stroke-width = "5" fill = "#000000" />
    <circle cx="355" cy = "598" r = "4.092500519915135" stroke = "#000000" stroke-width = "5" fill = "#000000" />
	<path d = "M136 311 L131 311 L131 268 L120 268 L125 262 L131 257 L136 251 L142 257 L147 262 L153 268 L147 268 L142 268 L142 311 L136 311 Z" stroke = "#ff0000" stroke-width = "1" fill = "#ff0000" />	<path d = "M167 324 L163 320 L194 289 L187 282 L194 282 L202 282 L210 282 L210 289 L210 297 L210 305 L206 301 L202 297 L171 328 L167 324 Z" stroke = "#008000" stroke-width = "1" fill = "#008000" />	<path d = "M180 355 L180 350 L224 350 L224 339 L229 344 L235 350 L240 355 L235 360 L229 366 L224 371 L224 366 L224 360 L180 360 L180 355 Z" stroke = "#0000ff" stroke-width = "1" fill = "#0000ff" />	<path d = "M167 386 L171 382 L202 413 L210 405 L210 413 L210 421 L210 428 L202 428 L194 428 L187 428 L190 425 L194 421 L163 390 L167 386 Z" stroke = "#800080" stroke-width = "1" fill = "#800080" />	<path d = "M136 399 L142 399 L142 442 L153 442 L147 448 L142 453 L136 459 L131 453 L125 448 L120 442 L125 442 L131 442 L131 399 L136 399 Z" stroke = "#ff0000" stroke-width = "1" fill = "#ff0000" />	<path d = "M105 386 L109 390 L78 421 L86 428 L78 428 L71 428 L63 428 L63 421 L63 413 L63 405 L67 409 L71 413 L102 382 L105 386 Z" stroke = "#008000" stroke-width = "1" fill = "#008000" />	<path d = "M93 355 L93 360 L49 360 L49 371 L43 366 L38 360 L33 355 L38 350 L43 344 L49 339 L49 344 L49 350 L93 350 L93 355 Z" stroke = "#0000ff" stroke-width = "1" fill = "#0000ff" />	<path d = "M105 324 L102 328 L71 297 L63 305 L63 297 L63 289 L63 282 L71 282 L78 282 L86 282 L82 285 L78 289 L109 320 L105 324 Z" stroke = "#800080" stroke-width = "1" fill = "#800080" />    <circle cx="120" cy = "330" r = "4.092500519915135" stroke = "#000000" stroke-width = "5" fill = "#000000" />
    <circle cx="128" cy = "330" r = "4.092500519915135" stroke = "#000000" stroke-width = "5" fill = "#000000" />
    <circle cx="136" cy = "330" r = "4.092500519915135" stroke = "#000000" stroke-width = "5" fill = "#000000" />
    <circle cx="145" cy = "330" r = "4.092500519915135" stroke = "#000000" stroke-width = "5" fill = "#000000" />
    <circle cx="153" cy = "330" r = "4.092500519915135" stroke = "#000000" stroke-width = "5" fill = "#000000" />
    <circle cx="136" cy = "339" r = "4.092500519915135" stroke = "#000000" stroke-width = "5" fill = "#000000" />
    <circle cx="136" cy = "347" r = "4.092500519915135" stroke = "#000000" stroke-width = "5" fill = "#000000" />
    <circle cx="136" cy = "355" r = "4.092500519915135" stroke = "#000000" stroke-width = "5" fill = "#000000" />
    <circle cx="136" cy = "363" r = "4.092500519915135" stroke = "#000000" stroke-width = "5" fill = "#000000" />
    <circle cx="136" cy = "371" r = "4.092500519915135" stroke = "#000000" stroke-width = "5" fill = "#000000" />
    <circle cx="136" cy = "380" r = "4.092500519915135" stroke = "#000000" stroke-width = "5" fill = "#000000" />
	<path d = "M136 530 L131 530 L131 486 L120 486 L125 481 L131 475 L136 470 L142 475 L147 481 L153 486 L147 486 L142 486 L142 530 L136 530 Z" stroke = "#ff0000" stroke-width = "1" fill = "#ff0000" />	<path d = "M167 543 L163 539 L194 508 L187 500 L194 500 L202 500 L210 500 L210 508 L210 516 L210 523 L206 520 L202 516 L171 547 L167 543 Z" stroke = "#008000" stroke-width = "1" fill = "#008000" />	<path d = "M180 574 L180 568 L224 568 L224 557 L229 563 L235 568 L240 574 L235 579 L229 585 L224 590 L224 585 L224 579 L180 579 L180 574 Z" stroke = "#0000ff" stroke-width = "1" fill = "#0000ff" />	<path d = "M167 605 L171 601 L202 632 L210 624 L210 632 L210 639 L210 647 L202 647 L194 647 L187 647 L190 643 L194 639 L163 608 L167 605 Z" stroke = "#800080" stroke-width = "1" fill = "#800080" />	<path d = "M136 617 L142 617 L142 661 L153 661 L147 667 L142 672 L136 677 L131 672 L125 667 L120 661 L125 661 L131 661 L131 617 L136 617 Z" stroke = "#ff0000" stroke-width = "1" fill = "#ff0000" />	<path d = "M105 605 L109 608 L78 639 L86 647 L78 647 L71 647 L63 647 L63 639 L63 632 L63 624 L67 628 L71 632 L102 601 L105 605 Z" stroke = "#008000" stroke-width = "1" fill = "#008000" />	<path d = "M93 574 L93 579 L49 579 L49 590 L43 585 L38 579 L33 574 L38 568 L43 563 L49 557 L49 563 L49 568 L93 568 L93 574 Z" stroke = "#0000ff" stroke-width = "1" fill = "#0000ff" />	<path d = "M105 543 L102 547 L71 516 L63 523 L63 516 L63 508 L63 500 L71 500 L78 500 L86 500 L82 504 L78 508 L109 539 L105 543 Z" stroke = "#800080" stroke-width = "1" fill = "#800080" />    <circle cx="120" cy = "549" r = "4.092500519915135" stroke = "#000000" stroke-width = "5" fill = "#000000" />
    <circle cx="128" cy = "549" r = "4.092500519915135" stroke = "#000000" stroke-width = "5" fill = "#000000" />
    <circle cx="136" cy = "549" r = "4.092500519915135" stroke = "#000000" stroke-width = "5" fill = "#000000" />
    <circle cx="145" cy = "549" r = "4.092500519915135" stroke = "#000000" stroke-width = "5" fill = "#000000" />
    <circle cx="153" cy = "549" r = "4.092500519915135" stroke = "#000000" stroke-width = "5" fill = "#000000" />
    <circle cx="136" cy = "557" r = "4.092500519915135" stroke = "#000000" stroke-width = "5" fill = "#000000" />
    <circle cx="136" cy = "565" r = "4.092500519915135" stroke = "#000000" stroke-width = "5" fill = "#000000" />
    <circle cx="136" cy = "574" r = "4.092500519915135" stroke = "#000000" stroke-width = "5" fill = "#000000" />
    <circle cx="136" cy = "582" r = "4.092500519915135" stroke = "#000000" stroke-width = "5" fill = "#000000" />
    <circle cx="136" cy = "590" r = "4.092500519915135" stroke = "#000000" stroke-width = "5" fill = "#000000" />
    <circle cx="136" cy = "598" r = "4.092500519915135" stroke = "#000000" stroke-width = "5" fill = "#000000" />
	<path d = "M136 93 L131 93 L131 49 L120 49 L125 43 L131 38 L136 33 L142 38 L147 43 L153 49 L147 49 L142 49 L142 93 L136 93 Z" stroke = "#ff0000" stroke-width = "1" fill = "#ff0000" />	<path d = "M167 105 L163 102 L194 71 L187 63 L194 63 L202 63 L210 63 L210 71 L210 78 L210 86 L206 82 L202 78 L171 109 L167 105 Z" stroke = "#008000" stroke-width = "1" fill = "#008000" />	<path d = "M180 136 L180 131 L224 131 L224 120 L229 125 L235 131 L240 136 L235 142 L229 147 L224 153 L224 147 L224 142 L180 142 L180 136 Z" stroke = "#0000ff" stroke-width = "1" fill = "#0000ff" />	<path d = "M167 167 L171 163 L202 194 L210 187 L210 194 L210 202 L210 210 L202 210 L194 210 L187 210 L190 206 L194 202 L163 171 L167 167 Z" stroke = "#800080" stroke-width = "1" fill = "#800080" />	<path d = "M136 180 L142 180 L142 224 L153 224 L147 229 L142 235 L136 240 L131 235 L125 229 L120 224 L125 224 L131 224 L131 180 L136 180 Z" stroke = "#ff0000" stroke-width = "1" fill = "#ff0000" />	<path d = "M105 167 L109 171 L78 202 L86 210 L78 210 L71 210 L63 210 L63 202 L63 194 L63 187 L67 190 L71 194 L102 163 L105 167 Z" stroke = "#008000" stroke-width = "1" fill = "#008000" />	<path d = "M93 136 L93 142 L49 142 L49 153 L43 147 L38 142 L33 136 L38 131 L43 125 L49 120 L49 125 L49 131 L93 131 L93 136 Z" stroke = "#0000ff" stroke-width = "1" fill = "#0000ff" />	<path d = "M105 105 L102 109 L71 78 L63 86 L63 78 L63 71 L63 63 L71 63 L78 63 L86 63 L82 67 L78 71 L109 102 L105 105 Z" stroke = "#800080" stroke-width = "1" fill = "#800080" />    <circle cx="120" cy = "112" r = "4.092500519915135" stroke = "#000000" stroke-width = "5" fill = "#000000" />
    <circle cx="128" cy = "112" r = "4.092500519915135" stroke = "#000000" stroke-width = "5" fill = "#000000" />
    <circle cx="136" cy = "112" r = "4.092500519915135" stroke = "#000000" stroke-width = "5" fill = "#000000" />
    <circle cx="145" cy = "112" r = "4.092500519915135" stroke = "#000000" stroke-width = "5" fill = "#000000" />
    <circle cx="153" cy = "112" r = "4.092500519915135" stroke = "#000000" stroke-width = "5" fill = "#000000" />
    <circle cx="136" cy = "120" r = "4.092500519915135" stroke = "#000000" stroke-width = "5" fill = "#000000" />
    <circle cx="136" cy = "128" r = "4.092500519915135" stroke = "#000000" stroke-width = "5" fill = "#000000" />
    <circle cx="136" cy = "136" r = "4.092500519915135" stroke = "#000000" stroke-width = "5" fill = "#000000" />
    <circle cx="136" cy = "145" r = "4.092500519915135" stroke = "#000000" stroke-width = "5" fill = "#000000" />
    <circle cx="136" cy = "153" r = "4.092500519915135" stroke = "#000000" stroke-width = "5" fill = "#000000" />
    <circle cx="136" cy = "161" r = "4.092500519915135" stroke = "#000000" stroke-width = "5" fill = "#000000" />
</svg>